<svg xmlns="http://www.w3.org/2000/svg" xmlns:xlink="http://www.w3.org/1999/xlink" width="620" height="411" viewBox="0 0 620 411">
    <defs>
        <path id="a" d="M371.75 223.942H0V.094h371.75v223.848z"/>
    </defs>
    <g fill="none" fill-rule="evenodd">
        <path fill="#E97876" d="M111.99 340.958l1.74-1.024h.973v7.167h-1.382v-5.57l-1.33.738z"/>
        <path stroke="#E97876" d="M121.845 343.39a7.998 7.998 0 1 1-15.996 0 7.998 7.998 0 0 1 15.996 0z"/>
        <path fill="#E97876" d="M174.337 306.848c.15.212.34.384.573.517.231.134.484.2.757.2.171 0 .336-.033.497-.097.16-.065.303-.154.43-.266a1.231 1.231 0 0 0 .415-.937c0-.184-.036-.357-.108-.517a1.307 1.307 0 0 0-.747-.697 1.605 1.605 0 0 0-.558-.096c-.301 0-.588.067-.86.204v-.825l1.34-1.58h-2.395v-1.229h4.351v.82l-1.3 1.585c.491.192.89.492 1.198.899.307.406.46.884.46 1.43 0 .383-.07.73-.21 1.042-.14.31-.329.576-.568.795-.239.219-.522.39-.85.513a2.95 2.95 0 0 1-1.043.185c-.45 0-.88-.096-1.285-.287a3.372 3.372 0 0 1-1.09-.83l.993-.829z"/>
        <path stroke="#E97876" d="M184.145 304.98a7.998 7.998 0 1 1-15.996 0 7.998 7.998 0 0 1 15.996 0z"/>
        <path fill="#E97876" d="M249.63 260.468h4.709v.819l-3.082 6.347h-1.464l2.898-5.938h-3.061z"/>
        <path stroke="#E97876" d="M259.587 263.923a7.998 7.998 0 1 1-15.996 0 7.998 7.998 0 0 1 15.996 0z"/>
        <path fill="#E97876" d="M335.969 215.606c.156.164.34.3.552.41.212.109.437.163.676.163a1.229 1.229 0 0 0 1.152-.737c.071-.157.107-.328.107-.512a1.272 1.272 0 0 0-.44-.972 1.204 1.204 0 0 0-.394-.215 1.546 1.546 0 0 0-.476-.071 1.671 1.671 0 0 0-1.054.388l-.86-.122.46-3.799h3.788v1.229h-2.662l-.112 1.126c.156-.034.341-.05.553-.05.28 0 .564.038.855.116.29.079.56.22.813.425.287.225.51.509.67.85.161.341.241.706.241 1.095 0 .355-.07.683-.21.983a2.5 2.5 0 0 1-.568.783 2.651 2.651 0 0 1-.839.523 2.78 2.78 0 0 1-1.024.189c-.832 0-1.556-.308-2.17-.922l.942-.88z"/>
        <path stroke="#E97876" d="M345.675 213.595a7.998 7.998 0 1 1-15.996 0 7.998 7.998 0 0 1 15.996 0z"/>
        <path fill="#E97876" d="M250.332 97.253v-1.678l-1.341 1.678h1.34zm1.382-4.3v4.3h1.177v1.23h-1.177v1.637h-1.382v-1.638h-3.328v-.819l3.737-4.71h.973z"/>
        <path stroke="#E97876" d="M258.497 96.41a7.998 7.998 0 1 1-15.996 0 7.998 7.998 0 0 1 15.996 0z"/>
        <path fill="#E97876" d="M482.176 225.757c-.095.137-.19.3-.286.492-.096.19-.143.406-.143.644 0 .171.033.33.102.477a1.27 1.27 0 0 0 1.167.742 1.185 1.185 0 0 0 1.12-.763 1.358 1.358 0 0 0-.004-.972 1.302 1.302 0 0 0-.261-.41 1.214 1.214 0 0 0-.405-.281 1.293 1.293 0 0 0-.522-.102c-.26 0-.515.057-.768.173zm2.16-3.685l-1.35 2.283h.091a2.545 2.545 0 0 1 1.766.696 2.416 2.416 0 0 1 .743 1.77c0 .349-.069.677-.205.983-.137.308-.32.574-.548.799-.229.226-.498.404-.809.537-.31.134-.64.2-.988.2-.334 0-.659-.058-.972-.174a2.706 2.706 0 0 1-.84-.49 2.383 2.383 0 0 1-.588-.77 2.27 2.27 0 0 1-.22-1.013c0-.354.07-.692.21-1.013.139-.32.305-.642.496-.962l1.69-2.846h1.525z"/>
        <path stroke="#E97876" d="M491.013 225.528a7.998 7.998 0 1 1-15.997-.001 7.998 7.998 0 0 1 15.997 0z"/>
        <path fill="#E97876" d="M544.784 267.266a2.3 2.3 0 0 1 .85-1.198c.198-.144.416-.256.656-.338.238-.082.49-.123.757-.123.307 0 .598.055.875.164.276.109.52.26.732.456a2.141 2.141 0 0 1 .686 1.591c0 .437-.094.82-.282 1.152-.187.33-.4.633-.64.906l-1.525 1.771h2.498v1.229h-4.658v-.82l2.518-2.856c.28-.314.468-.58.563-.799.096-.217.144-.42.144-.603a.945.945 0 0 0-.071-.359 1.043 1.043 0 0 0-.196-.306.96.96 0 0 0-.291-.215.838.838 0 0 0-.374-.083.879.879 0 0 0-.61.226c-.166.15-.287.345-.362.583l-1.27-.378z"/>
        <path stroke="#E97876" d="M555.38 269.165a7.998 7.998 0 1 1-15.996 0 7.998 7.998 0 0 1 15.997 0z"/>
        <path fill="#E8ECF3" d="M483.015 99.763l-36.284 20.943V34.608l36.284-20.979z"/>
        <path fill="#909EC7" d="M446.73 120.706l-22.414-13.019V21.54l22.415 13.069z"/>
        <path fill="#BCC4DD" d="M424.316 21.643l22.415 12.965 36.284-20.979L460.593.64z"/>
        <path fill="#213D8F" d="M471.236 35.336L449.678 47.78v-4.332l21.558-12.48z"/>
        <path fill="#9CC939" d="M480.823 29.831l-6.164 3.53v-4.332l6.164-3.567z"/>
        <path fill="#213D8F" d="M471.236 44.74l-21.558 12.444v-4.332l21.558-12.48z"/>
        <path fill="#E97876" d="M480.823 39.235l-6.164 3.53v-4.332l6.164-3.566z"/>
        <path fill="#213D8F" d="M471.236 54.145l-21.558 12.443v-4.331l21.558-12.481z"/>
        <path fill="#9CC939" d="M480.823 48.64l-6.164 3.529v-4.332l6.164-3.566z"/>
        <path fill="#213D8F" d="M471.236 63.549l-21.558 12.443v-4.331l21.558-12.481z"/>
        <path fill="#E97876" d="M480.823 58.044l-6.164 3.529v-4.332l6.164-3.566z"/>
        <path fill="#213D8F" d="M471.236 72.953l-21.558 12.443v-4.331l21.558-12.48z"/>
        <path fill="#9CC939" d="M480.823 67.448l-6.164 3.53v-4.333l6.164-3.566z"/>
        <path fill="#213D8F" d="M471.236 82.357l-21.558 12.444v-4.332l21.558-12.48z"/>
        <path fill="#E97876" d="M480.823 76.852l-6.164 3.529v-4.332l6.164-3.566z"/>
        <path fill="#213D8F" d="M471.236 91.761l-21.558 12.444v-4.332l21.558-12.48z"/>
        <path fill="#9CC939" d="M480.823 86.256l-6.164 3.53v-4.333l6.164-3.565z"/>
        <path fill="#E8ECF3" d="M175.854 140.989c6.334-3.657 16.604-3.657 22.939 0 6.334 3.656 6.334 9.586 0 13.244-6.335 3.656-16.605 3.656-22.94 0-6.333-3.658-6.333-9.588 0-13.244"/>
        <path fill="#000" d="M194.48 142.651c-.288-.164-.842.31-1.657 1.417-.28-.013-.505.062-.683.226-.938.332-1.79.421-2.551.257a1.914 1.914 0 0 0-.053.524c0 .663 1.128.979 1.601 1.138.928.31 1.889.508 2.867.55 1.23.05 2.351.691 3.602.656.725-.02 2.253-.163 2.384-1.137.04-.298-.213-.516-.426-.678-1.378-1.046-3.061-1.694-4.538-2.59-.186-.112-.36-.256-.547-.363M183.29 146.174a2.611 2.611 0 0 1-.16.21c-.46.49-1.125.69-1.994.606-.085-.006-.161-.016-.236-.026-.74-.065-1.31-.1-1.705-.1-.435-.005-.7-.035-.795-.085.081.044.016 1.083.016 1.219-.001.39-.043.779-.052 1.169-.022.946.09 2.163.545 3.012.353.663 1.06.899 1.769.998.716.102 1.212-.008 1.816-.43.764-.535 1.046-1.42 1.031-2.323-.012-.712.142-1.455.024-2.161-.063-.376-.472-1.78-.259-2.09"/>
        <path fill="#BCC4DD" d="M190.988 102.463s.441 3.347.264 5.426c-.176 2.079-2.267 7.468-2.267 7.468s-.677 1.06-1.414 0c-.736-1.06.295-3.8 1.414-4.948v-7.097l2.003-.85z"/>
        <path fill="#37509A" d="M190.163 119.804l1.826 12.301 2.474 10.816s-1.503 2.74-4.771 1.767l-6.656-23.5 1.637-3.56 5.49 2.176z"/>
        <path fill="#4D63A5" d="M177.559 118.744l.59 27.996s3.385 1.659 5.329-.196l1.855-30.48-7.774 2.68z"/>
        <path fill="#1DB9DE" d="M187.1 97.187s-5.065.235-10.366 4.83l-3.416 5.536s2.239 1.767 4.83 1.178l-.59 11.008s3.181-.878 6.244.3c3.062 1.178 4.712 1.377 6.597 1.142l-1.414-17.869 2.002-.85s-.588-3.39-3.887-5.275"/>
        <path fill="#BCC4DD" d="M173.823 107.889s-1.3 4.11-.328 6.496c.971 2.386 5.536 7.951 5.536 7.951s.935-.309 1.355-.765c.692-.753.677-1.296.677-1.296s-3.43-5.579-4.21-6.862c-.753-1.235.706-4.587.706-4.587s-.913.111-1.723-.117c-.548-.155-2.013-.82-2.013-.82M180.916 96.01v3.14s1.413 4.103 3.931 3.176c2.519-.927-.252-4.658-.252-4.658v-1.659h-3.679z"/>
        <path fill="#909EC7" d="M180.916 98.292s1.66 3.814 4.747 1.352l-.257-.677-4.498-1.153.008.478z"/>
        <path fill="#213D8F" d="M182.529 88.082c-.306-.084-.875-.102-1.71-.044-.834.052-1.456.472-1.863 1.253-.41.778-.627 1.528-.64 2.257-.013.723.013 1.254.089 1.59.18.674.344 1.34.49 1.99l.03.048v-.15c0-.172.067-.33.204-.48.118-.137.234-.204.335-.204.036 0 .07.004.106.013.164.058.327.212.49.472.186.314.273.592.265.835.022-.031.173-.062.442-.102.207-.03.308-.106.308-.22 0-.296-.079-.68-.242-1.156a5.106 5.106 0 0 1-.225-.844c.326.296.825.476 1.492.543l.163.013c.627.013 1.346-.212 2.159-.676.11-.065.212-.158.3-.278.119-.224.217-.393.287-.498.172-.257.389-.385.653-.385.084 0 .16.04.234.123l.204.209c.37-.42.618-.605.737-.556.11.048.212.15.3.295.026.045.057.11.092.194.014.208.027.398.036.57.013.004.022.022.022.053 0 .583-.026 1.134-.076 1.656.385-.16.787-.787 1.207-1.881.03-.146.03-.244.008-.3-.19-.411-.287-.746-.287-1.003 0-.083.04-.397.119-.931 0-.092-.07-.163-.212-.203a.678.678 0 0 0-.26-.044c-.072 0-.203-.12-.393-.353-.455-.42-1.117-.91-1.977-1.461-.827-.521-1.432-.782-1.815-.782-.216 0-.442.115-.685.34a2.299 2.299 0 0 0-.172.164 1.216 1.216 0 0 0-.216-.067z"/>
        <path fill="#BCC4DD" d="M179.13 94.545c.117-.136.233-.204.334-.204a.4.4 0 0 1 .106.014c.164.057.327.212.49.472.186.314.274.592.265.835.022-.031.173-.062.442-.102.207-.03.308-.105.308-.22 0-.296-.079-.68-.243-1.157a5.142 5.142 0 0 1-.224-.844c.326.297.825.478 1.492.544.048.004.105.009.163.012.627.014 1.346-.21 2.159-.675.11-.065.212-.158.3-.277a6.49 6.49 0 0 1 .287-.5c.172-.256.389-.384.653-.384.084 0 .16.04.235.124.012.014.083.084.203.208.37-.42.618-.605.737-.556a.71.71 0 0 1 .3.295c.026.044.057.11.092.195.014.207.027.396.036.568.013.006.022.023.022.054 0 .583-.027 1.134-.076 1.655-.136 1.475-.467 2.702-.992 3.678a4.65 4.65 0 0 1-.697 1.002 2.68 2.68 0 0 1-.725.565c-.243.12-.503.18-.782.18h-.021c-.472 0-.91-.092-1.316-.273a2.13 2.13 0 0 1-.287-.154c-.715-.432-1.329-1.179-1.84-2.238a8.1 8.1 0 0 1-.349-.795.377.377 0 0 1-.283.173h-.048c-.2 0-.411-.225-.633-.676-.184-.384-.29-.702-.312-.962v-.076c0-.173.066-.33.203-.481"/>
        <path fill="#E8ECF3" d="M182.153 95.412a1.168 1.168 0 1 0 2.321.257 1.168 1.168 0 0 0-2.321-.257M185.188 95.22a1.131 1.131 0 1 0 2.249.25 1.131 1.131 0 0 0-2.249-.25"/>
        <path fill="#213D8F" d="M183.312 94.372a1.168 1.168 0 1 0 .004 2.337 1.168 1.168 0 0 0-.004-2.337m0 .32a.845.845 0 0 1 .845.941.846.846 0 0 1-1.505.437.847.847 0 0 1 .66-1.378M186.312 94.213a1.13 1.13 0 1 0 .002 2.261 1.13 1.13 0 0 0-.002-2.261m0 .32a.805.805 0 0 1 .635.305.81.81 0 0 1-1.268 1.015.805.805 0 0 1-.172-.598.81.81 0 0 1 .805-.722"/>
        <path stroke="#213D8F" stroke-width=".5" d="M185.29 95.232s-.397-.33-.96-.01M182.288 95.407l-1.775-1.174"/>
        <path fill="#E8ECF3" d="M143.753 155.11c6.99-4.036 18.32-4.036 25.31 0 6.989 4.034 6.989 10.577 0 14.612-6.99 4.035-18.32 4.035-25.31 0-6.988-4.035-6.988-10.578 0-14.612"/>
        <path fill="#FFF" d="M163.03 163.706c-.282-.2-.905.237-1.864 1.304-.29-.042-.531.014-.732.165-1.008.25-1.394-.198-2.168-.446-.049.116-.593.748-.616.992-.067.689-.041 1.866.435 2.079.93.416 2.89 1.578 3.901 1.719 1.273.179 2.413.598 3.715.688.755.053 2.706-1.733 2.941-2.732.072-.305-.705-.753-.91-.943-1.324-1.226-2.73-1.313-4.172-2.393-.181-.136-.346-.302-.53-.433M152.26 156.006c-.281-.2-.905.236-1.864 1.304-.289-.043-.53.012-.732.164-1.008.25-1.393-.198-2.168-.445-.048.115-.591.748-.616.991-.067.689-.04 1.866.435 2.079.931.416 2.982.345 3.994.487 1.273.179 2.412.598 3.714.689.755.052 2.357.06 2.593-.94.072-.304-.448-1.314-.653-1.503-1.325-1.226-2.73-1.313-4.172-2.394-.182-.136-.346-.302-.53-.432"/>
        <path fill="#BCC4DD" d="M162.881 121.975l-.886 2.473s2.313 6.474 3.188 8.752c0 0 2.646 2.558 1.492 4.234-1.154 1.675-3.981.25-4.243-3.35 0 0-3.96-5.73-4.32-7.72-.358-1.99-.175-5.918-.175-5.918l4.944 1.529z"/>
        <path fill="#FFF" d="M157.248 121.397s1.277.957 3.172 1.374c1.846.408 2.679.2 2.679.2s3.244-9.3-1.013-10.319c-4.258-1.02-4.838 8.745-4.838 8.745"/>
        <path fill="#37509A" d="M161.22 138.085s-3.675 10.934-4.812 12.596c-1.137 1.662-4.17 6.883-4.17 6.883s-3.703 1.602-4.665-.322c0 0 .899-6.335 3.127-9.054 0 0 1.86-11.24 3.171-12.028 1.313-.787 7.348 1.925 7.348 1.925"/>
        <path fill="#4D63A5" d="M150.7 137.56s-.328 2.711.897 5.16c1.224 2.45 4.2 8.836 4.2 8.836l2.623 13.996s2.8.7 5.249-.7c0 0-1.05-11.022-1.487-13.209-.438-2.187-3.215-13.121-3.215-13.121l-8.267-.962z"/>
        <path fill="#9CC939" d="M161.657 112.454s-6.56-2.099-11.678 2.756v23.312s6.867 2.537 12.465 0l1.225-22.83s-.438-2.275-2.012-3.238"/>
        <path fill="#BCC4DD" d="M155.58 111.1l-1.976 1.967s1.281 4.205 4.407 3.054c3.125-1.152.695-3.937.695-3.937v-2.058l-3.126.974z"/>
        <path fill="#909EC7" d="M154.308 112.367s1.716 4.142 5.212 1.315c0 0-.14-.425-.268-.73-.129-.304-4.579-.949-4.579-.949l-.365.364z"/>
        <path fill="#BCC4DD" d="M152.265 108.156c.13-.15.258-.225.37-.225a.46.46 0 0 1 .117.016c.18.063.36.233.539.52.206.347.303.653.293.921.025-.034.19-.068.488-.112.229-.033.34-.116.34-.243 0-.327-.087-.75-.267-1.276a5.695 5.695 0 0 1-.248-.93c.36.326.91.525 1.646.599l.18.014c.692.014 1.486-.233 2.381-.745a1.13 1.13 0 0 0 .332-.307c.131-.248.239-.433.317-.55.19-.283.428-.424.72-.424.093 0 .176.044.259.135.014.016.008-.6.14-.464.409-.463.766.027.897.081.122.053.234.165.332.326.029.049.063.121.102.214.014.23.029.438.039.628.014.006.024.025.024.06 0 .642-.03 1.25-.084 1.826-.15 1.626-.515 2.981-1.094 4.057-.24.444-.493.813-.77 1.106a2.957 2.957 0 0 1-.8.624 1.936 1.936 0 0 1-.862.199h-.024c-.52 0-1.004-.102-1.45-.303a2.388 2.388 0 0 1-.318-.169c-.79-.477-1.467-1.3-2.032-2.47a9.202 9.202 0 0 1-.384-.877.414.414 0 0 1-.312.19h-.053c-.22 0-.454-.247-.697-.745-.204-.423-.322-.774-.346-1.062v-.083c0-.19.074-.365.225-.531"/>
        <path fill="#213D8F" d="M155.994 100.786c-.66.014-1.321.07-1.955.181-.82.143-1.574.651-1.965 1.393-.452.858-.692 1.685-.705 2.49-.015.797.013 1.383.096 1.753.2.744.381 1.48.542 2.196l.034.054v-.166c0-.19.072-.365.223-.531.131-.15.258-.224.37-.224a.45.45 0 0 1 .117.015c.18.064.36.233.54.52.206.347.303.653.293.921.025-.034.191-.068.488-.112.229-.034.34-.116.34-.243 0-.327-.087-.75-.268-1.276a5.761 5.761 0 0 1-.247-.93c.031.2.708.406.86.452.377.113.774.173 1.169.154 1.034-.05 1.888-.65 2.794-1.077.376-.176.765-.342 1.086-.61.243-.205.588-.746.963-.58.122.053.234.165.332.326.028.049.062.121.101.214.016.23.03.438.04.628.014.006.024.025.024.06 0 .642-.03 1.25-.084 1.826.001-.014.408-.326.447-.371.204-.24.345-.509.483-.79.506-1.03.377-1.757.078-2.84-.248-.891-.91-1.539-1.649-2.052-.956-.664-1.955-1.284-3.15-1.354-.457-.027-.927-.037-1.397-.027"/>
        <path fill="#BCC4DD" d="M152.552 124.488l-.794 2.505s2.555 6.383 3.516 8.626c0 0 2.74 2.456 1.65 4.174-1.091 1.718-3.97.4-4.366-3.187 0 0-4.173-5.578-4.607-7.553-.434-1.976-.398-5.906-.398-5.906l4.999 1.341z"/>
        <path fill="#8EC03F" d="M146.9 124.123s1.312.907 3.222 1.254c1.86.337 2.683.1 2.683.1s2.894-9.416-1.399-10.275-4.506 8.92-4.506 8.92"/>
        <path fill="#213D8F" d="M153.636 109.304l-.051 1.424s.981 3.37 3.97 3.518c2.905.143 3.448-3.486 3.446-4.7 0 0-.98 1.44-1.653 1.6-.673.16-.256-.449-1.874-.016s-2.79-1.197-3.061-2.097"/>
        <path fill="#E8ECF3" d="M438.413 127.785l-36.284 20.942V62.63l36.284-20.978z"/>
        <path fill="#909EC7" d="M402.129 148.727l-22.415-13.019V49.561l22.415 13.069z"/>
        <path fill="#BCC4DD" d="M379.714 49.664l22.415 12.966 36.284-20.98-22.422-12.989z"/>
        <path fill="#213D8F" d="M426.635 63.358L405.075 75.8V71.47l21.56-12.48z"/>
        <path fill="#9CC939" d="M436.221 57.853l-6.164 3.528V57.05l6.164-3.566z"/>
        <path fill="#213D8F" d="M426.635 72.762l-21.56 12.444v-4.332l21.56-12.48z"/>
        <path fill="#E97876" d="M436.221 67.257l-6.164 3.529v-4.332l6.164-3.566z"/>
        <path fill="#213D8F" d="M426.635 82.166l-21.56 12.444v-4.332l21.56-12.48z"/>
        <path fill="#9CC939" d="M436.221 76.661l-6.164 3.529v-4.332l6.164-3.566z"/>
        <path fill="#213D8F" d="M426.635 91.57l-21.56 12.444v-4.332l21.56-12.48z"/>
        <path fill="#E97876" d="M436.221 86.065l-6.164 3.529v-4.332l6.164-3.566z"/>
        <path fill="#213D8F" d="M426.635 100.974l-21.56 12.444v-4.332l21.56-12.48z"/>
        <path fill="#9CC939" d="M436.221 95.47l-6.164 3.528v-4.332l6.164-3.565z"/>
        <path fill="#213D8F" d="M426.635 110.379l-21.56 12.443v-4.332l21.56-12.48z"/>
        <path fill="#E97876" d="M436.221 104.873l-6.164 3.53v-4.333l6.164-3.565z"/>
        <path fill="#213D8F" d="M426.635 119.783l-21.56 12.443v-4.331l21.56-12.481z"/>
        <path fill="#9CC939" d="M436.221 114.278l-6.164 3.529v-4.332l6.164-3.566z"/>
        <path fill="#E8ECF3" d="M445.45 304.435L401.513 330.1l-.524-42.674 44.461-25.368z"/>
        <path fill="#909EC7" d="M401.513 330.1l-36.092-20.91-.524-42.681 36.092 20.917z"/>
        <path fill="#E8ECF3" d="M400.99 287.424l19.294-31.338 25.166 6.006z"/>
        <path fill="#909EC7" d="M424.987 300.321l-17.455 10.194-.279-22.742 17.837-10.605zM441.937 306.476l-7.428 4.35.085-23.855c.013-3.333 1.685-7.13 3.736-8.481 2.051-1.352 3.704.86 3.692 4.194l-.085 23.792z"/>
        <path fill="#213D8F" d="M407.253 287.795l2.833 2.98 18.141-10.843-3.137-2.764zM364.898 266.509l36.091 20.917 19.295-31.34-33.482-19.409z"/>
        <path fill="#6377B0" d="M386.802 236.677l33.482 19.409 25.166 5.98-44.339-23.002z"/>
        <path fill="#213D8F" d="M423.905 339.32c.261-.153.43-.3.504-.438a.533.533 0 0 0 .055-.408c-.074-.259-.29-.489-.646-.692a2.933 2.933 0 0 0-1.207-.365 2.639 2.639 0 0 0-.707.037c-.238.045-.489.145-.75.298l-1.512.885 2.751 1.568 1.512-.885zm-6-1.674l1.064-.623c.239-.14.384-.263.437-.372a.503.503 0 0 0 .042-.325.807.807 0 0 0-.172-.285 1.254 1.254 0 0 0-.329-.258 1.978 1.978 0 0 0-.453-.187 2.74 2.74 0 0 0-.494-.096 2.432 2.432 0 0 0-.563.029 1.947 1.947 0 0 0-.64.257l-1.064.622 2.172 1.238zm-2.755-2.903c.448-.262.867-.435 1.258-.52a5.07 5.07 0 0 1 1.209-.105c.468.016.943.084 1.424.203.482.12.931.298 1.345.534.339.193.61.408.814.645.204.237.33.443.376.616.573-.079 1.202-.048 1.887.092.684.14 1.311.372 1.881.697.434.247.771.515 1.012.803.242.289.393.576.457.862.064.286.017.571-.14.852-.157.281-.49.57-.997.868l-3.057 1.79-10.134-5.777 2.665-1.56zM427.691 330.997l7.023 4.002-1.4.82-.565-.322c.034.269-.018.509-.157.719-.14.209-.34.391-.6.544-.382.223-.835.368-1.36.436a6.585 6.585 0 0 1-1.618.002 7.424 7.424 0 0 1-1.38-.321 8.268 8.268 0 0 1-1.485-.679l-3.72-2.12 1.455-.852 3.793 2.162c.319.182.591.309.818.382.228.073.445.122.653.146.276.027.517.017.726-.032.209-.05.383-.117.525-.2.157-.091.272-.192.345-.301a.908.908 0 0 0 .14-.334.801.801 0 0 0-.002-.325 1.484 1.484 0 0 0-.085-.275l-4.561-2.6 1.455-.852zM434.418 332.696c.408.017.806-.016 1.192-.103.385-.087.716-.21.993-.372.193-.114.302-.242.325-.384.024-.142-.05-.262-.225-.362a1.108 1.108 0 0 0-.623-.128 5.14 5.14 0 0 0-.791.111c-.286.062-.594.13-.923.206-.329.076-.67.125-1.023.147a4.758 4.758 0 0 1-1.088-.057 3.358 3.358 0 0 1-1.122-.413c-.338-.193-.584-.4-.739-.621-.155-.223-.228-.444-.223-.664.006-.222.083-.434.232-.638.15-.204.358-.385.627-.542.179-.105.377-.199.595-.282.218-.083.441-.152.668-.207.229-.056.455-.1.68-.13.225-.031.426-.05.603-.052l.677 1.175c-.277.006-.55.036-.821.088-.271.053-.505.136-.698.25-.202.118-.327.247-.376.387-.049.14.018.263.201.367.155.088.343.12.565.096.223-.024.475-.068.755-.132l.915-.21c.33-.076.678-.121 1.047-.135.367-.015.746.013 1.137.086.392.072.79.223 1.195.454.338.193.58.4.726.621.146.221.214.444.205.667-.01.222-.095.44-.255.65-.16.211-.381.4-.665.566a5.1 5.1 0 0 1-1.376.53c-.537.129-1.12.2-1.75.212l-.64-1.18zM443 330.148l-1.456.852-7.022-4.002 1.456-.853 7.022 4.003zm-11.192-4.438c-.338-.192-.53-.41-.574-.651-.045-.241.063-.438.324-.591.262-.153.601-.218 1.02-.196.418.024.796.13 1.134.323.338.193.529.41.574.651.045.242-.063.438-.324.592-.262.152-.601.217-1.02.195a2.539 2.539 0 0 1-1.134-.323zM444.68 329.164l-7.023-4.002 1.4-.82.565.323c-.013-.25.046-.483.173-.704.13-.22.346-.42.652-.599.38-.223.834-.372 1.362-.447a6.359 6.359 0 0 1 1.648-.01c.46.054.926.16 1.4.318.473.158 1.014.41 1.622.756l3.576 2.038-1.456.853-3.72-2.12a4.839 4.839 0 0 0-.903-.419c-.254-.079-.5-.127-.74-.143-.463-.03-.865.055-1.209.256a1.112 1.112 0 0 0-.355.308.927.927 0 0 0-.173.678c.017.109.04.202.075.282l4.561 2.6-1.455.852zM450.477 320.668a3.292 3.292 0 0 0-1.185-.293c-.209-.012-.41 0-.604.037a1.569 1.569 0 0 0-.517.184c-.306.18-.442.404-.407.674.034.27.192.506.473.71l2.24-1.312zm4.655 1.088c.145.384.126.755-.056 1.113-.183.358-.487.661-.911.91a4.476 4.476 0 0 1-1.387.51c-.52.105-1.068.14-1.64.107a8.054 8.054 0 0 1-3.467-1.031 5.499 5.499 0 0 1-1.213-.905c-.315-.322-.526-.647-.632-.975a1.32 1.32 0 0 1 .03-.947c.127-.303.392-.572.796-.808a3.606 3.606 0 0 1 1.319-.438 6.701 6.701 0 0 1 1.587-.034 8.275 8.275 0 0 1 3.248 1.017c.203.115.37.224.502.325l-3.763 2.203c.274.13.553.228.837.296.285.067.565.104.84.11.276.006.54-.017.79-.069.249-.05.47-.134.665-.247.313-.184.499-.395.555-.635.057-.24.058-.448 0-.627l1.9.125zM455.64 320.273c.407.017.805-.018 1.19-.104.386-.086.717-.21.994-.372.194-.114.302-.242.325-.384.024-.141-.05-.262-.225-.361a1.113 1.113 0 0 0-.623-.129c-.241.014-.505.05-.79.111-.287.063-.595.131-.924.206-.33.076-.67.125-1.024.148a4.79 4.79 0 0 1-1.087-.057 3.375 3.375 0 0 1-1.123-.414c-.337-.192-.583-.399-.738-.622-.154-.22-.229-.442-.223-.663.006-.221.083-.434.232-.638.149-.204.358-.385.627-.542.179-.105.377-.198.594-.282a5.87 5.87 0 0 1 .67-.207c.227-.055.454-.099.679-.13a4.96 4.96 0 0 1 .602-.052l.678 1.175a4.965 4.965 0 0 0-.821.089 2.193 2.193 0 0 0-.698.25c-.202.117-.327.246-.377.386-.048.141.019.263.202.367.154.089.343.12.566.096.222-.023.473-.069.754-.132l.916-.21a5.69 5.69 0 0 1 1.045-.135c.367-.015.747.014 1.138.086.391.072.79.224 1.195.454.338.193.58.4.726.62.146.223.214.445.204.668a1.15 1.15 0 0 1-.254.65c-.16.211-.381.4-.665.566-.38.222-.84.4-1.376.53-.537.129-1.119.2-1.75.212l-.64-1.18zM460.79 317.257a4.57 4.57 0 0 0 1.191-.104 3.47 3.47 0 0 0 .994-.372c.194-.114.302-.241.325-.384.024-.141-.05-.262-.225-.36a1.108 1.108 0 0 0-.623-.13c-.241.014-.505.05-.79.112-.287.061-.595.13-.923.205-.33.077-.67.125-1.025.148a4.792 4.792 0 0 1-1.087-.057 3.361 3.361 0 0 1-1.123-.414c-.337-.192-.583-.398-.738-.621-.154-.222-.228-.443-.223-.664.006-.22.083-.433.232-.637.149-.205.358-.386.627-.543.179-.105.377-.198.595-.282.217-.082.44-.151.669-.207.227-.056.454-.099.679-.13a4.96 4.96 0 0 1 .602-.052l.678 1.175a5.034 5.034 0 0 0-.821.088 2.225 2.225 0 0 0-.698.25c-.202.118-.327.248-.377.387-.048.142.019.263.202.367a.92.92 0 0 0 .566.097 6.87 6.87 0 0 0 .754-.132l.916-.21a5.69 5.69 0 0 1 1.045-.136c.368-.015.747.014 1.138.086.391.072.79.224 1.196.455.337.193.579.399.725.62.146.222.214.444.204.667-.01.223-.094.44-.254.65-.16.212-.381.4-.665.566-.38.223-.84.4-1.376.53-.537.13-1.119.2-1.75.212l-.64-1.18z"/>
        <path fill="#9CC939" d="M308.722 283.05l-129.894-74.675 1.275-2.219 131.173 75.41z"/>
        <path fill="#9CC939" d="M182.737 213.682l-9.176-9.949 17.57 5.01zM212.73 133.34l-2.541-1.496 120.34-68.714c6.276-3.621 14.09-3.637 20.385-.04l21.783 12.448-1.27 2.222-21.783-12.447a17.976 17.976 0 0 0-17.841.037l-119.074 67.99z"/>
        <path fill="#9CC939" d="M369.066 69.646l7.992 10.648-16.386-5.708zM615.865 217.645l-132.85 76.811h-5.412l136.983-79.028a5.067 5.067 0 0 0 2.56-4.426 5.068 5.068 0 0 0-2.546-4.434l-112.654-65.47 1.285-2.212 112.655 65.47a7.601 7.601 0 0 1 3.82 6.65 7.6 7.6 0 0 1-3.84 6.639"/>
        <path fill="#9CC939" d="M504.803 145.823l-7.992-10.647 16.385 5.708zM482.738 287.621l-8.5 9.856 17.554-4.82zM470.603 249.23l-1.293-2.21 62.73-36.707a5.071 5.071 0 0 0 2.568-4.43 5.069 5.069 0 0 0-2.547-4.433l-61.472-36.04 1.295-2.208 61.468 36.038a7.598 7.598 0 0 1 3.816 6.648 7.603 7.603 0 0 1-3.842 6.638l-62.723 36.703z"/>
        <path fill="#9CC939" d="M473.72 169.886l-7.992-10.647 16.386 5.708zM472.819 241.582l-8.447 9.604 17.5-4.569zM370.79 247.958l-133.732-76.05 1.265-2.225 133.732 76.05z"/>
        <path fill="#9CC939" d="M231.817 167.107l17.324 5.085-8.393 4.94M280.57 196.765l-1.288-2.213 88.918-51.711 2.586 1.457z"/>
        <g transform="translate(0 186.21)">
            <mask id="b" fill="#fff">
                <use xlink:href="#a"/>
            </mask>
            <path fill="#9CC939" d="M259.757 223.942c-3.573 0-7.145-.93-10.332-2.794L3.803 77.572A7.599 7.599 0 0 1 0 70.902a7.6 7.6 0 0 1 3.876-6.63L116.48.095l2.521 1.51L5.143 66.496a5.066 5.066 0 0 0-2.583 4.42 5.066 5.066 0 0 0 2.535 4.446L250.716 218.94a17.937 17.937 0 0 0 18.101-.012l101.638-59.581 1.295 2.208-101.638 59.58a20.467 20.467 0 0 1-10.355 2.808" mask="url(#b)"/>
        </g>
        <path fill="#9CC939" d="M277.904 380.03c-3.57 0-7.141-.932-10.334-2.8L52.706 251.6a7.6 7.6 0 0 1-3.803-6.656 7.6 7.6 0 0 1 3.85-6.629l88.33-50.804 1.276 2.219-88.33 50.804a5.067 5.067 0 0 0-2.567 4.42 5.067 5.067 0 0 0 2.535 4.436L268.862 375.02a17.92 17.92 0 0 0 18.226-.083l74.797-44.655 2.516 1.48-76 45.372a20.46 20.46 0 0 1-10.497 2.895"/>
        <path fill="#9CC939" d="M138.183 195.747l7.704-9.512-16.758 4.477zM369.803 353.786l6.793-11.218-15.846 6.183zM375.909 249.886l-16.386-5.708 8.394-4.94"/>
        <path fill="#213D8F" d="M168.476 181.223c-.374.219-.627.473-.76.763a1.34 1.34 0 0 0-.084.91c.079.317.262.633.551.949.29.315.676.61 1.159.886.492.28 1.02.502 1.582.662.563.162 1.118.26 1.665.296a6.57 6.57 0 0 0 1.577-.078 3.932 3.932 0 0 0 1.326-.467c.515-.302.819-.638.909-1.009.091-.37.06-.734-.096-1.09l2.244.076a2.06 2.06 0 0 1 .038 1.6c-.203.531-.667 1.01-1.39 1.433a6.376 6.376 0 0 1-2.086.752 9.879 9.879 0 0 1-2.418.136c-.834-.052-1.671-.2-2.514-.443a10.703 10.703 0 0 1-2.35-.983c-.724-.413-1.303-.86-1.738-1.34-.436-.482-.707-.962-.812-1.44a1.99 1.99 0 0 1 .197-1.395c.238-.451.662-.857 1.274-1.215a6.048 6.048 0 0 1 1.993-.715 9.966 9.966 0 0 1 2.322-.139l.357 1.33a7.413 7.413 0 0 0-1.592.063 3.774 3.774 0 0 0-1.354.458M179.537 176.503l7.023 4.003-1.4.819-.565-.322c.034.27-.018.51-.157.719-.14.21-.34.391-.601.544-.38.223-.834.368-1.358.436a6.554 6.554 0 0 1-1.62.002 7.323 7.323 0 0 1-1.38-.321 8.262 8.262 0 0 1-1.484-.678l-3.72-2.12 1.455-.852 3.793 2.162c.319.18.59.309.818.382.227.073.445.121.652.145.277.027.518.018.727-.032.208-.05.383-.117.525-.2.157-.09.272-.192.345-.301a.9.9 0 0 0 .14-.334.793.793 0 0 0-.002-.325 1.485 1.485 0 0 0-.086-.275l-4.56-2.6 1.455-.852zM186.264 178.203a4.57 4.57 0 0 0 1.19-.104 3.47 3.47 0 0 0 .994-.372c.194-.114.303-.241.326-.384.024-.141-.051-.262-.225-.36a1.108 1.108 0 0 0-.623-.13c-.242.014-.505.05-.791.112-.286.061-.594.13-.923.205-.329.076-.67.125-1.024.148a4.792 4.792 0 0 1-1.087-.058 3.361 3.361 0 0 1-1.123-.413c-.337-.192-.583-.398-.738-.621-.155-.222-.228-.443-.223-.664.006-.221.083-.433.232-.638a2.03 2.03 0 0 1 .626-.542c.18-.105.378-.198.596-.282.218-.083.44-.151.668-.207.228-.056.455-.1.68-.13a4.96 4.96 0 0 1 .602-.052l.678 1.175a5.034 5.034 0 0 0-.822.088 2.225 2.225 0 0 0-.698.25c-.201.118-.326.247-.375.387-.049.141.018.263.201.367.155.089.343.12.565.097a6.87 6.87 0 0 0 .755-.133l.915-.21a5.69 5.69 0 0 1 1.046-.135c.368-.015.747.014 1.138.086.391.072.79.224 1.195.455.338.193.58.399.726.62.146.222.214.444.204.667-.01.223-.094.44-.254.65-.16.212-.381.4-.665.566a5.1 5.1 0 0 1-1.376.53c-.537.13-1.12.2-1.75.212l-.64-1.18zM197.254 174.244c-.05.085-.154.187-.313.308a4.081 4.081 0 0 1-1.85.816c-.49.081-.99.087-1.495.014a5.384 5.384 0 0 1-1.162-.307 9.935 9.935 0 0 1-1.34-.654l-2.461-1.403-1.512.886-1.593-.908 1.512-.885-1.955-1.114 1.457-.852 1.954 1.114 1.791-1.05 1.593.908-1.791 1.049 2.678 1.527c.222.126.415.22.58.278.165.06.326.1.482.12.181.017.362.008.545-.026.182-.034.363-.103.542-.208.104-.062.208-.132.314-.21.105-.078.174-.138.207-.18l1.817.777zM196.046 170.904c.26.147.54.268.844.359.303.09.602.148.9.175.296.027.583.018.86-.027s.523-.13.74-.257c.209-.123.353-.265.43-.428a.68.68 0 0 0 .04-.501 1.333 1.333 0 0 0-.316-.517 2.597 2.597 0 0 0-.632-.483 4.519 4.519 0 0 0-1.759-.543 3.361 3.361 0 0 0-.866.03c-.28.047-.525.132-.733.255-.217.127-.363.27-.437.43a.69.69 0 0 0-.035.498c.051.171.159.345.324.521.165.177.38.34.64.488m-1.456.852c-.502-.286-.904-.6-1.208-.941-.303-.341-.49-.68-.56-1.018a1.455 1.455 0 0 1 .136-.984c.161-.317.448-.596.858-.836s.89-.41 1.437-.507a7.183 7.183 0 0 1 1.7-.093c.587.037 1.176.14 1.77.31.595.171 1.144.4 1.645.686.512.292.914.605 1.208.94.293.336.478.674.554 1.015.074.34.029.668-.137.983-.166.315-.455.592-.865.833-.411.24-.888.41-1.43.51a6.809 6.809 0 0 1-1.7.093 8.54 8.54 0 0 1-1.764-.307 7.291 7.291 0 0 1-1.644-.684M205.103 169.649l-7.022-4.002 1.4-.82.565.323c-.035-.271.018-.51.157-.72.14-.21.34-.391.6-.544.374-.219.816-.363 1.328-.434a6.243 6.243 0 0 1 1.6-.008 1.489 1.489 0 0 1 .047-.923c.115-.318.374-.595.778-.83.38-.224.84-.377 1.378-.457a6.012 6.012 0 0 1 1.654-.016c.451.06.912.167 1.38.322.47.155.964.38 1.485.678l3.721 2.12-1.456.853-3.793-2.162a4.534 4.534 0 0 0-.818-.383 3.391 3.391 0 0 0-.652-.145 2.202 2.202 0 0 0-.727.032c-.208.05-.383.116-.525.199a1.023 1.023 0 0 0-.349.313.89.89 0 0 0-.136.699c.026.113.059.208.101.283a8.598 8.598 0 0 1 .827.42l3.72 2.12-1.455.853-3.794-2.162a4.558 4.558 0 0 0-.818-.383 3.34 3.34 0 0 0-.652-.144 2.186 2.186 0 0 0-.727.032 1.9 1.9 0 0 0-.524.199c-.157.09-.272.192-.345.302a.9.9 0 0 0-.141.333.79.79 0 0 0 .002.324c.023.104.052.195.086.276l4.56 2.6-1.455.852zM214.596 158.99a3.295 3.295 0 0 0-1.185-.294c-.209-.012-.41 0-.604.037a1.569 1.569 0 0 0-.517.185c-.306.179-.442.403-.407.672.034.27.193.507.473.71l2.24-1.31zm4.655 1.088c.145.383.126.755-.056 1.112-.182.357-.486.661-.911.91a4.47 4.47 0 0 1-1.387.51c-.52.104-1.068.14-1.64.107a8.016 8.016 0 0 1-3.466-1.03 5.539 5.539 0 0 1-1.213-.906c-.316-.322-.527-.647-.633-.975a1.32 1.32 0 0 1 .03-.947c.127-.303.393-.572.796-.808a3.618 3.618 0 0 1 1.32-.438 6.701 6.701 0 0 1 1.586-.034 8.231 8.231 0 0 1 3.248 1.017c.203.115.37.224.502.325l-3.763 2.203c.274.13.553.228.838.296.284.067.565.104.84.11.276.006.539-.017.789-.068.25-.052.47-.135.665-.248.314-.184.5-.396.556-.635.057-.24.057-.448 0-.627l1.9.126zM219.68 154.926a2.97 2.97 0 0 0-.599.267.978.978 0 0 0-.347.32.899.899 0 0 0-.104.73.99.99 0 0 0 .143.3l4.416 2.517-1.456.853-7.022-4.002 1.4-.82.71.405a.887.887 0 0 1 .038-.742c.121-.25.351-.473.687-.67a3.02 3.02 0 0 1 .55-.255l1.584 1.097zM437.388 145.506l1.993-1.167-3.993-1.125 2 2.292zm1.092 3.96l-6.775-7.742 1.064-.624 13.494 3.81-1.579.924-2.984-.846-3.146 1.842 1.505 1.712-1.58.924zM450.597 140.716c.228.502.267.942.115 1.321-.152.379-.486.72-1 1.021-.419.245-.902.418-1.448.522a6.795 6.795 0 0 1-1.705.094 8.582 8.582 0 0 1-1.763-.305 7.322 7.322 0 0 1-1.644-.686c-.512-.292-.915-.607-1.21-.947-.295-.34-.478-.683-.55-1.026a1.422 1.422 0 0 1 .143-.986c.166-.315.458-.594.876-.84.47-.275 1.034-.456 1.689-.545a7.376 7.376 0 0 1 2 .009l.143 1.271a4.857 4.857 0 0 0-1.151-.029 2.306 2.306 0 0 0-.943.284c-.21.123-.353.265-.431.428a.74.74 0 0 0-.053.508c.044.175.144.351.301.526.158.176.371.341.641.495a4.255 4.255 0 0 0 1.788.534c.3.02.59.003.869-.048.28-.052.53-.144.754-.276.3-.174.464-.382.496-.623.03-.24-.01-.463-.123-.664l2.206-.038zM452.004 136.446a3.287 3.287 0 0 0-1.185-.294c-.209-.01-.41.002-.604.038a1.56 1.56 0 0 0-.517.185c-.306.179-.442.404-.407.672.034.27.192.507.474.71l2.24-1.31zm4.656 1.089c.144.384.125.755-.057 1.112-.183.357-.486.661-.911.91a4.463 4.463 0 0 1-1.387.51c-.52.104-1.068.14-1.64.108a8.054 8.054 0 0 1-3.466-1.032 5.514 5.514 0 0 1-1.214-.905c-.315-.321-.526-.647-.632-.975a1.323 1.323 0 0 1 .03-.947c.127-.303.393-.572.796-.808a3.594 3.594 0 0 1 1.319-.437 6.7 6.7 0 0 1 1.587-.035 8.258 8.258 0 0 1 3.248 1.017c.203.116.37.224.502.325l-3.762 2.203c.273.13.552.228.837.296.284.067.565.104.84.11.275.006.538-.017.789-.068.25-.052.471-.135.665-.248.314-.184.5-.395.556-.635.056-.239.057-.448 0-.627l1.9.126zM460.068 131.558l-3.92 2.295 4.56 2.6-1.511.884-10.134-5.776 1.512-.885 3.836 2.187 3.92-2.295-3.837-2.187 1.511-.885 10.135 5.777-1.511.884zM466.005 125.239l7.022 4.002-1.4.82-.564-.323c.034.27-.018.51-.157.719-.14.21-.34.392-.601.545-.38.222-.834.367-1.358.435a6.554 6.554 0 0 1-1.62.002 7.37 7.37 0 0 1-1.38-.32 8.268 8.268 0 0 1-1.484-.679l-3.721-2.12 1.456-.853 3.793 2.162c.319.182.59.31.818.383.228.073.445.121.653.145.276.028.517.018.726-.032.208-.05.383-.116.525-.199.157-.092.272-.193.345-.302a.905.905 0 0 0 .14-.333.804.804 0 0 0-.002-.325 1.484 1.484 0 0 0-.086-.276l-4.56-2.6 1.455-.851zM473.701 126.002c.402.066.798.077 1.184.035a2.49 2.49 0 0 0 .995-.307c.202-.118.342-.255.421-.413a.728.728 0 0 0 .06-.497 1.148 1.148 0 0 0-.297-.518 2.752 2.752 0 0 0-.661-.5 4.097 4.097 0 0 0-.825-.354 4.722 4.722 0 0 0-.896-.186 3.452 3.452 0 0 0-.869.014 2.059 2.059 0 0 0-.736.248c-.284.166-.461.362-.534.589a.916.916 0 0 0 .06.693l2.098 1.196zm1.006 2.255l-10.28-5.859 1.456-.852 3.764 2.146c-.009-.498.286-.92.883-1.27.366-.214.805-.363 1.318-.445a6.81 6.81 0 0 1 1.626-.057c.57.045 1.148.153 1.73.326a7.812 7.812 0 0 1 1.655.703c.482.276.871.569 1.168.88.297.312.496.621.598.93.129.35.117.69-.032 1.022-.151.334-.426.618-.83.854a3.438 3.438 0 0 1-.962.37 5.005 5.005 0 0 1-1.26.111l.566.322-1.4.819z"/>
    </g>
</svg>
