<?xml version="1.0" encoding="utf-8"?>
<!-- Generator: Adobe Illustrator 21.0.2, SVG Export Plug-In . SVG Version: 6.00 Build 0)  -->
<svg version="1.1" id="Layer_2" xmlns="http://www.w3.org/2000/svg" xmlns:xlink="http://www.w3.org/1999/xlink" x="0px" y="0px"
	 viewBox="0 0 1240 660" style="enable-background:new 0 0 1240 660;" xml:space="preserve">
<style type="text/css">
	.st0{fill:#1DB9DE;}
	.st1{fill:#213D8F;}
	.st2{fill:#BCC4DD;}
	.st3{fill:#4D63A5;}
	.st4{clip-path:url(#SVGID_2_);fill:#E8EBF3;}
	.st5{clip-path:url(#SVGID_2_);}
	.st6{fill:#253F8D;}
	.st7{clip-path:url(#SVGID_2_);fill:#909EC7;}
	.st8{clip-path:url(#SVGID_2_);fill:#9CC939;}
	.st9{fill:#FFFFFF;}
	.st10{clip-path:url(#SVGID_4_);fill:#E8EBF3;}
	.st11{clip-path:url(#SVGID_4_);}
	.st12{clip-path:url(#SVGID_4_);fill:#9CC939;}
	.st13{fill:#6377B0;}
	.st14{fill:none;stroke:#6377B0;stroke-width:4;stroke-miterlimit:10;stroke-dasharray:12;}
	.st15{fill-rule:evenodd;clip-rule:evenodd;fill:#9CC939;}
	.st16{fill:#E8EBF3;}
	.st17{fill:#909EC7;}
	.st18{fill:#9CC939;}
	.st19{fill:#E97876;}
	.st20{fill:#37509A;}
	.st21{fill:none;stroke:#37509A;stroke-width:8;stroke-linecap:round;stroke-linejoin:round;stroke-miterlimit:10;}
	.st22{fill:#8EC03F;}
	.st23{enable-background:new    ;}
	.st24{fill:none;}
	.st25{fill:#333333;}
	.st26{fill:none;stroke:#213D8F;stroke-miterlimit:10;}
	.st27{fill:none;stroke:#9CC939;stroke-width:4;stroke-miterlimit:10;}
	.st28{fill:#4D4F63;}
	.st29{fill:#EAEBE9;}
	.st30{fill:#FCFFFF;}
	.st31{fill:#CDD3E6;}
	.st32{fill:#C6EDF7;}
	.st33{fill:#D2F1F8;}
	.st34{fill:none;stroke:#E97876;stroke-miterlimit:10;}
	.st35{fill-rule:evenodd;clip-rule:evenodd;fill:#E8EBF3;}
	.st36{fill:none;stroke:#213D8F;stroke-width:0.5;stroke-miterlimit:10;}
	.st37{fill:#CC6A6A;}
	.st38{fill:#36E07B;}
	.st39{fill:#2ECC71;}
	.st40{fill-rule:evenodd;clip-rule:evenodd;fill:#BCC4DD;}
	.st41{fill:#F94C43;}
	.st42{fill:#E6493A;}
	.st43{fill:none;stroke:#DE2E20;stroke-miterlimit:10;}
	.st44{font-family:'BrownTT-Bold';}
	.st45{font-size:26.0441px;}
	.st46{font-size:16px;}
</style>
<g id="Layer_1">
	<g>
		<polyline class="st0" points="729.7,227.9 387.2,426.3 383.2,424 726.2,226 		"/>
	</g>
	<circle class="st34" cx="538.1" cy="183.7" r="12.5"/>
	<g>
		<path class="st35" d="M376.3,261.7c9.9-5.7,26-5.7,35.9,0c9.9,5.7,9.9,15,0,20.7c-9.9,5.7-26,5.7-35.9,0
			C366.4,276.7,366.4,267.4,376.3,261.7z"/>
		<g>
			<path d="M405.4,264.3c-0.4-0.3-1.3,0.5-2.6,2.2c-0.4,0-0.8,0.1-1.1,0.4c-1.5,0.5-2.8,0.7-4,0.4c-0.1,0.2-0.1,0.5-0.1,0.8
				c0,1,1.8,1.5,2.5,1.8c1.4,0.5,3,0.8,4.5,0.9c1.9,0.1,3.7,1.1,5.6,1c1.1,0,3.5-0.3,3.7-1.8c0.1-0.5-0.3-0.8-0.7-1.1
				c-2.2-1.6-4.8-2.6-7.1-4C405.9,264.7,405.7,264.5,405.4,264.3z"/>
			<path d="M387.9,269.8c-0.1,0.1-0.1,0.2-0.2,0.3c-0.7,0.8-1.8,1.1-3.1,0.9c-0.1,0-0.3,0-0.4,0c-1.2-0.1-2-0.2-2.7-0.2
				c-0.7,0-1.1-0.1-1.2-0.1c0.1,0.1,0,1.7,0,1.9c0,0.6-0.1,1.2-0.1,1.8c0,1.5,0.1,3.4,0.9,4.7c0.6,1,1.7,1.4,2.8,1.6
				c1.1,0.2,1.9,0,2.8-0.7c1.2-0.8,1.6-2.2,1.6-3.6c0-1.1,0.2-2.3,0-3.4C388.2,272.5,387.5,270.3,387.9,269.8z"/>
			<path class="st2" d="M399.9,201.5c0,0,0.7,5.2,0.4,8.5c-0.3,3.2-3.5,11.7-3.5,11.7s-1.1,1.7-2.2,0c-1.2-1.7,0.5-5.9,2.2-7.7
				v-11.1L399.9,201.5z"/>
			<path class="st20" d="M398.6,228.6l2.9,19.2l3.9,16.9c0,0-2.3,4.3-7.5,2.8l-10.4-36.7l2.6-5.6L398.6,228.6z"/>
			<path class="st3" d="M378.9,226.9l0.9,43.8c0,0,5.3,2.6,8.3-0.3l2.9-47.6L378.9,226.9z"/>
			<path class="st0" d="M393.8,193.3c0,0-7.9,0.4-16.2,7.5l-5.3,8.7c0,0,3.5,2.8,7.5,1.8l-0.9,17.2c0,0,5-1.4,9.8,0.5
				c4.8,1.8,7.4,2.2,10.3,1.8l-2.2-27.9l3.1-1.3C399.9,201.5,399,196.2,393.8,193.3z"/>
			<path class="st2" d="M373.1,210c0,0-2,6.4-0.5,10.2c1.5,3.7,8.7,12.4,8.7,12.4s1.5-0.5,2.1-1.2c1.1-1.2,1.1-2,1.1-2
				s-5.4-8.7-6.6-10.7c-1.2-1.9,1.1-7.2,1.1-7.2s-1.4,0.2-2.7-0.2C375.4,211,373.1,210,373.1,210z"/>
			<path class="st2" d="M384.2,191.4v4.9c0,0,2.2,6.4,6.1,5c3.9-1.4-0.4-7.3-0.4-7.3v-2.6H384.2z"/>
			<path class="st17" d="M384.2,195c0,0,2.6,6,7.4,2.1l-0.4-1.1l-7-1.8L384.2,195z"/>
			<g>
				<path class="st1" d="M386.7,179c-0.5-0.1-1.4-0.2-2.7-0.1c-1.3,0.1-2.3,0.7-2.9,2c-0.6,1.2-1,2.4-1,3.5c0,1.1,0,2,0.1,2.5
					c0.3,1.1,0.5,2.1,0.8,3.1l0,0.1V190c0,0,0-0.1,0-0.1c0-0.3,0.1-0.5,0.3-0.8c0.2-0.2,0.4-0.3,0.5-0.3c0.1,0,0.1,0,0.2,0
					c0.3,0.1,0.5,0.3,0.8,0.7c0.3,0.5,0.4,0.9,0.4,1.3c0,0,0.3-0.1,0.7-0.2c0.3,0,0.5-0.2,0.5-0.3c0-0.5-0.1-1.1-0.4-1.8
					c-0.2-0.5-0.3-1-0.4-1.3c0.5,0.5,1.3,0.7,2.3,0.8c0.1,0,0.2,0,0.3,0c1,0,2.1-0.3,3.4-1.1c0.2-0.1,0.3-0.2,0.5-0.4
					c0.2-0.4,0.3-0.6,0.4-0.8c0.3-0.4,0.6-0.6,1-0.6c0.1,0,0.2,0.1,0.4,0.2c0,0,0.1,0.1,0.3,0.3c0.6-0.7,1-0.9,1.2-0.9
					c0.2,0.1,0.3,0.2,0.5,0.5c0,0.1,0.1,0.2,0.1,0.3c0,0.3,0,0.6,0.1,0.9c0,0,0,0,0,0.1c0,0.9,0,1.8-0.1,2.6
					c0.6-0.2,1.2-1.2,1.9-2.9c0-0.2,0-0.4,0-0.5c-0.3-0.6-0.4-1.2-0.4-1.6c0-0.1,0.1-0.6,0.2-1.5c0-0.1-0.1-0.3-0.3-0.3
					c-0.1,0-0.2-0.1-0.4-0.1c-0.1,0-0.3-0.2-0.6-0.6c-0.7-0.7-1.7-1.4-3.1-2.3c-1.3-0.8-2.2-1.2-2.8-1.2c-0.3,0-0.7,0.2-1.1,0.5
					c-0.1,0.1-0.2,0.2-0.3,0.3C387,179.1,386.8,179.1,386.7,179L386.7,179z"/>
				<path class="st2" d="M381.4,189.1c0.2-0.2,0.4-0.3,0.5-0.3c0.1,0,0.1,0,0.2,0c0.3,0.1,0.5,0.3,0.8,0.7c0.3,0.5,0.4,0.9,0.4,1.3
					c0,0,0.3-0.1,0.7-0.2c0.3,0,0.5-0.2,0.5-0.3c0-0.5-0.1-1.1-0.4-1.8c-0.2-0.5-0.3-1-0.4-1.3c0.5,0.5,1.3,0.7,2.3,0.8
					c0.1,0,0.2,0,0.3,0c1,0,2.1-0.3,3.4-1.1c0.2-0.1,0.3-0.2,0.5-0.4c0.2-0.4,0.3-0.6,0.4-0.8c0.3-0.4,0.6-0.6,1-0.6
					c0.1,0,0.2,0.1,0.4,0.2c0,0,0.1,0.1,0.3,0.3c0.6-0.7,1-0.9,1.2-0.9c0.2,0.1,0.3,0.2,0.5,0.5c0,0.1,0.1,0.2,0.1,0.3
					c0,0.3,0,0.6,0.1,0.9c0,0,0,0,0,0.1c0,0.9,0,1.8-0.1,2.6c-0.2,2.3-0.7,4.2-1.6,5.7c-0.3,0.6-0.7,1.2-1.1,1.6
					c-0.4,0.4-0.7,0.7-1.1,0.9c-0.4,0.2-0.8,0.3-1.2,0.3h0c-0.7,0-1.4-0.1-2.1-0.4c-0.2-0.1-0.3-0.2-0.4-0.2
					c-1.1-0.7-2.1-1.8-2.9-3.5c-0.2-0.4-0.4-0.8-0.5-1.2c-0.1,0.2-0.3,0.2-0.4,0.3c0,0-0.1,0-0.1,0c-0.3,0-0.6-0.4-1-1.1
					c-0.3-0.6-0.5-1.1-0.5-1.5c0,0,0-0.1,0-0.1C381.1,189.6,381.2,189.4,381.4,189.1z"/>
			</g>
		</g>
		<g>
			
				<ellipse transform="matrix(0.11 -0.9939 0.9939 0.11 155.7395 555.2825)" class="st16" cx="387.9" cy="190.7" rx="1.8" ry="1.8"/>
			
				<ellipse transform="matrix(0.11 -0.9939 0.9939 0.11 160.2162 559.6696)" class="st16" cx="392.6" cy="190.4" rx="1.8" ry="1.8"/>
			<g>
				<path class="st1" d="M387.9,189.4c0,0,0.1,0,0.1,0c0.4,0,0.7,0.2,0.9,0.5c0.2,0.3,0.3,0.6,0.3,1c-0.1,0.7-0.6,1.2-1.3,1.2
					c0,0-0.1,0-0.1,0c-0.7-0.1-1.3-0.7-1.2-1.5C386.7,189.9,387.2,189.4,387.9,189.4 M387.9,188.9c-0.9,0-1.7,0.7-1.8,1.6
					c-0.1,1,0.6,1.9,1.6,2c0.1,0,0.1,0,0.2,0c0.9,0,1.7-0.7,1.8-1.6c0.1-1-0.6-1.9-1.6-2C388.1,188.9,388,188.9,387.9,188.9
					L387.9,188.9z"/>
			</g>
			<g>
				<path class="st1" d="M392.6,189.1c0,0,0.1,0,0.1,0c0.3,0,0.6,0.2,0.9,0.5c0.2,0.3,0.3,0.6,0.3,0.9c-0.1,0.6-0.6,1.1-1.3,1.1
					c0,0-0.1,0-0.1,0c-0.3,0-0.6-0.2-0.9-0.5s-0.3-0.6-0.3-0.9C391.4,189.6,392,189.1,392.6,189.1 M392.6,188.6
					c-0.9,0-1.7,0.7-1.8,1.6c-0.1,1,0.6,1.8,1.6,2c0.1,0,0.1,0,0.2,0c0.9,0,1.7-0.7,1.8-1.6c0.1-1-0.6-1.8-1.6-2
					C392.7,188.6,392.7,188.6,392.6,188.6L392.6,188.6z"/>
			</g>
			<path class="st36" d="M391,190.2c0,0-0.6-0.5-1.5,0"/>
			<line class="st36" x1="386.3" y1="190.5" x2="383.5" y2="188.6"/>
		</g>
		<g>
			<path class="st35" d="M326.1,283.8c10.9-6.3,28.6-6.3,39.6,0c10.9,6.3,10.9,16.5,0,22.8c-10.9,6.3-28.6,6.3-39.6,0
				C315.2,300.3,315.2,290.1,326.1,283.8z"/>
			<path class="st9" d="M356.2,297.2c-0.4-0.3-1.4,0.4-2.9,2c-0.5-0.1-0.8,0-1.1,0.3c-1.6,0.4-2.2-0.3-3.4-0.7
				c-0.1,0.2-0.9,1.2-1,1.6c-0.1,1.1-0.1,2.9,0.7,3.2c1.5,0.7,4.5,2.5,6.1,2.7c2,0.3,3.8,0.9,5.8,1.1c1.2,0.1,4.2-2.7,4.6-4.3
				c0.1-0.5-1.1-1.2-1.4-1.5c-2.1-1.9-4.3-2.1-6.5-3.7C356.8,297.7,356.5,297.4,356.2,297.2z"/>
			<path class="st9" d="M339.4,285.2c-0.4-0.3-1.4,0.4-2.9,2c-0.5-0.1-0.8,0-1.1,0.3c-1.6,0.4-2.2-0.3-3.4-0.7
				c-0.1,0.2-0.9,1.2-1,1.6c-0.1,1.1-0.1,2.9,0.7,3.2c1.5,0.7,4.7,0.5,6.2,0.8c2,0.3,3.8,0.9,5.8,1.1c1.2,0.1,3.7,0.1,4.1-1.5
				c0.1-0.5-0.7-2.1-1-2.4c-2.1-1.9-4.3-2.1-6.5-3.7C339.9,285.6,339.7,285.4,339.4,285.2z"/>
			<path class="st2" d="M356,232l-1.4,3.9c0,0,3.6,10.1,5,13.7c0,0,4.1,4,2.3,6.6c-1.8,2.6-6.2,0.4-6.6-5.2c0,0-6.2-9-6.8-12.1
				c-0.6-3.1-0.3-9.2-0.3-9.2L356,232z"/>
			<path class="st9" d="M347.2,231.1c0,0,2,1.5,5,2.1c2.9,0.6,4.2,0.3,4.2,0.3s5.1-14.5-1.6-16.1
				C348.1,215.8,347.2,231.1,347.2,231.1z"/>
			<path class="st20" d="M353.4,257.2c0,0-5.7,17.1-7.5,19.7c-1.8,2.6-6.5,10.8-6.5,10.8s-5.8,2.5-7.3-0.5c0,0,1.4-9.9,4.9-14.2
				c0,0,2.9-17.6,5-18.8C344,252.9,353.4,257.2,353.4,257.2z"/>
			<path class="st3" d="M336.9,256.4c0,0-0.5,4.2,1.4,8.1c1.9,3.8,6.6,13.8,6.6,13.8l4.1,21.9c0,0,4.4,1.1,8.2-1.1
				c0,0-1.6-17.2-2.3-20.6c-0.7-3.4-5-20.5-5-20.5L336.9,256.4z"/>
			<path class="st18" d="M354.1,217.1c0,0-10.3-3.3-18.3,4.3v36.4c0,0,10.7,4,19.5,0l1.9-35.7C357.2,222.2,356.5,218.6,354.1,217.1z
				"/>
			<path class="st2" d="M344.6,215l-3.1,3.1c0,0,2,6.6,6.9,4.8c4.9-1.8,1.1-6.2,1.1-6.2v-3.2L344.6,215z"/>
			<path class="st17" d="M342.6,217c0,0,2.7,6.5,8.1,2.1c0,0-0.2-0.7-0.4-1.1c-0.2-0.5-7.2-1.5-7.2-1.5L342.6,217z"/>
			<g>
				<path class="st2" d="M339.4,210.4c0.2-0.2,0.4-0.4,0.6-0.4c0.1,0,0.1,0,0.2,0c0.3,0.1,0.6,0.4,0.8,0.8c0.3,0.5,0.5,1,0.5,1.4
					c0-0.1,0.3-0.1,0.8-0.2c0.4-0.1,0.5-0.2,0.5-0.4c0-0.5-0.1-1.2-0.4-2c-0.2-0.6-0.3-1.1-0.4-1.5c0.6,0.5,1.4,0.8,2.6,0.9
					c0.1,0,0.2,0,0.3,0c1.1,0,2.3-0.4,3.7-1.2c0.2-0.1,0.4-0.3,0.5-0.5c0.2-0.4,0.4-0.7,0.5-0.9c0.3-0.4,0.7-0.7,1.1-0.7
					c0.1,0,0.3,0.1,0.4,0.2c0,0,0-0.9,0.2-0.7c0.6-0.7,1.2,0,1.4,0.1c0.2,0.1,0.4,0.3,0.5,0.5c0,0.1,0.1,0.2,0.2,0.3
					c0,0.4,0,0.7,0.1,1c0,0,0,0,0,0.1c0,1,0,2-0.1,2.9c-0.2,2.5-0.8,4.7-1.7,6.3c-0.4,0.7-0.8,1.3-1.2,1.7c-0.4,0.4-0.8,0.7-1.2,1
					c-0.4,0.2-0.9,0.3-1.3,0.3h0c-0.8,0-1.6-0.2-2.3-0.5c-0.2-0.1-0.3-0.2-0.5-0.3c-1.2-0.7-2.3-2-3.2-3.9c-0.2-0.4-0.4-0.9-0.6-1.4
					c-0.1,0.2-0.3,0.3-0.5,0.3c0,0-0.1,0-0.1,0c-0.3,0-0.7-0.4-1.1-1.2c-0.3-0.7-0.5-1.2-0.5-1.7c0-0.1,0-0.1,0-0.1
					C339,210.9,339.2,210.7,339.4,210.4z"/>
				<path class="st1" d="M345.2,198.9c-1,0-2.1,0.1-3.1,0.3c-1.3,0.2-2.5,1-3.1,2.2c-0.7,1.3-1.1,2.6-1.1,3.9c0,1.2,0,2.2,0.2,2.7
					c0.3,1.2,0.6,2.3,0.8,3.4l0.1,0.1v-0.1c0-0.1,0-0.1,0-0.1c0-0.3,0.1-0.6,0.4-0.8c0.2-0.2,0.4-0.4,0.6-0.4c0.1,0,0.1,0,0.2,0
					c0.3,0.1,0.6,0.4,0.8,0.8c0.3,0.5,0.5,1,0.5,1.4c0-0.1,0.3-0.1,0.8-0.2c0.4-0.1,0.5-0.2,0.5-0.4c0-0.5-0.1-1.2-0.4-2
					c-0.2-0.6-0.3-1.1-0.4-1.5c0,0.3,1.1,0.6,1.3,0.7c0.6,0.2,1.2,0.3,1.8,0.2c1.6-0.1,3-1,4.4-1.7c0.6-0.3,1.2-0.5,1.7-1
					c0.4-0.3,0.9-1.2,1.5-0.9c0.2,0.1,0.4,0.3,0.5,0.5c0,0.1,0.1,0.2,0.2,0.3c0,0.4,0,0.7,0.1,1c0,0,0,0,0,0.1c0,1,0,2-0.1,2.9
					c0,0,0.6-0.5,0.7-0.6c0.3-0.4,0.5-0.8,0.8-1.2c0.8-1.6,0.6-2.7,0.1-4.4c-0.4-1.4-1.4-2.4-2.6-3.2c-1.5-1-3.1-2-4.9-2.1
					C346.7,198.9,346,198.9,345.2,198.9z"/>
			</g>
			<path class="st2" d="M339.8,235.9l-1.2,3.9c0,0,4,10,5.5,13.5c0,0,4.3,3.8,2.6,6.5c-1.7,2.7-6.2,0.6-6.8-5c0,0-6.5-8.7-7.2-11.8
				c-0.7-3.1-0.6-9.2-0.6-9.2L339.8,235.9z"/>
			<path class="st22" d="M331,235.4c0,0,2,1.4,5,2c2.9,0.5,4.2,0.2,4.2,0.2s4.5-14.7-2.2-16.1C331.3,220.1,331,235.4,331,235.4z"/>
			<path class="st1" d="M341.5,212.2l-0.1,2.2c0,0,1.5,5.3,6.2,5.5c4.5,0.2,5.4-5.4,5.4-7.3c0,0-1.5,2.2-2.6,2.5s-0.4-0.7-2.9,0
				c-2.5,0.7-4.4-1.9-4.8-3.3"/>
		</g>
	</g>
	<g>
		<g id="XMLID_1272_">
			<polygon id="XMLID_1279_" class="st16" points="829.4,528.9 760.8,569.1 759.9,502.4 829.4,462.7 			"/>
			<polygon id="XMLID_1278_" class="st17" points="760.8,569.1 704.4,536.4 703.5,469.7 759.9,502.4 			"/>
			<polygon id="XMLID_1277_" class="st16" points="759.9,502.4 790.1,453.4 829.4,462.8 			"/>
			<g id="XMLID_1273_">
				<polygon id="XMLID_1276_" class="st17" points="797.4,522.5 770.2,538.4 769.7,502.9 797.6,486.3 				"/>
				<path id="XMLID_1275_" class="st17" d="M823.9,532.1l-11.6,6.8l0.1-37.3c0-5.2,2.6-11.1,5.8-13.3v0c3.2-2.1,5.8,1.3,5.8,6.6
					L823.9,532.1z"/>
				<polygon id="XMLID_1274_" class="st1" points="769.7,502.9 774.2,507.6 802.5,490.7 797.6,486.3 				"/>
			</g>
		</g>
		<polygon class="st1" points="703.5,469.7 759.9,502.4 790.1,453.4 737.8,423 		"/>
		<polygon class="st13" points="737.8,423 790.1,453.4 829.4,462.7 760.1,426.8 		"/>
	</g>
	<g>
		<path class="st18" d="M483,238.3l-4-2.3l206.7-119.5c9.8-5.7,22-5.7,31.9-0.1l2.6,1.2l-2,3.5l-2.6-1.2c-8.6-4.9-19.3-4.9-27.9,0.1
			L483,238.3z"/>
	</g>
	<polygon class="st18" points="720.6,112.7 733.1,129.3 707.5,120.4 	"/>
	<g>
		<path class="st18" d="M893.5,462.7l-9.4,1l201.4-117.2c2.5-1.4,4-4,4-6.9c0-2.9-1.5-5.5-4-6.9l-151.9-86.3l4.1-2.3l150.1,85.3
			c3.5,2,5.7,5.9,5.7,10.3c0,4.3-2.3,8.2-6,10.4L893.5,462.7z"/>
	</g>
	<polygon class="st18" points="887.3,456.1 875.1,471.3 901.5,464 	"/>
	<g>
		<path class="st18" d="M834.7,448.5l-3.4-2.3l150.8-87.6c2.5-1.4,4-4,4-6.9c0-2.9-1.5-5.5-4-6.9l-96.1-56.3l2-3.5l96.1,56.3
			c3.7,2.2,6,6.1,6,10.4c0,4.3-2.3,8.2-6,10.4L834.7,448.5z"/>
	</g>
	<polygon class="st18" points="889.6,295.9 876.3,280.5 902.7,288.2 	"/>
	<g>
		<polygon class="st18" points="685.7,424.3 488.7,310.6 492.7,308.3 689.7,422 		"/>
	</g>
	<polygon class="st18" points="688.3,415.3 702.1,430.9 675.2,423.1 	"/>
	<text transform="matrix(0.672 -0.3934 0.8688 0.4952 366.0876 338.1211)" class="st1 st44 st45">Customer</text>
	<text transform="matrix(0.672 -0.3934 0.8688 0.4952 777.9831 589.5646)" class="st1 st44 st45">Merchant</text>
	<text transform="matrix(0.672 -0.3934 0.8688 0.4952 873.8414 259.9138)" class="st1 st44 st45">AceHub</text>
	<g>
		<g>
			<g>
				<polygon id="XMLID_1271_" class="st2" points="856.9,156.9 773.7,205.1 773.7,124.6 856.9,76.8 				"/>
				<polygon id="XMLID_1270_" class="st28" points="853.4,152.4 778.9,195.4 778.9,127.9 853.4,84.6 				"/>
				<polygon id="XMLID_1269_" class="st20" points="856.9,76.8 853.4,74.7 770.1,122.5 773.7,124.6 				"/>
				<polygon id="XMLID_1268_" class="st29" points="770.1,122.5 773.6,124.6 773.7,205.1 770.1,203 				"/>
			</g>
			<polygon id="XMLID_1267_" class="st16" points="919.7,193.2 837.2,241.7 773.7,205.1 856.9,156.9 			"/>
			<polygon class="st3" points="837.2,241.7 837.2,246 919.7,197.5 919.7,193.2 			"/>
			<polygon class="st2" points="770.1,202.9 770.1,207.2 837.2,246 837.2,241.7 			"/>
			<g>
				<polygon id="XMLID_1266_" class="st17" points="797.3,206.3 793.2,208.7 789.7,206.7 793.8,204.3 				"/>
				<polygon id="XMLID_1265_" class="st17" points="803.2,202.8 799.1,205.2 795.7,203.2 799.8,200.8 				"/>
				<polygon id="XMLID_1264_" class="st17" points="862.5,167.8 858.4,170.2 855,168.3 859.1,165.8 				"/>
				<polygon id="XMLID_1263_" class="st17" points="856.6,171.3 852.5,173.7 849.1,171.8 853.2,169.3 				"/>
				<polygon id="XMLID_1262_" class="st17" points="850.7,174.8 846.6,177.2 843.1,175.2 847.2,172.8 				"/>
				<polygon id="XMLID_1261_" class="st17" points="844.7,178.3 840.6,180.7 837.2,178.7 841.3,176.3 				"/>
				<polygon id="XMLID_1260_" class="st17" points="832.9,185.3 828.8,187.7 825.3,185.7 829.4,183.3 				"/>
				<polygon id="XMLID_1259_" class="st17" points="826.9,188.8 822.8,191.2 819.4,189.2 823.5,186.8 				"/>
				<polygon id="XMLID_1258_" class="st17" points="815.1,195.8 811,198.2 807.5,196.2 811.6,193.8 				"/>
				<polygon id="XMLID_1257_" class="st17" points="809.1,199.3 805,201.7 801.6,199.7 805.7,197.3 				"/>
				<polygon id="XMLID_1256_" class="st17" points="821,192.3 816.9,194.7 813.5,192.7 817.6,190.3 				"/>
				<polygon id="XMLID_1255_" class="st17" points="838.8,181.8 834.7,184.2 831.3,182.2 835.4,179.8 				"/>
			</g>
			<g>
				<polygon id="XMLID_1254_" class="st17" points="806.2,211.5 802.1,213.9 798.6,211.9 802.7,209.5 				"/>
				<polygon id="XMLID_1253_" class="st17" points="812.1,208 808,210.4 804.6,208.4 808.7,206 				"/>
				<polygon id="XMLID_1252_" class="st17" points="871.4,173.1 867.3,175.5 863.9,173.5 868,171.1 				"/>
				<polygon id="XMLID_1251_" class="st17" points="865.5,176.6 861.4,179 858,177 862.1,174.6 				"/>
				<polygon id="XMLID_1250_" class="st17" points="859.6,180.1 855.5,182.5 852,180.5 856.1,178.1 				"/>
				<polygon id="XMLID_1249_" class="st17" points="853.6,183.5 849.5,186 846.1,184 850.2,181.6 				"/>
				<polygon id="XMLID_1248_" class="st17" points="841.8,190.5 837.7,192.9 834.2,191 838.3,188.5 				"/>
				<polygon id="XMLID_1247_" class="st17" points="835.8,194 831.7,196.4 828.3,194.4 832.4,192 				"/>
				<polygon id="XMLID_1246_" class="st17" points="824,201 819.9,203.4 816.4,201.4 820.5,199 				"/>
				<polygon id="XMLID_1245_" class="st17" points="818,204.5 813.9,206.9 810.5,204.9 814.6,202.5 				"/>
				<polygon id="XMLID_1244_" class="st17" points="829.9,197.5 825.8,199.9 822.4,197.9 826.5,195.5 				"/>
				<polygon id="XMLID_1243_" class="st17" points="847.7,187 843.6,189.5 840.2,187.5 844.3,185.1 				"/>
			</g>
			<g>
				<polygon id="XMLID_1242_" class="st17" points="815.8,217.1 811.7,219.5 808.3,217.5 812.4,215.1 				"/>
				<polygon id="XMLID_1241_" class="st17" points="821.7,213.6 817.6,216 814.2,214 818.3,211.6 				"/>
				<polygon id="XMLID_1240_" class="st17" points="881.1,178.7 877,181.1 873.5,179.1 877.6,176.7 				"/>
				<polygon id="XMLID_1239_" class="st17" points="875.1,182.2 871,184.6 867.6,182.6 871.7,180.2 				"/>
				<polygon id="XMLID_1238_" class="st17" points="869.2,185.7 865.1,188.1 861.7,186.1 865.8,183.7 				"/>
				<polygon id="XMLID_1237_" class="st17" points="863.3,189.2 859.2,191.6 855.7,189.6 859.8,187.2 				"/>
				<polygon id="XMLID_1236_" class="st17" points="851.4,196.1 847.3,198.6 843.9,196.6 848,194.2 				"/>
				<polygon id="XMLID_1235_" class="st17" points="845.5,199.6 841.4,202.1 837.9,200.1 842,197.6 				"/>
				<polygon id="XMLID_1234_" class="st17" points="833.6,206.6 829.5,209 826.1,207 830.2,204.6 				"/>
				<polygon id="XMLID_1233_" class="st17" points="827.7,210.1 823.6,212.5 820.1,210.5 824.2,208.1 				"/>
				<polygon id="XMLID_1232_" class="st17" points="839.5,203.1 835.4,205.5 832,203.6 836.1,201.1 				"/>
				<polygon id="XMLID_1231_" class="st17" points="857.3,192.7 853.2,195.1 849.8,193.1 853.9,190.7 				"/>
			</g>
			<g>
				<polygon id="XMLID_1230_" class="st17" points="825.7,222.9 821.6,225.3 818.2,223.3 822.3,220.9 				"/>
				<polygon id="XMLID_1229_" class="st17" points="831.7,219.4 827.6,221.8 824.1,219.8 828.2,217.4 				"/>
				<polygon id="XMLID_1228_" class="st17" points="891,184.5 886.9,186.9 883.5,184.9 887.6,182.5 				"/>
				<polygon id="XMLID_1227_" class="st17" points="885.1,188 881,190.4 877.5,188.4 881.6,186 				"/>
				<polygon id="XMLID_1226_" class="st17" points="879.1,191.5 875,193.9 871.6,191.9 875.7,189.5 				"/>
				<polygon id="XMLID_1225_" class="st17" points="873.2,194.9 869.1,197.4 865.7,195.4 869.8,193 				"/>
				<polygon id="XMLID_1224_" class="st17" points="861.3,201.9 857.2,204.3 853.8,202.4 857.9,199.9 				"/>
				<polygon id="XMLID_1223_" class="st17" points="855.4,205.4 851.3,207.8 847.9,205.8 852,203.4 				"/>
				<polygon id="XMLID_1222_" class="st17" points="843.5,212.4 839.4,214.8 836,212.8 840.1,210.4 				"/>
				<polygon id="XMLID_1221_" class="st17" points="837.6,215.9 833.5,218.3 830.1,216.3 834.2,213.9 				"/>
				<polygon id="XMLID_1220_" class="st17" points="849.5,208.9 845.4,211.3 841.9,209.3 846,206.9 				"/>
				<polygon id="XMLID_1219_" class="st17" points="867.3,198.4 863.2,200.9 859.7,198.9 863.8,196.5 				"/>
			</g>
			<g>
				<polygon id="XMLID_1218_" class="st17" points="836.2,229 832.1,231.4 828.7,229.4 832.8,227 				"/>
				<polygon id="XMLID_1217_" class="st17" points="842.2,225.5 838.1,227.9 834.6,225.9 838.7,223.5 				"/>
				<polygon id="XMLID_1216_" class="st17" points="901.5,190.5 897.4,192.9 894,191 898.1,188.5 				"/>
				<polygon id="XMLID_1215_" class="st17" points="895.6,194 891.5,196.4 888,194.5 892.1,192 				"/>
				<polygon id="XMLID_1214_" class="st17" points="889.6,197.5 885.5,199.9 882.1,197.9 886.2,195.5 				"/>
				<polygon id="XMLID_1213_" class="st17" points="883.7,201 879.6,203.4 876.2,201.4 880.3,199 				"/>
				<polygon id="XMLID_1212_" class="st17" points="854,218.5 849.9,220.9 846.5,218.9 850.6,216.5 				"/>
				<polygon id="XMLID_1211_" class="st17" points="848.1,222 844,224.4 840.6,222.4 844.7,220 				"/>
				<polygon id="XMLID_1210_" class="st17" points="877.8,204.5 855.9,217.4 852.4,215.4 874.3,202.5 				"/>
			</g>
		</g>
		<g>
			<polygon class="st0" points="808.2,120.3 793.8,128.6 793.8,127.1 808.2,118.8 			"/>
			<polygon class="st0" points="826.1,148.5 793.8,167.1 793.8,165.6 826.1,147 			"/>
			<polygon class="st19" points="808.2,123.5 793.8,131.8 793.8,130.3 808.2,122 			"/>
			<polygon class="st22" points="814.9,126.8 793.8,139 793.8,137.5 814.9,125.3 			"/>
			<polygon class="st22" points="805.3,163.5 797.2,168.2 797.2,166.7 805.3,162 			"/>
			<polygon class="st3" points="818.7,155.8 806.4,162.9 806.4,161.4 818.7,154.3 			"/>
			<polygon class="st3" points="827.2,150.8 820,155 820,153.5 827.2,149.3 			"/>
			<polygon class="st3" points="835.7,146 828.4,150.1 828.4,148.6 835.7,144.5 			"/>
			<polygon class="st3" points="813.3,163.8 801,170.9 801,169.4 813.3,162.3 			"/>
			<polygon class="st3" points="821.8,158.9 814.6,163 814.6,161.5 821.8,157.4 			"/>
			<polygon class="st3" points="830.3,154 823,158.2 823,156.7 830.3,152.5 			"/>
			<polygon class="st19" points="807.7,134.1 801,137.9 801,136.4 807.7,132.6 			"/>
			<polygon class="st19" points="807.7,146 801,149.9 801,148.4 807.7,144.5 			"/>
			<polygon class="st19" points="800.5,159.4 793.8,163.3 793.8,161.8 800.5,158 			"/>
			<polygon class="st19" points="835.2,143.3 828.5,147.1 828.5,145.6 835.2,141.8 			"/>
			<polygon class="st30" points="837.8,113.6 816.7,125.8 816.7,124.3 837.8,112.1 			"/>
			<polygon class="st30" points="820.4,129.7 808.2,136.8 808.2,135.3 820.4,128.2 			"/>
			<polygon class="st19" points="807.7,172.1 801,176 801,174.5 807.7,170.6 			"/>
			<polygon class="st22" points="820.4,167.8 808.2,174.8 808.2,173.3 820.4,166.3 			"/>
			<polygon class="st30" points="828.4,163.2 821.7,167 821.7,165.5 828.4,161.7 			"/>
			<polygon class="st30" points="829.2,127.6 808.2,139.8 808.2,138.3 829.2,126.1 			"/>
			<polygon class="st30" points="827.6,131.5 808.2,142.8 808.2,141.3 827.6,130.1 			"/>
		</g>
	</g>
	<g>
		<text transform="matrix(1 0 0 1 534.2847 189.5549)" class="st19 st44 st46">5</text>
	</g>
	<circle class="st34" cx="559.1" cy="369.6" r="12.5"/>
	<g>
		<text transform="matrix(1 0 0 1 555.2847 375.4106)" class="st19 st44 st46">1</text>
	</g>
	<circle class="st34" cx="890.2" cy="387.5" r="12.5"/>
	<g>
		<text transform="matrix(1 0 0 1 885.4233 393.3583)" class="st19 st44 st46">2</text>
	</g>
	<circle class="st34" cx="976.1" cy="436.7" r="12.5"/>
	<g>
		<text transform="matrix(1 0 0 1 971.2849 442.5549)" class="st19 st44 st46">3</text>
	</g>
	<g>
		<path class="st18" d="M718.9,403.6l-108.9-64c-3.7-2.2-6-6.1-6-10.4c0-4.3,2.3-8.2,6-10.4l152.5-89.6l3.9,2.3l-154.4,90.8
			c-2.5,1.5-4,4-4,6.9c0,2.9,1.5,5.5,4,6.9l108.9,64L718.9,403.6z"/>
	</g>
	<polygon class="st18" points="722.4,395.8 736.2,411.4 709.3,403.5 	"/>
	<circle class="st34" cx="487" cy="154" r="12.5"/>
	<g>
		<text transform="matrix(1 0 0 1 482.2253 159.8913)" class="st19 st44 st46">6</text>
	</g>
	<g>
		<polygon class="st18" points="651.9,459 458.3,347.3 460.3,343.8 656,456.7 		"/>
	</g>
	<polygon class="st18" points="457.2,351.3 443.5,335.7 470.4,343.6 	"/>
	<circle class="st34" cx="511.3" cy="396.2" r="12.5"/>
	<g>
		<text transform="matrix(1 0 0 1 505.5073 402.089)" class="st19 st44 st46">4</text>
	</g>
	<g>
		<polygon class="st18" points="605.5,485.3 411.9,373.6 413.9,370.1 609.6,483 		"/>
	</g>
	<polygon class="st18" points="411.9,377.9 398.2,362.3 425.1,370.2 	"/>
	<circle class="st34" cx="213.1" cy="312.4" r="12.5"/>
	<g>
		<text transform="matrix(1 0 0 1 209.2971 318.2205)" class="st19 st44 st46">7</text>
	</g>
	<g>
		<g>
			<g>
				<g>
					<polygon class="st16" points="317.1,540.6 362.9,514.2 362.9,400.5 317.1,426.9 					"/>
					<polygon class="st17" points="317.1,426.9 271.4,400.5 271.4,514.2 317.1,540.6 					"/>
					<path class="st2" d="M317.1,380.7l34.3,19.8l-34.3,19.8v6.6l45.8-26.4L317.1,374V380.7z"/>
					<polygon class="st20" points="282.9,400.5 317.1,420.2 346,403.6 351.4,400.5 317.1,380.7 311.9,383.7 					"/>
				</g>
				<g>
					<polygon class="st16" points="271.4,505.6 271.4,567.2 281.3,561.5 282.9,560.6 305.6,547.4 307.2,546.5 317.1,540.8 
						317.1,479.2 					"/>
					<polygon class="st17" points="271.4,505.6 225.6,479.2 225.6,540.8 271.4,567.2 					"/>
					<polygon class="st20" points="225.6,479.2 271.4,505.6 317.1,479.2 271.4,452.8 					"/>
					<g>
						<polygon class="st1" points="282.9,523.4 282.9,560.6 299.9,550.7 302.7,549.1 305.6,547.4 305.6,510.2 						"/>
						<polygon class="st17" points="282.9,526.7 282.9,560.6 299.9,550.7 302.7,549.1 302.7,515.2 						"/>
					</g>
				</g>
				<g>
					<polygon class="st2" points="317.1,426.9 271.4,400.5 317.1,374 317.1,380.7 282.9,400.5 317.1,420.2 					"/>
				</g>
				<g>
					<path class="st2" d="M271.4,452.8l-45.8,26.4l45.8,26.4V499l-34.3-19.8l34.3-19.8V452.8z"/>
					<g>
						<g>
							<polygon class="st2" points="271.4,499 305.6,479.2 271.4,459.4 271.4,452.8 317.1,479.2 271.4,505.6 							"/>
						</g>
					</g>
				</g>
			</g>
			<g>
				<polygon class="st1" points="265.3,524.1 265.3,542.1 239.6,527.5 236.8,525.8 233.9,524.1 233.9,506.1 				"/>
				<polygon class="st13" points="265.3,527.4 265.3,542.1 239.6,527.5 236.8,525.8 236.8,511.1 				"/>
			</g>
			<g>
				<g>
					<polygon class="st1" points="353.7,414.9 353.7,511.3 355.7,510.2 355.7,413.7 					"/>
					<polygon class="st17" points="349.9,417 349.9,513.5 353.7,511.3 353.7,414.9 					"/>
				</g>
				<g>
					<polygon class="st1" points="342.3,420.6 342.3,517 344.3,515.9 344.3,419.4 					"/>
					<polygon class="st17" points="338.5,422.8 338.5,519.2 342.3,517 342.3,420.6 					"/>
				</g>
				<g>
					<polygon class="st1" points="330.9,426.3 330.9,522.8 332.9,521.6 332.9,425.2 					"/>
					<polygon class="st17" points="327.1,428.5 327.1,524.9 330.9,522.8 330.9,426.3 					"/>
				</g>
			</g>
		</g>
		<path class="st1" d="M311.9,383.7v0.2l34.1,19.7l5.4-3.1l-34.3-19.8L311.9,383.7z"/>
		<g>
			<g>
				<g>
					<polygon class="st16" points="317.1,407.4 317.1,413 320.8,410.9 321.4,410.6 329.7,405.8 330.3,405.4 334,403.3 334,397.6 
											"/>
					<polygon class="st17" points="317.1,407.4 300.3,397.6 300.3,403.3 317.1,413 					"/>
				</g>
				<g>
					<g>
						<g>
							<polygon class="st13" points="300.3,397.6 317.1,407.4 334,397.6 317.1,387.9 							"/>
						</g>
					</g>
				</g>
			</g>
		</g>
	</g>
	<text transform="matrix(0.672 -0.3934 0.8688 0.4952 325.6023 569.1017)"><tspan x="0" y="0" class="st1 st44 st45">Issuer</tspan><tspan x="-33.6" y="31.3" class="st1 st44 st45">(directory)</tspan></text>
	<g>
		<path class="st0" d="M451.8,200l-4-2.3L672,68.2c9.8-5.7,22-5.7,31.9-0.1l65.8,38.1l-4.2,2.4l-63.7-37c-8.6-4.9-19.3-4.9-27.9,0.1
			L451.8,200z"/>
	</g>
	<polygon class="st0" points="445.8,194.2 433.6,209.4 459.9,202.1 	"/>
	<g>
		<path class="st0" d="M250,416.5L176.9,375c-3.7-2.2-6-6.1-5.9-10.4s2.3-8.2,6-10.4L279,295.9l4.3,2.5L179,357.8
			c-2.5,1.4-4,4-4,6.9c0,2.9,1.5,5.5,4,6.9L252,413"/>
	</g>
	<polygon class="st0" points="249.7,406.7 263.5,422.3 236.6,414.4 	"/>
	<polygon class="st0" points="731.3,233.3 743.5,218.1 717.1,225.4 	"/>
	<circle class="st34" cx="650.7" cy="249.1" r="12.5"/>
	<g>
		<text transform="matrix(1 0 0 1 645.8821 254.9311)" class="st19 st44 st46">8</text>
	</g>
	<circle class="st34" cx="709.8" cy="282.6" r="12.5"/>
	<g>
		<text transform="matrix(1 0 0 1 704.9734 288.4319)" class="st19 st44 st46">9</text>
	</g>
	<circle class="st34" cx="461.2" cy="426.2" r="12.5"/>
	<g>
		<text transform="matrix(1 0 0 1 453.0027 431.0169)" class="st19 st44 st46">10</text>
	</g>
</g>
</svg>
