<?xml version="1.0" encoding="utf-8"?>
<!-- Generator: Adobe Illustrator 21.0.2, SVG Export Plug-In . SVG Version: 6.00 Build 0)  -->
<svg version="1.1" id="Layer_2" xmlns="http://www.w3.org/2000/svg" xmlns:xlink="http://www.w3.org/1999/xlink" x="0px" y="0px"
	 viewBox="0 0 1240 653" style="enable-background:new 0 0 1240 653;" xml:space="preserve">
<style type="text/css">
	.st0{fill:#1DB9DE;}
	.st1{fill:#213D8F;}
	.st2{fill:#BCC4DD;}
	.st3{fill:#4D63A5;}
	.st4{clip-path:url(#SVGID_2_);fill:#E8EBF3;}
	.st5{clip-path:url(#SVGID_2_);}
	.st6{fill:#253F8D;}
	.st7{clip-path:url(#SVGID_2_);fill:#909EC7;}
	.st8{clip-path:url(#SVGID_2_);fill:#9CC939;}
	.st9{fill:#FFFFFF;}
	.st10{clip-path:url(#SVGID_4_);fill:#E8EBF3;}
	.st11{clip-path:url(#SVGID_4_);}
	.st12{clip-path:url(#SVGID_4_);fill:#9CC939;}
	.st13{fill:#6377B0;}
	.st14{fill:none;stroke:#6377B0;stroke-width:4;stroke-miterlimit:10;stroke-dasharray:12;}
	.st15{fill-rule:evenodd;clip-rule:evenodd;fill:#9CC939;}
	.st16{fill:#E8EBF3;}
	.st17{fill:#909EC7;}
	.st18{fill:#9CC939;}
	.st19{fill:#E97876;}
	.st20{fill:#37509A;}
	.st21{fill:none;stroke:#37509A;stroke-width:8;stroke-linecap:round;stroke-linejoin:round;stroke-miterlimit:10;}
	.st22{fill:#8EC03F;}
	.st23{enable-background:new    ;}
	.st24{fill:none;}
	.st25{fill:#333333;}
	.st26{fill:none;stroke:#213D8F;stroke-miterlimit:10;}
	.st27{fill:none;stroke:#9CC939;stroke-width:4;stroke-miterlimit:10;}
	.st28{fill:#4D4F63;}
	.st29{fill:#EAEBE9;}
	.st30{fill:#FCFFFF;}
	.st31{fill:#CDD3E6;}
	.st32{fill:#C6EDF7;}
	.st33{fill:#D2F1F8;}
	.st34{fill:none;stroke:#E97876;stroke-miterlimit:10;}
	.st35{fill-rule:evenodd;clip-rule:evenodd;fill:#E8EBF3;}
	.st36{fill:none;stroke:#213D8F;stroke-width:0.5;stroke-miterlimit:10;}
	.st37{fill:#CC6A6A;}
	.st38{fill:#36E07B;}
	.st39{fill:#2ECC71;}
	.st40{fill-rule:evenodd;clip-rule:evenodd;fill:#BCC4DD;}
	.st41{fill:#F94C43;}
	.st42{fill:#E6493A;}
	.st43{font-family:'BrownTT-Bold';}
	.st44{font-size:26.0441px;}
	.st45{fill:none;stroke:#DE2E20;stroke-miterlimit:10;}
</style>
<g id="Layer_1">
	<g>
		<path class="st35" d="M202.9,160.6c9.9-5.7,26-5.7,35.9,0c9.9,5.7,9.9,15,0,20.7c-9.9,5.7-26,5.7-35.9,0
			C193,175.6,193,166.4,202.9,160.6z"/>
		<g>
			<path d="M232,163.2c-0.4-0.3-1.3,0.5-2.6,2.2c-0.4,0-0.8,0.1-1.1,0.4c-1.5,0.5-2.8,0.7-4,0.4c-0.1,0.2-0.1,0.5-0.1,0.8
				c0,1,1.8,1.5,2.5,1.8c1.4,0.5,3,0.8,4.5,0.9c1.9,0.1,3.7,1.1,5.6,1c1.1,0,3.5-0.3,3.7-1.8c0.1-0.5-0.3-0.8-0.7-1.1
				c-2.2-1.6-4.8-2.6-7.1-4C232.6,163.6,232.3,163.4,232,163.2z"/>
			<path d="M214.5,168.8c-0.1,0.1-0.1,0.2-0.2,0.3c-0.7,0.8-1.8,1.1-3.1,0.9c-0.1,0-0.3,0-0.4,0c-1.2-0.1-2-0.2-2.7-0.2
				c-0.7,0-1.1-0.1-1.2-0.1c0.1,0.1,0,1.7,0,1.9c0,0.6-0.1,1.2-0.1,1.8c0,1.5,0.1,3.4,0.9,4.7c0.6,1,1.7,1.4,2.8,1.6
				c1.1,0.2,1.9,0,2.8-0.7c1.2-0.8,1.6-2.2,1.6-3.6c0-1.1,0.2-2.3,0-3.4C214.8,171.4,214.2,169.2,214.5,168.8z"/>
			<path class="st2" d="M226.6,100.4c0,0,0.7,5.2,0.4,8.5c-0.3,3.2-3.5,11.7-3.5,11.7s-1.1,1.7-2.2,0c-1.2-1.7,0.5-5.9,2.2-7.7
				v-11.1L226.6,100.4z"/>
			<path class="st20" d="M225.3,127.5l2.9,19.2l3.9,16.9c0,0-2.3,4.3-7.5,2.8l-10.4-36.7l2.6-5.6L225.3,127.5z"/>
			<path class="st3" d="M205.6,125.9l0.9,43.8c0,0,5.3,2.6,8.3-0.3l2.9-47.6L205.6,125.9z"/>
			<path class="st0" d="M220.5,92.2c0,0-7.9,0.4-16.2,7.5l-5.3,8.7c0,0,3.5,2.8,7.5,1.8l-0.9,17.2c0,0,5-1.4,9.8,0.5
				c4.8,1.8,7.4,2.2,10.3,1.8l-2.2-27.9l3.1-1.3C226.6,100.4,225.7,95.1,220.5,92.2z"/>
			<path class="st2" d="M199.7,108.9c0,0-2,6.4-0.5,10.2c1.5,3.7,8.7,12.4,8.7,12.4s1.5-0.5,2.1-1.2c1.1-1.2,1.1-2,1.1-2
				s-5.4-8.7-6.6-10.7c-1.2-1.9,1.1-7.2,1.1-7.2s-1.4,0.2-2.7-0.2C202,110,199.7,108.9,199.7,108.9z"/>
			<path class="st2" d="M210.8,90.4v4.9c0,0,2.2,6.4,6.1,5c3.9-1.4-0.4-7.3-0.4-7.3v-2.6H210.8z"/>
			<path class="st17" d="M210.8,93.9c0,0,2.6,6,7.4,2.1l-0.4-1.1l-7-1.8L210.8,93.9z"/>
			<g>
				<path class="st1" d="M213.4,78c-0.5-0.1-1.4-0.2-2.7-0.1c-1.3,0.1-2.3,0.7-2.9,2c-0.6,1.2-1,2.4-1,3.5c0,1.1,0,2,0.1,2.5
					c0.3,1.1,0.5,2.1,0.8,3.1l0,0.1v-0.1c0,0,0-0.1,0-0.1c0-0.3,0.1-0.5,0.3-0.8c0.2-0.2,0.4-0.3,0.5-0.3c0.1,0,0.1,0,0.2,0
					c0.3,0.1,0.5,0.3,0.8,0.7c0.3,0.5,0.4,0.9,0.4,1.3c0,0,0.3-0.1,0.7-0.2c0.3,0,0.5-0.2,0.5-0.3c0-0.5-0.1-1.1-0.4-1.8
					c-0.2-0.5-0.3-1-0.4-1.3c0.5,0.5,1.3,0.7,2.3,0.8c0.1,0,0.2,0,0.3,0c1,0,2.1-0.3,3.4-1.1c0.2-0.1,0.3-0.2,0.5-0.4
					c0.2-0.4,0.3-0.6,0.4-0.8c0.3-0.4,0.6-0.6,1-0.6c0.1,0,0.2,0.1,0.4,0.2c0,0,0.1,0.1,0.3,0.3c0.6-0.7,1-0.9,1.2-0.9
					c0.2,0.1,0.3,0.2,0.5,0.5c0,0.1,0.1,0.2,0.1,0.3c0,0.3,0,0.6,0.1,0.9c0,0,0,0,0,0.1c0,0.9,0,1.8-0.1,2.6
					c0.6-0.2,1.2-1.2,1.9-2.9c0-0.2,0-0.4,0-0.5c-0.3-0.6-0.4-1.2-0.4-1.6c0-0.1,0.1-0.6,0.2-1.5c0-0.1-0.1-0.3-0.3-0.3
					c-0.1,0-0.2-0.1-0.4-0.1c-0.1,0-0.3-0.2-0.6-0.6c-0.7-0.7-1.7-1.4-3.1-2.3c-1.3-0.8-2.2-1.2-2.8-1.2c-0.3,0-0.7,0.2-1.1,0.5
					c-0.1,0.1-0.2,0.2-0.3,0.3C213.6,78,213.5,78,213.4,78L213.4,78z"/>
				<path class="st2" d="M208,88.1c0.2-0.2,0.4-0.3,0.5-0.3c0.1,0,0.1,0,0.2,0c0.3,0.1,0.5,0.3,0.8,0.7c0.3,0.5,0.4,0.9,0.4,1.3
					c0,0,0.3-0.1,0.7-0.2c0.3,0,0.5-0.2,0.5-0.3c0-0.5-0.1-1.1-0.4-1.8c-0.2-0.5-0.3-1-0.4-1.3c0.5,0.5,1.3,0.7,2.3,0.8
					c0.1,0,0.2,0,0.3,0c1,0,2.1-0.3,3.4-1.1c0.2-0.1,0.3-0.2,0.5-0.4c0.2-0.4,0.3-0.6,0.4-0.8c0.3-0.4,0.6-0.6,1-0.6
					c0.1,0,0.2,0.1,0.4,0.2c0,0,0.1,0.1,0.3,0.3c0.6-0.7,1-0.9,1.2-0.9c0.2,0.1,0.3,0.2,0.5,0.5c0,0.1,0.1,0.2,0.1,0.3
					c0,0.3,0,0.6,0.1,0.9c0,0,0,0,0,0.1c0,0.9,0,1.8-0.1,2.6c-0.2,2.3-0.7,4.2-1.6,5.7c-0.3,0.6-0.7,1.2-1.1,1.6
					c-0.4,0.4-0.7,0.7-1.1,0.9c-0.4,0.2-0.8,0.3-1.2,0.3h0c-0.7,0-1.4-0.1-2.1-0.4c-0.2-0.1-0.3-0.2-0.4-0.2
					c-1.1-0.7-2.1-1.8-2.9-3.5c-0.2-0.4-0.4-0.8-0.5-1.2c-0.1,0.2-0.3,0.2-0.4,0.3c0,0-0.1,0-0.1,0c-0.3,0-0.6-0.4-1-1.1
					c-0.3-0.6-0.5-1.1-0.5-1.5c0,0,0-0.1,0-0.1C207.7,88.5,207.8,88.3,208,88.1z"/>
			</g>
		</g>
		<g>
			<ellipse transform="matrix(0.11 -0.9939 0.9939 0.11 101.9109 293.0409)" class="st16" cx="214.6" cy="89.6" rx="1.8" ry="1.8"/>
			<ellipse transform="matrix(0.11 -0.9939 0.9939 0.11 106.3876 297.4281)" class="st16" cx="219.3" cy="89.3" rx="1.8" ry="1.8"/>
			<g>
				<path class="st1" d="M214.6,88.3c0,0,0.1,0,0.1,0c0.4,0,0.7,0.2,0.9,0.5c0.2,0.3,0.3,0.6,0.3,1c-0.1,0.7-0.6,1.2-1.3,1.2
					c0,0-0.1,0-0.1,0c-0.7-0.1-1.3-0.7-1.2-1.5C213.3,88.8,213.9,88.3,214.6,88.3 M214.6,87.8c-0.9,0-1.7,0.7-1.8,1.6
					c-0.1,1,0.6,1.9,1.6,2c0.1,0,0.1,0,0.2,0c0.9,0,1.7-0.7,1.8-1.6c0.1-1-0.6-1.9-1.6-2C214.7,87.8,214.6,87.8,214.6,87.8
					L214.6,87.8z"/>
			</g>
			<g>
				<path class="st1" d="M219.3,88c0,0,0.1,0,0.1,0c0.7,0.1,1.2,0.7,1.1,1.4c-0.1,0.6-0.6,1.1-1.3,1.1c0,0-0.1,0-0.1,0
					c-0.3,0-0.6-0.2-0.9-0.5s-0.3-0.6-0.3-0.9C218.1,88.5,218.6,88,219.3,88 M219.3,87.5c-0.9,0-1.7,0.7-1.8,1.6
					c-0.1,1,0.6,1.8,1.6,2c0.1,0,0.1,0,0.2,0c0.9,0,1.7-0.7,1.8-1.6c0.1-1-0.6-1.8-1.6-2C219.4,87.5,219.3,87.5,219.3,87.5
					L219.3,87.5z"/>
			</g>
			<path class="st36" d="M217.7,89.1c0,0-0.6-0.5-1.5,0"/>
			<line class="st36" x1="213" y1="89.4" x2="210.2" y2="87.6"/>
		</g>
	</g>
	<g>
		<polygon class="st38" points="918.4,333.3 950.5,352.1 1048.3,296 1016.4,277.7 		"/>
		<polygon class="st39" points="917.1,356.2 918.4,333.3 950.5,352.1 1048.3,296 1047,318.9 949.2,375 		"/>
	</g>
	<polygon class="st18" points="434.6,134.1 422.2,149.7 448.7,142.1 	"/>
	<g>
		<polygon class="st18" points="330.3,238.2 277.8,208.7 281.9,206.4 332.3,234.7 		"/>
	</g>
	<polygon class="st18" points="326.8,226.5 339.4,242 313.7,234.2 	"/>
	<g>
		<g>
			<polygon class="st18" points="494,333.2 441.5,303.7 445.5,301.4 496,329.7 			"/>
		</g>
		<polygon class="st18" points="490.5,321.5 504.1,337.3 477.4,329.2 		"/>
	</g>
	<g>
		<polygon class="st41" points="506,571.1 538.1,589.9 654,523.2 622.1,504.9 		"/>
		<polygon class="st42" points="504.7,594 506,571.1 538.1,589.9 654,523.2 652.7,546.2 536.8,612.8 		"/>
	</g>
	<polygon class="st18" points="538.9,517.6 552.5,532.7 525.7,525.3 	"/>
	<g>
		<polygon class="st18" points="942.2,300.3 889.7,270.8 893.8,268.5 944.2,296.9 		"/>
	</g>
	<polygon class="st18" points="938.2,288.3 952.2,304.2 925.1,296 	"/>
	<polygon class="st18" points="784.7,314.1 796.5,297.5 770.6,306.2 	"/>
	<text transform="matrix(0.672 -0.3934 0.8688 0.4952 364.5839 289.2159)"><tspan x="0" y="0" class="st1 st43 st44">Initiate</tspan><tspan x="-10.3" y="31.3" class="st1 st43 st44">payment</tspan></text>
	<text transform="matrix(0.672 -0.3934 0.8688 0.4952 216.2289 223.2608)" class="st1 st43 st44">Customer</text>
	<text transform="matrix(0.672 -0.3934 0.8688 0.4952 814.8343 292.0663)" class="st1 st43 st44">Valid payment?</text>
	<text transform="matrix(0.672 -0.3934 0.8688 0.4952 519.2602 453.2618)" class="st1 st43 st44">YES</text>
	<text transform="matrix(0.672 -0.3934 0.8688 0.4952 946.7602 268.2135)" class="st1 st43 st44">YES</text>
	<text transform="matrix(0.672 -0.3934 0.8688 0.4952 667.1946 368.1736)" class="st1 st43 st44">NO</text>
	<text transform="matrix(0.672 -0.3934 0.8688 0.4952 473.4422 395.111)" class="st1 st43 st44">Timeout expired?</text>
	<text transform="matrix(0.672 -0.3934 0.8688 0.4952 950.0583 342.7886)" class="st30 st43 st44">Approved</text>
	<text transform="matrix(0.672 -0.3934 0.8688 0.4952 537.6359 581.3004)" class="st30 st43 st44">Abandoned</text>
	<text transform="matrix(0.672 -0.3934 0.8688 0.4952 338.4488 209.6696)" class="st1 st43 st44">Pending</text>
	<text transform="matrix(0.672 -0.3934 0.8688 0.4952 818.4442 195.6311)" class="st1 st43 st44">NO</text>
	<g>
		<path class="st18" d="M830.4,234.8L560.4,79.3c-4.6-2.6-10.2-2.6-14.8,0l-106.3,61.3l-2-3.5l106.3-61.3c5.8-3.3,13-3.3,18.8,0
			l272.1,156.6L830.4,234.8z"/>
	</g>
	<g>
		<path class="st18" d="M626.5,394.9c-5.6,0-11.1-1.4-16-4.3l-43.2-25l3.6-2.3l41.5,23.9c8.6,5,19.4,5,28,0l140-80.8l2,3.5
			l-140,80.8C637.6,393.5,632.1,394.9,626.5,394.9z"/>
	</g>
	<g>
		<path class="st18" d="M540.1,527.7l-51.6-29.4c-3.7-2.2-5.9-6.1-5.9-10.4c0-4.3,2.2-8.1,5.9-10.3l101.4-60c2.5-1.5,4-4.1,3.9-7
			s-1.5-5.5-4.1-6.9l-45-25.5l4-2.4l43,24.4c3.8,2.1,6,6,6.1,10.3c0,4.3-2.2,8.2-5.9,10.4l-101.4,60c-2.4,1.4-3.9,4-3.9,6.9
			s1.4,5.4,3.9,6.9l51.6,29.3L540.1,527.7z"/>
	</g>
</g>
</svg>
