<?xml version="1.0" encoding="utf-8"?>
<!-- Generator: Adobe Illustrator 21.0.2, SVG Export Plug-In . SVG Version: 6.00 Build 0)  -->
<svg version="1.1" id="Layer_2" xmlns="http://www.w3.org/2000/svg" xmlns:xlink="http://www.w3.org/1999/xlink" x="0px" y="0px"
	 viewBox="0 0 1240 660" style="enable-background:new 0 0 1240 660;" xml:space="preserve">
<style type="text/css">
	.st0{fill:#1DB9DE;}
	.st1{fill:#213D8F;}
	.st2{fill:#BCC4DD;}
	.st3{fill:#4D63A5;}
	.st4{clip-path:url(#SVGID_2_);fill:#E8EBF3;}
	.st5{clip-path:url(#SVGID_2_);}
	.st6{fill:#253F8D;}
	.st7{clip-path:url(#SVGID_2_);fill:#909EC7;}
	.st8{clip-path:url(#SVGID_2_);fill:#9CC939;}
	.st9{fill:#FFFFFF;}
	.st10{clip-path:url(#SVGID_4_);fill:#E8EBF3;}
	.st11{clip-path:url(#SVGID_4_);}
	.st12{clip-path:url(#SVGID_4_);fill:#9CC939;}
	.st13{fill:#6377B0;}
	.st14{fill:none;stroke:#6377B0;stroke-width:4;stroke-miterlimit:10;stroke-dasharray:12;}
	.st15{fill-rule:evenodd;clip-rule:evenodd;fill:#9CC939;}
	.st16{fill:#E8EBF3;}
	.st17{fill:#909EC7;}
	.st18{fill:#9CC939;}
	.st19{fill:#E97876;}
	.st20{fill:#37509A;}
	.st21{fill:none;stroke:#37509A;stroke-width:8;stroke-linecap:round;stroke-linejoin:round;stroke-miterlimit:10;}
	.st22{fill:#8EC03F;}
	.st23{enable-background:new    ;}
	.st24{fill:none;}
	.st25{fill:#333333;}
	.st26{fill:none;stroke:#213D8F;stroke-miterlimit:10;}
	.st27{fill:none;stroke:#9CC939;stroke-width:4;stroke-miterlimit:10;}
	.st28{fill:#4D4F63;}
	.st29{fill:#EAEBE9;}
	.st30{fill:#FCFFFF;}
	.st31{fill:#CDD3E6;}
	.st32{fill:#C6EDF7;}
	.st33{fill:#D2F1F8;}
	.st34{fill:none;stroke:#E97876;stroke-miterlimit:10;}
	.st35{fill-rule:evenodd;clip-rule:evenodd;fill:#E8EBF3;}
	.st36{fill:none;stroke:#213D8F;stroke-width:0.5;stroke-miterlimit:10;}
	.st37{fill:#CC6A6A;}
	.st38{fill:#36E07B;}
	.st39{fill:#2ECC71;}
	.st40{fill-rule:evenodd;clip-rule:evenodd;fill:#BCC4DD;}
	.st41{fill:#F94C43;}
	.st42{fill:#E6493A;}
	.st43{fill:none;stroke:#DE2E20;stroke-miterlimit:10;}
	.st44{font-family:'BrownTT-Bold';}
	.st45{font-size:26.0441px;}
	.st46{font-size:16px;}
</style>
<g id="Layer_1">
	<circle class="st34" cx="483.1" cy="172.7" r="12.5"/>
	<g>
		<path class="st35" d="M317.1,272.2c9.9-5.7,26-5.7,35.9,0c9.9,5.7,9.9,15,0,20.7c-9.9,5.7-26,5.7-35.9,0
			C307.2,287.2,307.2,277.9,317.1,272.2z"/>
		<g>
			<path d="M346.2,274.8c-0.4-0.3-1.3,0.5-2.6,2.2c-0.4,0-0.8,0.1-1.1,0.4c-1.5,0.5-2.8,0.7-4,0.4c-0.1,0.2-0.1,0.5-0.1,0.8
				c0,1,1.8,1.5,2.5,1.8c1.4,0.5,3,0.8,4.5,0.9c1.9,0.1,3.7,1.1,5.6,1c1.1,0,3.5-0.3,3.7-1.8c0.1-0.5-0.3-0.8-0.7-1.1
				c-2.2-1.6-4.8-2.6-7.1-4C346.7,275.2,346.5,275,346.2,274.8z"/>
			<path d="M328.7,280.3c-0.1,0.1-0.1,0.2-0.2,0.3c-0.7,0.8-1.8,1.1-3.1,0.9c-0.1,0-0.3,0-0.4,0c-1.2-0.1-2-0.2-2.7-0.2
				c-0.7,0-1.1-0.1-1.2-0.1c0.1,0.1,0,1.7,0,1.9c0,0.6-0.1,1.2-0.1,1.8c0,1.5,0.1,3.4,0.9,4.7c0.6,1,1.7,1.4,2.8,1.6
				c1.1,0.2,1.9,0,2.8-0.7c1.2-0.8,1.6-2.2,1.6-3.6c0-1.1,0.2-2.3,0-3.4C329,283,328.4,280.8,328.7,280.3z"/>
			<path class="st2" d="M340.7,212c0,0,0.7,5.2,0.4,8.5c-0.3,3.2-3.5,11.7-3.5,11.7s-1.1,1.7-2.2,0c-1.2-1.7,0.5-5.9,2.2-7.7v-11.1
				L340.7,212z"/>
			<path class="st20" d="M339.4,239.1l2.9,19.2l3.9,16.9c0,0-2.3,4.3-7.5,2.8l-10.4-36.7l2.6-5.6L339.4,239.1z"/>
			<path class="st3" d="M319.7,237.5l0.9,43.8c0,0,5.3,2.6,8.3-0.3l2.9-47.6L319.7,237.5z"/>
			<path class="st0" d="M334.6,203.8c0,0-7.9,0.4-16.2,7.5l-5.3,8.7c0,0,3.5,2.8,7.5,1.8l-0.9,17.2c0,0,5-1.4,9.8,0.5
				c4.8,1.8,7.4,2.2,10.3,1.8l-2.2-27.9l3.1-1.3C340.7,212,339.8,206.7,334.6,203.8z"/>
			<path class="st2" d="M313.9,220.5c0,0-2,6.4-0.5,10.2c1.5,3.7,8.7,12.4,8.7,12.4s1.5-0.5,2.1-1.2c1.1-1.2,1.1-2,1.1-2
				s-5.4-8.7-6.6-10.7c-1.2-1.9,1.1-7.2,1.1-7.2s-1.4,0.2-2.7-0.2C316.2,221.5,313.9,220.5,313.9,220.5z"/>
			<path class="st2" d="M325,201.9v4.9c0,0,2.2,6.4,6.1,5c3.9-1.4-0.4-7.3-0.4-7.3v-2.6H325z"/>
			<path class="st17" d="M325,205.5c0,0,2.6,6,7.4,2.1l-0.4-1.1l-7-1.8L325,205.5z"/>
			<g>
				<path class="st1" d="M327.5,189.5c-0.5-0.1-1.4-0.2-2.7-0.1c-1.3,0.1-2.3,0.7-2.9,2c-0.6,1.2-1,2.4-1,3.5c0,1.1,0,2,0.1,2.5
					c0.3,1.1,0.5,2.1,0.8,3.1l0,0.1v-0.1c0,0,0-0.1,0-0.1c0-0.3,0.1-0.5,0.3-0.8c0.2-0.2,0.4-0.3,0.5-0.3c0.1,0,0.1,0,0.2,0
					c0.3,0.1,0.5,0.3,0.8,0.7c0.3,0.5,0.4,0.9,0.4,1.3c0,0,0.3-0.1,0.7-0.2c0.3,0,0.5-0.2,0.5-0.3c0-0.5-0.1-1.1-0.4-1.8
					c-0.2-0.5-0.3-1-0.4-1.3c0.5,0.5,1.3,0.7,2.3,0.8c0.1,0,0.2,0,0.3,0c1,0,2.1-0.3,3.4-1.1c0.2-0.1,0.3-0.2,0.5-0.4
					c0.2-0.4,0.3-0.6,0.4-0.8c0.3-0.4,0.6-0.6,1-0.6c0.1,0,0.2,0.1,0.4,0.2c0,0,0.1,0.1,0.3,0.3c0.6-0.7,1-0.9,1.2-0.9
					c0.2,0.1,0.3,0.2,0.5,0.5c0,0.1,0.1,0.2,0.1,0.3c0,0.3,0,0.6,0.1,0.9c0,0,0,0,0,0.1c0,0.9,0,1.8-0.1,2.6
					c0.6-0.2,1.2-1.2,1.9-2.9c0-0.2,0-0.4,0-0.5c-0.3-0.6-0.4-1.2-0.4-1.6c0-0.1,0.1-0.6,0.2-1.5c0-0.1-0.1-0.3-0.3-0.3
					c-0.1,0-0.2-0.1-0.4-0.1c-0.1,0-0.3-0.2-0.6-0.6c-0.7-0.7-1.7-1.4-3.1-2.3c-1.3-0.8-2.2-1.2-2.8-1.2c-0.3,0-0.7,0.2-1.1,0.5
					c-0.1,0.1-0.2,0.2-0.3,0.3C327.8,189.6,327.6,189.6,327.5,189.5L327.5,189.5z"/>
				<path class="st2" d="M322.2,199.6c0.2-0.2,0.4-0.3,0.5-0.3c0.1,0,0.1,0,0.2,0c0.3,0.1,0.5,0.3,0.8,0.7c0.3,0.5,0.4,0.9,0.4,1.3
					c0,0,0.3-0.1,0.7-0.2c0.3,0,0.5-0.2,0.5-0.3c0-0.5-0.1-1.1-0.4-1.8c-0.2-0.5-0.3-1-0.4-1.3c0.5,0.5,1.3,0.7,2.3,0.8
					c0.1,0,0.2,0,0.3,0c1,0,2.1-0.3,3.4-1.1c0.2-0.1,0.3-0.2,0.5-0.4c0.2-0.4,0.3-0.6,0.4-0.8c0.3-0.4,0.6-0.6,1-0.6
					c0.1,0,0.2,0.1,0.4,0.2c0,0,0.1,0.1,0.3,0.3c0.6-0.7,1-0.9,1.2-0.9c0.2,0.1,0.3,0.2,0.5,0.5c0,0.1,0.1,0.2,0.1,0.3
					c0,0.3,0,0.6,0.1,0.9c0,0,0,0,0,0.1c0,0.9,0,1.8-0.1,2.6c-0.2,2.3-0.7,4.2-1.6,5.7c-0.3,0.6-0.7,1.2-1.1,1.6
					c-0.4,0.4-0.7,0.7-1.1,0.9c-0.4,0.2-0.8,0.3-1.2,0.3h0c-0.7,0-1.4-0.1-2.1-0.4c-0.2-0.1-0.3-0.2-0.4-0.2
					c-1.1-0.7-2.1-1.8-2.9-3.5c-0.2-0.4-0.4-0.8-0.5-1.2c-0.1,0.2-0.3,0.2-0.4,0.3c0,0-0.1,0-0.1,0c-0.3,0-0.6-0.4-1-1.1
					c-0.3-0.6-0.5-1.1-0.5-1.5c0,0,0-0.1,0-0.1C321.9,200.1,322,199.9,322.2,199.6z"/>
			</g>
		</g>
		<g>
			<ellipse transform="matrix(0.11 -0.9939 0.9939 0.11 92.6106 505.8112)" class="st16" cx="328.7" cy="201.2" rx="1.8" ry="1.8"/>
			<ellipse transform="matrix(0.11 -0.9939 0.9939 0.11 97.0873 510.1984)" class="st16" cx="333.4" cy="200.9" rx="1.8" ry="1.8"/>
			<g>
				<path class="st1" d="M328.7,199.9c0,0,0.1,0,0.1,0c0.4,0,0.7,0.2,0.9,0.5c0.2,0.3,0.3,0.6,0.3,1c-0.1,0.7-0.6,1.2-1.3,1.2
					c0,0-0.1,0-0.1,0c-0.7-0.1-1.3-0.7-1.2-1.5C327.5,200.4,328.1,199.9,328.7,199.9 M328.7,199.4c-0.9,0-1.7,0.7-1.8,1.6
					c-0.1,1,0.6,1.9,1.6,2c0.1,0,0.1,0,0.2,0c0.9,0,1.7-0.7,1.8-1.6c0.1-1-0.6-1.9-1.6-2C328.9,199.4,328.8,199.4,328.7,199.4
					L328.7,199.4z"/>
			</g>
			<g>
				<path class="st1" d="M333.4,199.6c0,0,0.1,0,0.1,0c0.3,0,0.6,0.2,0.9,0.5c0.2,0.3,0.3,0.6,0.3,0.9c-0.1,0.6-0.6,1.1-1.3,1.1
					c0,0-0.1,0-0.1,0c-0.3,0-0.6-0.2-0.9-0.5s-0.3-0.6-0.3-0.9C332.2,200.1,332.8,199.6,333.4,199.6 M333.4,199.1
					c-0.9,0-1.7,0.7-1.8,1.6c-0.1,1,0.6,1.8,1.6,2c0.1,0,0.1,0,0.2,0c0.9,0,1.7-0.7,1.8-1.6c0.1-1-0.6-1.8-1.6-2
					C333.5,199.1,333.5,199.1,333.4,199.1L333.4,199.1z"/>
			</g>
			<path class="st36" d="M331.8,200.7c0,0-0.6-0.5-1.5,0"/>
			<line class="st36" x1="327.1" y1="201" x2="324.4" y2="199.2"/>
		</g>
		<g>
			<path class="st35" d="M266.9,294.3c10.9-6.3,28.6-6.3,39.6,0c10.9,6.3,10.9,16.5,0,22.8c-10.9,6.3-28.6,6.3-39.6,0
				C256,310.8,256,300.6,266.9,294.3z"/>
			<path class="st9" d="M297,307.7c-0.4-0.3-1.4,0.4-2.9,2c-0.5-0.1-0.8,0-1.1,0.3c-1.6,0.4-2.2-0.3-3.4-0.7c-0.1,0.2-0.9,1.2-1,1.6
				c-0.1,1.1-0.1,2.9,0.7,3.2c1.5,0.7,4.5,2.5,6.1,2.7c2,0.3,3.8,0.9,5.8,1.1c1.2,0.1,4.2-2.7,4.6-4.3c0.1-0.5-1.1-1.2-1.4-1.5
				c-2.1-1.9-4.3-2.1-6.5-3.7C297.6,308.2,297.3,307.9,297,307.7z"/>
			<path class="st9" d="M280.2,295.7c-0.4-0.3-1.4,0.4-2.9,2c-0.5-0.1-0.8,0-1.1,0.3c-1.6,0.4-2.2-0.3-3.4-0.7
				c-0.1,0.2-0.9,1.2-1,1.6c-0.1,1.1-0.1,2.9,0.7,3.2c1.5,0.7,4.7,0.5,6.2,0.8c2,0.3,3.8,0.9,5.8,1.1c1.2,0.1,3.7,0.1,4.1-1.5
				c0.1-0.5-0.7-2.1-1-2.4c-2.1-1.9-4.3-2.1-6.5-3.7C280.7,296.2,280.5,295.9,280.2,295.7z"/>
			<path class="st2" d="M296.8,242.5l-1.4,3.9c0,0,3.6,10.1,5,13.7c0,0,4.1,4,2.3,6.6c-1.8,2.6-6.2,0.4-6.6-5.2c0,0-6.2-9-6.8-12.1
				c-0.6-3.1-0.3-9.2-0.3-9.2L296.8,242.5z"/>
			<path class="st9" d="M288,241.6c0,0,2,1.5,5,2.1c2.9,0.6,4.2,0.3,4.2,0.3s5.1-14.5-1.6-16.1C288.9,226.3,288,241.6,288,241.6z"/>
			<path class="st20" d="M294.2,267.7c0,0-5.7,17.1-7.5,19.7c-1.8,2.6-6.5,10.8-6.5,10.8s-5.8,2.5-7.3-0.5c0,0,1.4-9.9,4.9-14.2
				c0,0,2.9-17.6,5-18.8C284.8,263.5,294.2,267.7,294.2,267.7z"/>
			<path class="st3" d="M277.8,266.9c0,0-0.5,4.2,1.4,8.1c1.9,3.8,6.6,13.8,6.6,13.8l4.1,21.9c0,0,4.4,1.1,8.2-1.1
				c0,0-1.6-17.2-2.3-20.6c-0.7-3.4-5-20.5-5-20.5L277.8,266.9z"/>
			<path class="st18" d="M294.9,227.6c0,0-10.3-3.3-18.3,4.3v36.4c0,0,10.7,4,19.5,0l1.9-35.7C298,232.7,297.3,229.1,294.9,227.6z"
				/>
			<path class="st2" d="M285.4,225.5l-3.1,3.1c0,0,2,6.6,6.9,4.8c4.9-1.8,1.1-6.2,1.1-6.2V224L285.4,225.5z"/>
			<path class="st17" d="M283.4,227.5c0,0,2.7,6.5,8.1,2.1c0,0-0.2-0.7-0.4-1.1c-0.2-0.5-7.2-1.5-7.2-1.5L283.4,227.5z"/>
			<g>
				<path class="st2" d="M280.2,220.9c0.2-0.2,0.4-0.4,0.6-0.4c0.1,0,0.1,0,0.2,0c0.3,0.1,0.6,0.4,0.8,0.8c0.3,0.5,0.5,1,0.5,1.4
					c0-0.1,0.3-0.1,0.8-0.2c0.4-0.1,0.5-0.2,0.5-0.4c0-0.5-0.1-1.2-0.4-2c-0.2-0.6-0.3-1.1-0.4-1.5c0.6,0.5,1.4,0.8,2.6,0.9
					c0.1,0,0.2,0,0.3,0c1.1,0,2.3-0.4,3.7-1.2c0.2-0.1,0.4-0.3,0.5-0.5c0.2-0.4,0.4-0.7,0.5-0.9c0.3-0.4,0.7-0.7,1.1-0.7
					c0.1,0,0.3,0.1,0.4,0.2c0,0,0-0.9,0.2-0.7c0.6-0.7,1.2,0,1.4,0.1c0.2,0.1,0.4,0.3,0.5,0.5c0,0.1,0.1,0.2,0.2,0.3
					c0,0.4,0,0.7,0.1,1c0,0,0,0,0,0.1c0,1,0,2-0.1,2.9c-0.2,2.5-0.8,4.7-1.7,6.3c-0.4,0.7-0.8,1.3-1.2,1.7c-0.4,0.4-0.8,0.7-1.2,1
					c-0.4,0.2-0.9,0.3-1.3,0.3h0c-0.8,0-1.6-0.2-2.3-0.5c-0.2-0.1-0.3-0.2-0.5-0.3c-1.2-0.7-2.3-2-3.2-3.9c-0.2-0.4-0.4-0.9-0.6-1.4
					c-0.1,0.2-0.3,0.3-0.5,0.3c0,0-0.1,0-0.1,0c-0.3,0-0.7-0.4-1.1-1.2c-0.3-0.7-0.5-1.2-0.5-1.7c0-0.1,0-0.1,0-0.1
					C279.9,221.4,280,221.2,280.2,220.9z"/>
				<path class="st1" d="M286,209.4c-1,0-2.1,0.1-3.1,0.3c-1.3,0.2-2.5,1-3.1,2.2c-0.7,1.3-1.1,2.6-1.1,3.9c0,1.2,0,2.2,0.2,2.7
					c0.3,1.2,0.6,2.3,0.8,3.4l0.1,0.1v-0.1c0-0.1,0-0.1,0-0.1c0-0.3,0.1-0.6,0.4-0.8c0.2-0.2,0.4-0.4,0.6-0.4c0.1,0,0.1,0,0.2,0
					c0.3,0.1,0.6,0.4,0.8,0.8c0.3,0.5,0.5,1,0.5,1.4c0-0.1,0.3-0.1,0.8-0.2c0.4-0.1,0.5-0.2,0.5-0.4c0-0.5-0.1-1.2-0.4-2
					c-0.2-0.6-0.3-1.1-0.4-1.5c0,0.3,1.1,0.6,1.3,0.7c0.6,0.2,1.2,0.3,1.8,0.2c1.6-0.1,3-1,4.4-1.7c0.6-0.3,1.2-0.5,1.7-1
					c0.4-0.3,0.9-1.2,1.5-0.9c0.2,0.1,0.4,0.3,0.5,0.5c0,0.1,0.1,0.2,0.2,0.3c0,0.4,0,0.7,0.1,1c0,0,0,0,0,0.1c0,1,0,2-0.1,2.9
					c0,0,0.6-0.5,0.7-0.6c0.3-0.4,0.5-0.8,0.8-1.2c0.8-1.6,0.6-2.7,0.1-4.4c-0.4-1.4-1.4-2.4-2.6-3.2c-1.5-1-3.1-2-4.9-2.1
					C287.5,209.4,286.8,209.4,286,209.4z"/>
			</g>
			<path class="st2" d="M280.7,246.4l-1.2,3.9c0,0,4,10,5.5,13.5c0,0,4.3,3.8,2.6,6.5c-1.7,2.7-6.2,0.6-6.8-5c0,0-6.5-8.7-7.2-11.8
				c-0.7-3.1-0.6-9.2-0.6-9.2L280.7,246.4z"/>
			<path class="st22" d="M271.8,245.9c0,0,2,1.4,5,2c2.9,0.5,4.2,0.2,4.2,0.2s4.5-14.7-2.2-16.1
				C272.2,230.6,271.8,245.9,271.8,245.9z"/>
			<path class="st1" d="M282.3,222.7l-0.1,2.2c0,0,1.5,5.3,6.2,5.5c4.5,0.2,5.4-5.4,5.4-7.3c0,0-1.5,2.2-2.6,2.5s-0.4-0.7-2.9,0
				c-2.5,0.7-4.4-1.9-4.8-3.3"/>
		</g>
	</g>
	<g>
		<g id="XMLID_1202_">
			<polygon id="XMLID_1209_" class="st16" points="754.9,532 686.2,572.1 685.4,505.4 754.9,465.8 			"/>
			<polygon id="XMLID_1208_" class="st17" points="686.2,572.1 629.8,539.4 629,472.7 685.4,505.4 			"/>
			<polygon id="XMLID_1207_" class="st16" points="685.4,505.4 715.6,456.4 754.9,465.8 			"/>
			<g id="XMLID_1203_">
				<polygon id="XMLID_1206_" class="st17" points="722.9,525.6 695.7,541.5 695.2,506 723.1,489.4 				"/>
				<path id="XMLID_1205_" class="st17" d="M749.4,535.2l-11.6,6.8l0.1-37.3c0-5.2,2.6-11.1,5.8-13.3v0c3.2-2.1,5.8,1.3,5.8,6.6
					L749.4,535.2z"/>
				<polygon id="XMLID_1204_" class="st1" points="695.2,506 699.6,510.7 728,493.7 723.1,489.4 				"/>
			</g>
		</g>
		<polygon class="st1" points="629,472.7 685.4,505.4 715.6,456.4 663.3,426.1 		"/>
		<polygon class="st13" points="663.3,426.1 715.6,456.4 754.9,465.8 685.6,429.8 		"/>
	</g>
	<g>
		<path class="st18" d="M413,238.3l-4-2.3l206.7-119.5c9.8-5.7,22-5.7,31.9-0.1l18.2,9.4l-2,3.5l-18.2-9.4
			c-8.6-4.9-19.3-4.9-27.9,0.1L413,238.3z"/>
	</g>
	<polygon class="st18" points="665.2,120.3 677.7,136.9 652.1,128 	"/>
	<g>
		<polygon class="st18" points="615.7,424.3 418.4,310.5 422.4,308.1 619.7,422 		"/>
	</g>
	<polygon class="st18" points="619.3,416.3 633.1,431.9 606.2,424.1 	"/>
	<text transform="matrix(0.672 -0.3934 0.8688 0.4952 306.9003 348.6341)" class="st1 st44 st45">Customer</text>
	<text transform="matrix(0.672 -0.3934 0.8688 0.4952 703.47 592.6232)" class="st1 st44 st45">Merchant</text>
	<text transform="matrix(0.672 -0.3934 0.8688 0.4952 788.6238 255.5879)" class="st1 st44 st45">AceHub</text>
	<g>
		<g>
			<g>
				<polygon id="XMLID_1201_" class="st2" points="771.7,152.6 688.5,200.7 688.4,120.2 771.7,72.4 				"/>
				<polygon id="XMLID_1200_" class="st28" points="768.2,148.1 693.7,191 693.7,123.6 768.2,80.2 				"/>
				<polygon id="XMLID_1199_" class="st20" points="771.7,72.4 768.2,70.4 684.9,118.2 688.4,120.2 				"/>
				<polygon id="XMLID_1198_" class="st29" points="684.9,118.2 688.4,120.2 688.5,200.7 684.9,198.7 				"/>
			</g>
			<polygon id="XMLID_1197_" class="st16" points="834.5,188.9 752,237.4 688.5,200.7 771.7,152.6 			"/>
			<polygon class="st3" points="752,237.4 752,241.7 834.5,193.2 834.5,188.9 			"/>
			<polygon class="st2" points="684.9,198.6 684.9,202.9 752,241.7 752,237.4 			"/>
			<g>
				<polygon id="XMLID_1196_" class="st17" points="712.1,201.9 708,204.4 704.5,202.4 708.6,199.9 				"/>
				<polygon id="XMLID_1195_" class="st17" points="718,198.4 713.9,200.9 710.5,198.9 714.6,196.4 				"/>
				<polygon id="XMLID_1194_" class="st17" points="777.3,163.5 773.2,165.9 769.8,163.9 773.9,161.5 				"/>
				<polygon id="XMLID_1193_" class="st17" points="771.4,167 767.3,169.4 763.9,167.4 768,165 				"/>
				<polygon id="XMLID_1192_" class="st17" points="765.4,170.5 761.4,172.9 757.9,170.9 762,168.5 				"/>
				<polygon id="XMLID_1191_" class="st17" points="759.5,174 755.4,176.4 752,174.4 756.1,172 				"/>
				<polygon id="XMLID_1190_" class="st17" points="747.7,181 743.6,183.4 740.1,181.4 744.2,179 				"/>
				<polygon id="XMLID_1189_" class="st17" points="741.7,184.5 737.6,186.9 734.2,184.9 738.3,182.5 				"/>
				<polygon id="XMLID_1188_" class="st17" points="729.9,191.5 725.8,193.9 722.3,191.9 726.4,189.5 				"/>
				<polygon id="XMLID_1187_" class="st17" points="723.9,194.9 719.8,197.4 716.4,195.4 720.5,193 				"/>
				<polygon id="XMLID_1186_" class="st17" points="735.8,188 731.7,190.4 728.3,188.4 732.4,186 				"/>
				<polygon id="XMLID_1185_" class="st17" points="753.6,177.5 749.5,179.9 746.1,177.9 750.2,175.5 				"/>
			</g>
			<g>
				<polygon id="XMLID_1184_" class="st17" points="721,207.2 716.9,209.6 713.4,207.6 717.5,205.2 				"/>
				<polygon id="XMLID_1183_" class="st17" points="726.9,203.7 722.8,206.1 719.4,204.1 723.5,201.7 				"/>
				<polygon id="XMLID_1182_" class="st17" points="786.2,168.7 782.1,171.2 778.7,169.2 782.8,166.8 				"/>
				<polygon id="XMLID_1181_" class="st17" points="780.3,172.2 776.2,174.7 772.8,172.7 776.9,170.2 				"/>
				<polygon id="XMLID_1180_" class="st17" points="774.3,175.7 770.2,178.1 766.8,176.2 770.9,173.7 				"/>
				<polygon id="XMLID_1179_" class="st17" points="768.4,179.2 764.3,181.6 760.9,179.6 765,177.2 				"/>
				<polygon id="XMLID_1178_" class="st17" points="756.5,186.2 752.5,188.6 749,186.6 753.1,184.2 				"/>
				<polygon id="XMLID_1104_" class="st17" points="750.6,189.7 746.5,192.1 743.1,190.1 747.2,187.7 				"/>
				<polygon id="XMLID_1103_" class="st17" points="738.8,196.7 734.7,199.1 731.2,197.1 735.3,194.7 				"/>
				<polygon id="XMLID_1102_" class="st17" points="732.8,200.2 728.7,202.6 725.3,200.6 729.4,198.2 				"/>
				<polygon id="XMLID_1101_" class="st17" points="744.7,193.2 740.6,195.6 737.2,193.6 741.3,191.2 				"/>
				<polygon id="XMLID_1100_" class="st17" points="762.5,182.7 758.4,185.1 755,183.1 759.1,180.7 				"/>
			</g>
			<g>
				<polygon id="XMLID_1097_" class="st17" points="730.6,212.8 726.5,215.2 723,213.2 727.1,210.8 				"/>
				<polygon id="XMLID_1096_" class="st17" points="736.5,209.3 732.4,211.7 729,209.7 733.1,207.3 				"/>
				<polygon id="XMLID_1095_" class="st17" points="795.8,174.4 791.7,176.8 788.3,174.8 792.4,172.4 				"/>
				<polygon id="XMLID_1094_" class="st17" points="789.9,177.8 785.8,180.3 782.4,178.3 786.5,175.9 				"/>
				<polygon id="XMLID_1093_" class="st17" points="784,181.3 779.9,183.8 776.4,181.8 780.5,179.4 				"/>
				<polygon id="XMLID_1092_" class="st17" points="778,184.8 773.9,187.2 770.5,185.3 774.6,182.8 				"/>
				<polygon id="XMLID_1091_" class="st17" points="766.2,191.8 762.1,194.2 758.6,192.2 762.7,189.8 				"/>
				<polygon id="XMLID_1090_" class="st17" points="760.2,195.3 756.1,197.7 752.7,195.7 756.8,193.3 				"/>
				<polygon id="XMLID_1089_" class="st17" points="748.4,202.3 744.3,204.7 740.8,202.7 744.9,200.3 				"/>
				<polygon id="XMLID_1088_" class="st17" points="742.4,205.8 738.3,208.2 734.9,206.2 739,203.8 				"/>
				<polygon id="XMLID_1087_" class="st17" points="754.3,198.8 750.2,201.2 746.8,199.2 750.9,196.8 				"/>
				<polygon id="XMLID_1086_" class="st17" points="772.1,188.3 768,190.7 764.6,188.8 768.7,186.3 				"/>
			</g>
			<g>
				<polygon id="XMLID_1085_" class="st17" points="740.5,218.6 736.4,221 733,219 737.1,216.6 				"/>
				<polygon id="XMLID_1084_" class="st17" points="746.4,215.1 742.3,217.5 738.9,215.5 743,213.1 				"/>
				<polygon id="XMLID_1083_" class="st17" points="805.8,180.1 801.7,182.6 798.2,180.6 802.3,178.2 				"/>
				<polygon id="XMLID_1082_" class="st17" points="799.8,183.6 795.7,186 792.3,184.1 796.4,181.6 				"/>
				<polygon id="XMLID_1081_" class="st17" points="793.9,187.1 789.8,189.5 786.4,187.6 790.5,185.1 				"/>
				<polygon id="XMLID_1080_" class="st17" points="788,190.6 783.9,193 780.4,191 784.5,188.6 				"/>
				<polygon id="XMLID_1079_" class="st17" points="776.1,197.6 772,200 768.6,198 772.7,195.6 				"/>
				<polygon id="XMLID_1078_" class="st17" points="770.2,201.1 766.1,203.5 762.6,201.5 766.7,199.1 				"/>
				<polygon id="XMLID_1077_" class="st17" points="758.3,208.1 754.2,210.5 750.8,208.5 754.9,206.1 				"/>
				<polygon id="XMLID_1076_" class="st17" points="752.4,211.6 748.3,214 744.8,212 748.9,209.6 				"/>
				<polygon id="XMLID_1075_" class="st17" points="764.2,204.6 760.1,207 756.7,205 760.8,202.6 				"/>
				<polygon id="XMLID_1074_" class="st17" points="782,194.1 777.9,196.5 774.5,194.5 778.6,192.1 				"/>
			</g>
			<g>
				<polygon id="XMLID_1073_" class="st17" points="751,224.6 746.9,227.1 743.5,225.1 747.6,222.6 				"/>
				<polygon id="XMLID_1072_" class="st17" points="756.9,221.1 752.8,223.5 749.4,221.6 753.5,219.1 				"/>
				<polygon id="XMLID_1071_" class="st17" points="816.3,186.2 812.2,188.6 808.7,186.6 812.8,184.2 				"/>
				<polygon id="XMLID_1070_" class="st17" points="810.3,189.7 806.2,192.1 802.8,190.1 806.9,187.7 				"/>
				<polygon id="XMLID_1069_" class="st17" points="804.4,193.2 800.3,195.6 796.9,193.6 801,191.2 				"/>
				<polygon id="XMLID_1068_" class="st17" points="798.5,196.7 794.4,199.1 790.9,197.1 795,194.7 				"/>
				<polygon id="XMLID_1067_" class="st17" points="768.8,214.2 764.7,216.6 761.3,214.6 765.4,212.2 				"/>
				<polygon id="XMLID_1066_" class="st17" points="762.9,217.6 758.8,220.1 755.3,218.1 759.4,215.7 				"/>
				<polygon id="XMLID_1065_" class="st17" points="792.5,200.2 770.6,213.1 767.2,211.1 789.1,198.2 				"/>
			</g>
		</g>
		<g>
			<polygon class="st0" points="722.9,115.9 708.6,124.2 708.6,122.7 722.9,114.4 			"/>
			<polygon class="st0" points="740.9,144.1 708.6,162.8 708.6,161.3 740.9,142.7 			"/>
			<polygon class="st19" points="722.9,119.2 708.6,127.5 708.6,126 722.9,117.7 			"/>
			<polygon class="st22" points="729.7,122.5 708.6,134.7 708.6,133.2 729.7,121 			"/>
			<polygon class="st22" points="720.1,159.2 711.9,163.9 711.9,162.4 720.1,157.7 			"/>
			<polygon class="st3" points="733.5,151.4 721.2,158.5 721.2,157 733.5,149.9 			"/>
			<polygon class="st3" points="742,146.5 734.8,150.7 734.8,149.2 742,145 			"/>
			<polygon class="st3" points="750.5,141.6 743.2,145.8 743.2,144.3 750.5,140.1 			"/>
			<polygon class="st3" points="728.1,159.5 715.8,166.6 715.8,165.1 728.1,158 			"/>
			<polygon class="st3" points="736.6,154.5 729.4,158.7 729.4,157.2 736.6,153 			"/>
			<polygon class="st3" points="745.1,149.6 737.8,153.8 737.8,152.3 745.1,148.2 			"/>
			<polygon class="st19" points="722.5,129.7 715.8,133.6 715.8,132.1 722.5,128.2 			"/>
			<polygon class="st19" points="722.5,141.7 715.8,145.5 715.8,144.1 722.5,140.2 			"/>
			<polygon class="st19" points="715.3,155.1 708.6,159 708.6,157.5 715.3,153.6 			"/>
			<polygon class="st19" points="749.9,138.9 743.2,142.8 743.2,141.3 749.9,137.4 			"/>
			<polygon class="st30" points="752.5,109.3 731.5,121.5 731.5,120 752.5,107.8 			"/>
			<polygon class="st30" points="735.2,125.4 722.9,132.5 722.9,131 735.2,123.9 			"/>
			<polygon class="st19" points="722.5,167.8 715.8,171.6 715.8,170.2 722.5,166.3 			"/>
			<polygon class="st22" points="735.2,163.4 722.9,170.5 722.9,169 735.2,162 			"/>
			<polygon class="st30" points="743.1,158.8 736.4,162.7 736.4,161.2 743.1,157.4 			"/>
			<polygon class="st30" points="744,123.3 722.9,135.4 722.9,133.9 744,121.8 			"/>
			<polygon class="st30" points="742.4,127.2 722.9,138.4 722.9,136.9 742.4,125.7 			"/>
		</g>
	</g>
	<g>
		<text transform="matrix(1 0 0 1 479.2846 178.5549)" class="st19 st44 st46">5</text>
	</g>
	<circle class="st34" cx="486.1" cy="369.6" r="12.5"/>
	<g>
		<text transform="matrix(1 0 0 1 482.2846 375.4106)" class="st19 st44 st46">1</text>
	</g>
	<g>
		<path class="st18" d="M648.9,403.6l-108.9-64c-3.7-2.2-6-6.1-6-10.4c0-4.3,2.3-8.2,6-10.4l153.2-90l4.1,2.4l-155.4,91.1
			c-2.5,1.5-4,4-4,6.9c0,2.9,1.5,5.5,4,6.9l108.9,64L648.9,403.6z"/>
	</g>
	<polygon class="st18" points="652.9,396.8 666.7,412.4 639.8,404.5 	"/>
	<circle class="st34" cx="658" cy="273.5" r="12.5"/>
	<g>
		<text transform="matrix(1 0 0 1 653.1733 279.3741)" class="st19 st44 st46">6</text>
	</g>
	<g>
		<polygon class="st18" points="583.2,459.7 388.3,347.3 390.3,343.8 587.3,457.4 		"/>
	</g>
	<polygon class="st18" points="387.2,351.3 373.5,335.7 400.4,343.6 	"/>
	<circle class="st34" cx="438.3" cy="397.2" r="12.5"/>
	<g>
		<text transform="matrix(1 0 0 1 431.5073 403.089)" class="st19 st44 st46">4</text>
	</g>
	<g>
		<polygon class="st18" points="523.2,478.6 325.1,364.3 329.1,362 527.2,476.3 		"/>
	</g>
	<polygon class="st18" points="525.7,469.6 539.5,485.2 512.6,477.3 	"/>
	<circle class="st34" cx="393.5" cy="423.8" r="12.5"/>
	<g>
		<text transform="matrix(1 0 0 1 389.7299 429.6891)" class="st19 st44 st46">7</text>
	</g>
	<g>
		<path class="st18" d="M824.6,462.1l-9.4,1l201.4-117.2c2.5-1.4,4-4,4-6.9c0-2.9-1.5-5.5-4-6.9l-151.9-86.3l4.1-2.3l150.1,85.3
			c3.5,2,5.7,5.9,5.7,10.3c0,4.3-2.3,8.2-6,10.4L824.6,462.1z"/>
	</g>
	<polygon class="st18" points="818.4,455.5 806.2,470.7 832.6,463.3 	"/>
	<g>
		<path class="st18" d="M765.8,447.8l-3.4-2.3L913.2,358c2.5-1.4,4-4,4-6.9c0-2.9-1.5-5.5-4-6.9l-96.1-56.3l2-3.5l96.1,56.3
			c3.7,2.2,6,6.1,6,10.4c0,4.3-2.3,8.2-6,10.4L765.8,447.8z"/>
	</g>
	<polygon class="st18" points="820.7,295.3 807.4,279.9 833.8,287.6 	"/>
	<circle class="st34" cx="821.3" cy="386.9" r="12.5"/>
	<g>
		<text transform="matrix(1 0 0 1 816.5355 392.7393)" class="st19 st44 st46">2</text>
	</g>
	<circle class="st34" cx="907.2" cy="436.1" r="12.5"/>
	<g>
		<text transform="matrix(1 0 0 1 902.397 441.9359)" class="st19 st44 st46">3</text>
	</g>
</g>
</svg>
