<svg xmlns="http://www.w3.org/2000/svg" xmlns:xlink="http://www.w3.org/1999/xlink" width="145" height="42" viewBox="0 0 145 42">
    <defs>
        <path id="a" d="M144.874.073H0V26.98h144.874V.073z"/>
    </defs>
    <g fill="none" fill-rule="evenodd">
        <g transform="translate(0 .086)">
            <mask id="b" fill="#fff">
                <use xlink:href="#a"/>
            </mask>
            <path fill="#213D8F" d="M144.238 17.185c-.794 1.829-2.01 3.336-3.527 4.36-1.45 1.013-3.198 1.549-5.05 1.549-5.14 0-9.321-4.193-9.321-9.348 0-5.207 4.153-9.442 9.258-9.442 2.574 0 4.915.963 6.593 2.71 2.092 2.161 2.967 4.88 2.602 8.08l-.02.181h-13.855c.292 2.532 2.597 3.879 4.706 3.879 1.717-.001 3.04-.67 3.874-1.969h4.74zm-8.606-8.972c-2.845 0-4.38 1.976-4.643 3.5h9.311c-.271-1.506-1.843-3.523-4.668-3.5zM121.53 6.547c0-.943-.762-1.707-1.703-1.707h-2.603v17.718h4.527V13.02c0-2.829 1.323-4.146 4.165-4.146h.393V4.3l-.206.003c-2.061.025-3.596.779-4.573 2.243zm-12.478 8.05c0 2.793-1.264 4.21-3.76 4.21h-.064c-1.052 0-1.874-.285-2.44-.847-.715-.709-1.062-1.85-1.062-3.489V4.84h-4.527v10.672c0 6.563 4.342 7.567 6.93 7.582h.1c2.725 0 4.24-1.152 5.074-2.324v.08c0 .943.763 1.708 1.703 1.708h2.573V4.84h-4.527v9.758zM87.8.074V4.84h-2.86v3.593h2.86v14.125h4.527V8.433h2.955V4.84h-2.955V.073H87.8zm-12.714 4.23c5.768 0 8.787 4.799 8.787 9.538 0 5.275-3.764 9.253-8.756 9.253-3.186 0-4.912-1.491-5.675-2.415v6.3h-4.527V4.84h2.572c.941 0 1.703.765 1.703 1.708v.419c1.433-1.722 3.504-2.662 5.896-2.662zm4.26 9.38c0-2.484-1.78-5.123-5.078-5.123-1.395 0-2.638.523-3.594 1.513-.917.95-1.42 2.255-1.42 3.673 0 1.389.514 2.67 1.448 3.607a5.043 5.043 0 0 0 3.597 1.485c2.877 0 5.047-2.203 5.047-5.123v-.032zM56.712 6.547c0-.943.762-1.707 1.703-1.707h2.823v17.718h-2.823c-.94 0-1.703-.765-1.703-1.708v-.287c-1.172 1.597-3.216 2.531-5.612 2.531-5.893 0-8.976-4.734-8.976-9.411 0-5.347 3.858-9.379 8.976-9.379 2.742 0 4.621 1.238 5.612 2.568v-.325zm-.607 9.63c.364-.675.572-1.442.639-2.351a5.163 5.163 0 0 0-.454-2.328c-.39-.885-1.62-2.938-4.624-2.938-3.258 0-5.016 2.672-5.016 5.186v.032c0 1.956 1.37 5.06 5.047 5.06 1.986 0 3.552-.945 4.408-2.661zm-20.343-.212c-.38.854-1.573 2.842-4.467 2.842-2.833 0-4.889-2.155-4.889-5.124 0-1.427.496-2.778 1.353-3.7 1.03-1 2.157-1.454 3.536-1.424 2.054 0 3.722 1.12 4.463 2.993l.051.129h4.61l-.06-.252c-1.014-4.262-4.72-7.125-9.221-7.125-5.21 0-9.29 4.12-9.29 9.38 0 5.276 4.15 9.41 9.447 9.41 4.361 0 8.004-2.811 9.063-6.996l.065-.255h-4.608l-.053.122zM19.114 4.84v17.718H16.29c-.94 0-1.702-.765-1.702-1.708v-.287c-1.172 1.597-3.216 2.53-5.613 2.53C3.083 23.094 0 18.36 0 13.684c0-5.347 3.859-9.379 8.975-9.379 2.743 0 4.623 1.238 5.613 2.568v-.325c0-.943.762-1.707 1.702-1.707h2.824zM9.58 18.925c2.86 0 5.178-2.325 5.178-5.193a5.186 5.186 0 0 0-1.939-4.047 4.617 4.617 0 0 0-1.602-.876c-.051-.017-.102-.035-.153-.05l-.042-.01A5.16 5.16 0 0 0 9.58 8.54c-.396 0-.78.049-1.151.133-.086.018-.167.043-.25.065-.055.015-.11.028-.164.045-.49.148-.93.365-1.32.637l-.022.015c-.083.06-.165.12-.244.184a5.184 5.184 0 0 0-2.027 4.113 5.186 5.186 0 0 0 5.178 5.193zm2.059-5.352a2.066 2.066 0 0 1-2.063 2.069 2.066 2.066 0 0 1-2.063-2.069c0-1.142.924-2.068 2.063-2.068 1.139 0 2.063.926 2.063 2.068z" mask="url(#b)"/>
        </g>
        <path fill="#213D8F" d="M0 39.954h.994v-.937c.348.648 1.064 1.096 1.988 1.096 1.55 0 2.784-1.146 2.784-2.89 0-1.805-1.342-2.852-2.744-2.852-.696.01-1.491.32-1.988 1.027V32.577H0v7.377zm4.732-2.712c-.01.937-.666 1.904-1.899 1.904-1.104 0-1.839-.877-1.839-1.914 0-1.026.755-1.894 1.869-1.894 1.063 0 1.869.837 1.869 1.894v.01zm3.012 4.685h1.103l2.952-7.396h-1.113l-1.511 3.967-1.491-3.967H6.571l2.067 5.263-.894 2.133zm8.866 0h1.034v-2.871c.239.439.905 1.057 2.028 1.057 1.62 0 2.723-1.306 2.723-2.841 0-1.346-.874-2.9-2.733-2.9-.964 0-1.66.458-2.068 1.106v-.947h-.984v7.396zm4.742-4.685c0 1.057-.786 1.904-1.879 1.904a1.89 1.89 0 0 1-1.342-.548 1.875 1.875 0 0 1-.537-1.346c0-.538.2-1.017.527-1.355a1.84 1.84 0 0 1 1.342-.559c1.262 0 1.889 1.007 1.889 1.894v.01zm8.2-2.711H28.52v.957c-.249-.519-.935-1.117-2.008-1.117-1.571 0-2.774 1.217-2.774 2.871 0 1.515 1.034 2.87 2.774 2.87.855 0 1.63-.378 2.008-1.105v.947h1.034V34.53zm-4.781 2.721c0-1.017.736-1.914 1.869-1.914.865 0 1.471.489 1.73 1.117.119.249.169.528.159.807a2.05 2.05 0 0 1-.19.808c-.268.618-.854 1.076-1.68 1.076-1.311 0-1.878-1.076-1.888-1.884v-.01zm7.177 4.675h1.104l2.952-7.396H34.89l-1.511 3.967-1.491-3.967h-1.114l2.068 5.263-.895 2.133zm9.94-7.396h-1.083l-1.501 4.127-1.501-4.127h-1.084l2.068 5.423h1.034l2.067-5.423zm1.382-.858h1.034v-1.096H43.27v1.096zm0 6.28h1.034v-5.422H43.27v5.423zm6.391-4.007c-.08-1.206-1.053-1.575-1.799-1.575-.984 0-1.819.618-1.819 1.645.01.817.607 1.176 1.362 1.406.965.319 1.372.498 1.382 1.036 0 .459-.388.808-.885.808-.388 0-.914-.22-.954-.877h-1.024c.05 1.236 1.113 1.724 1.968 1.724 1.074 0 1.948-.718 1.929-1.774-.03-1.167-.935-1.406-1.76-1.635-.576-.16-.964-.36-.984-.788-.01-.358.268-.697.776-.697.526-.01.785.308.785.727h1.023zm1.82-2.273h1.033v-1.096H51.48v1.096zm0 6.28h1.033v-5.422H51.48v5.423zm2.673-2.71c0 1.455 1.064 2.86 2.883 2.86 1.82 0 2.883-1.405 2.883-2.86 0-1.456-1.064-2.872-2.883-2.872-1.82 0-2.883 1.416-2.883 2.861v.01zm1.034 0c0-1.088.815-1.895 1.849-1.895s1.849.807 1.849 1.894c0 1.087-.815 1.894-1.85 1.894-1.033 0-1.848-.807-1.848-1.884v-.01zm6.382 2.71h1.034v-3.02c0-.937.467-1.575 1.48-1.585 1.054-.01 1.432.688 1.432 1.665v2.94h1.044v-3.18c0-1.126-.457-2.382-2.187-2.402-.964-.01-1.57.439-1.83.997v-.837h-.973v5.423z"/>
    </g>
</svg>
