<svg width="79" height="79" viewBox="0 0 79 79" xmlns="http://www.w3.org/2000/svg" xmlns:xlink="http://www.w3.org/1999/xlink"><title>A7209593-9F1D-4BA0-9F49-4DD55F281719</title><defs><path id="a" d="M.001 78.548h78.547V0H.001v78.548z"/></defs><g transform="translate(-.02)" fill="none" fill-rule="evenodd"><mask id="b" fill="#fff"><use xlink:href="#a"/></mask><path d="M60.2 72.389c-6.854 0-11.284-3.268-13.445-7.54l6.012-3.48c1.58 2.584 3.637 4.483 7.273 4.483 3.06 0 5.012-1.53 5.012-3.64 0-2.53-2.005-3.426-5.38-4.903l-1.844-.792c-5.325-2.265-8.858-5.111-8.858-11.124 0-5.536 4.216-9.755 10.808-9.755 4.694 0 8.067 1.635 10.492 5.907l-5.746 3.691c-1.266-2.268-2.636-3.164-4.746-3.164-2.162 0-3.533 1.37-3.533 3.164 0 2.214 1.371 3.11 4.535 4.48l1.845.793c6.274 2.689 9.807 5.429 9.807 11.6 0 6.643-5.22 10.28-12.231 10.28zM42.747 61.263c0 7.646-4.482 11.126-11.02 11.126-5.906 0-9.332-3.057-11.073-6.749l6.01-3.637c1.162 2.055 2.217 3.796 4.747 3.796 2.425 0 3.954-.95 3.954-4.64V36.063h7.382v25.201zM0 78.55H78.55V0H.001V78.55z" fill="#36509A" mask="url(#b)"/></g></svg>