<svg id="Layer_1" data-name="Layer 1" xmlns="http://www.w3.org/2000/svg" viewBox="0 0 177 305"><defs><style>.cls-1{fill:#36509a;}</style></defs><title>java</title><path class="cls-1" d="M162.81,235.88h-1.1v-.62h3v.62h-1.09v3.07h-.77Zm5.91.16h0l-1.09,2.91h-.5L166,236h0v2.91h-.72v-3.68h1.07l1,2.61,1-2.61h1.06v3.68h-.71V236Z"/><path class="cls-1" d="M64.36,160.53s-7.65,4.45,5.45,6c15.87,1.81,24,1.55,41.46-1.76a72.25,72.25,0,0,0,11,5.38c-39.2,16.8-88.71-1-57.92-9.58"/><path class="cls-1" d="M59.57,138.61S51,145,64.1,146.32c16.95,1.75,30.33,1.89,53.49-2.57a23.75,23.75,0,0,0,8.24,5c-47.39,13.86-100.17,1.09-66.26-10.16"/><path class="cls-1" d="M99.95,101.42c9.66,11.12-2.54,21.13-2.54,21.13S121.93,109.89,110.67,94c-10.52-14.78-18.58-22.13,25.08-47.45,0,0-68.54,17.12-35.81,54.84"/><path class="cls-1" d="M151.79,176.74s5.66,4.67-6.24,8.27c-22.62,6.85-94.16,8.92-114,.27-7.14-3.11,6.25-7.42,10.47-8.33a27.16,27.16,0,0,1,6.91-.78c-7.94-5.6-51.35,11-22,15.74,79.92,13,145.68-5.84,124.95-15.19"/><path class="cls-1" d="M68,115.9s-36.39,8.64-12.89,11.78c9.92,1.33,29.71,1,48.13-.52,15.06-1.27,30.18-4,30.18-4a63.89,63.89,0,0,0-9.15,4.9c-37,9.72-108.34,5.2-87.79-4.74C53.91,114.94,68,115.9,68,115.9"/><path class="cls-1" d="M133.32,152.38c37.57-19.52,20.2-38.28,8.07-35.75a28.1,28.1,0,0,0-4.3,1.15,6.85,6.85,0,0,1,3.21-2.48c24-8.43,42.43,24.87-7.74,38.06a3.25,3.25,0,0,0,.75-1"/><path class="cls-1" d="M110.67,5.69S131.48,26.5,90.94,58.5c-32.5,25.67-7.41,40.31,0,57C72,98.41,58,83.34,67.37,69.31c13.71-20.59,51.7-30.57,43.3-63.63"/><path class="cls-1" d="M71.73,205.28c36.06,2.31,91.43-1.28,92.74-18.34,0,0-2.52,6.47-29.8,11.6-30.78,5.79-68.73,5.12-91.25,1.4,0,0,4.61,3.81,28.31,5.33"/><path class="cls-1" d="M65.82,270.47c-3.4,3-7,4.61-10.22,4.61-4.6,0-7.09-2.76-7.09-7.19,0-4.79,2.66-8.29,13.35-8.29h4v10.87m9.39,10.59V248.28c0-8.37-4.78-13.9-16.29-13.9a42.91,42.91,0,0,0-17.4,3.78L42.9,244a40.44,40.44,0,0,1,13.43-2.67c6.63,0,9.49,2.67,9.49,8.19v4.14H62.51c-16.12,0-23.39,6.26-23.39,15.65,0,8.1,4.79,12.71,13.81,12.71,5.8,0,10.13-2.39,14.17-5.9l.73,5h7.36Z"/><path class="cls-1" d="M106.53,281.06H94.83L80.74,235.21H91l8.74,28.17,1.94,8.47a176.09,176.09,0,0,0,9.12-36.64h9.94c-2.66,15.1-7.46,31.67-14.17,45.85"/><path class="cls-1" d="M151.44,270.47c-3.41,3-7,4.61-10.23,4.61-4.59,0-7.09-2.76-7.09-7.19,0-4.79,2.67-8.29,13.36-8.29h4v10.87m9.38,10.59V248.28c0-8.37-4.79-13.9-16.29-13.9a42.91,42.91,0,0,0-17.4,3.78l1.38,5.8A40.51,40.51,0,0,1,142,241.29c6.63,0,9.49,2.67,9.49,8.19v4.14h-3.32c-16.12,0-23.39,6.26-23.39,15.65,0,8.1,4.79,12.71,13.81,12.71,5.8,0,10.13-2.39,14.18-5.9l.74,5h7.36Z"/><path class="cls-1" d="M28.83,288.85a24.67,24.67,0,0,1-11.73,8.75l-4.63-5.45a19.45,19.45,0,0,0,8.12-7.61c1.24-2.47,1.76-5.66,1.76-13.28V218.91h10v51.63c0,10.19-.82,14.3-3.49,18.31"/></svg>