<svg width="586" height="436" viewBox="0 0 586 436" xmlns="http://www.w3.org/2000/svg" xmlns:xlink="http://www.w3.org/1999/xlink"><title>8926895B-063D-4369-8EA7-9F630CFFAF60</title><defs><path id="a" d="M3.303.283v2.83H.472V.284h2.831z"/></defs><g fill="none" fill-rule="evenodd"><path fill="#E8ECF3" d="M430.103 94.725l-34.676 20.014V32.46l34.676-20.048z"/><path fill="#909EC7" d="M395.427 114.739l-21.422-12.441V19.972l21.422 12.489z"/><path fill="#BCC4DD" d="M408.675 0l-34.67 20.07 21.422 12.391 34.676-20.047z"/><path fill="#213D8F" d="M418.847 33.157l-20.604 11.892v-4.14l20.604-11.927z"/><path fill="#9CC939" d="M428.009 27.896l-5.892 3.373v-4.14l5.892-3.408z"/><path fill="#213D8F" d="M418.847 42.144l-20.604 11.892v-4.14l20.604-11.927z"/><path fill="#E97876" d="M428.009 36.883l-5.892 3.372v-4.14l5.892-3.407z"/><path fill="#213D8F" d="M418.847 51.131l-20.604 11.891v-4.139l20.604-11.927z"/><path fill="#9CC939" d="M428.009 45.87l-5.892 3.372v-4.14l5.892-3.407z"/><path fill="#213D8F" d="M418.847 60.118L398.243 72.01V67.87l20.604-11.927z"/><path fill="#E97876" d="M428.009 54.857l-5.892 3.372V54.09l5.892-3.408z"/><path fill="#213D8F" d="M418.847 69.105l-20.604 11.891v-4.139l20.604-11.927z"/><path fill="#9CC939" d="M428.009 63.844l-5.892 3.372v-4.14l5.892-3.407z"/><path fill="#213D8F" d="M418.847 78.091l-20.604 11.892v-4.14l20.604-11.926z"/><path fill="#E97876" d="M428.009 72.83l-5.892 3.373v-4.14l5.892-3.407z"/><path fill="#213D8F" d="M418.847 87.079L398.243 98.97v-4.14l20.604-11.926z"/><path fill="#9CC939" d="M428.009 81.818l-5.892 3.372v-4.14l5.892-3.407z"/><path d="M542.18 139.082a1.417 1.417 0 1 0 1.416 1.416c0-.781-.635-1.416-1.416-1.416M549.152 139.953c-.781 0-1.417.635-1.417 1.416 0 .78.636 1.415 1.417 1.415.78 0 1.415-.635 1.415-1.415s-.636-1.416-1.415-1.416M556.34 142.007c-.78 0-1.416.635-1.416 1.417 0 .78.636 1.414 1.416 1.414.78 0 1.416-.635 1.416-1.414 0-.782-.636-1.417-1.416-1.417M562.938 144.963a1.417 1.417 0 1 0 1.416 1.416c0-.78-.636-1.416-1.416-1.416M569.069 149.29c-.781 0-1.417.634-1.417 1.415a1.417 1.417 0 0 0 2.832 0c0-.781-.635-1.416-1.415-1.416M574.08 154.517c-.781 0-1.417.635-1.417 1.416a1.417 1.417 0 0 0 2.832 0c0-.781-.635-1.416-1.416-1.416M578.374 160.523c-.78 0-1.416.635-1.416 1.416 0 .78.635 1.415 1.416 1.415.78 0 1.416-.635 1.416-1.415 0-.781-.636-1.416-1.416-1.416M581.517 167.09c-.78 0-1.416.635-1.416 1.415s.636 1.416 1.416 1.416c.78 0 1.416-.635 1.416-1.416 0-.78-.636-1.415-1.416-1.415M542.18 146.208c-.78 0-1.416.635-1.416 1.416a1.417 1.417 0 0 0 2.832 0c0-.781-.635-1.416-1.416-1.416M535.147 146.893c-.78 0-1.416.635-1.416 1.416 0 .78.635 1.415 1.416 1.415.78 0 1.416-.635 1.416-1.415 0-.781-.636-1.416-1.416-1.416M534.742 154.175c-.78 0-1.416.635-1.416 1.415s.636 1.416 1.416 1.416c.78 0 1.417-.635 1.417-1.416 0-.78-.636-1.415-1.417-1.415M527.895 157.007c-.78 0-1.415.635-1.415 1.416a1.417 1.417 0 0 0 2.832 0c0-.781-.636-1.416-1.417-1.416M522.107 161.503c-.78 0-1.416.635-1.416 1.416a1.417 1.417 0 0 0 2.831 0c0-.781-.634-1.416-1.415-1.416M517.558 167.525c-.781 0-1.417.635-1.417 1.416 0 .78.636 1.415 1.417 1.415.78 0 1.415-.635 1.415-1.415 0-.781-.636-1.416-1.415-1.416M535.536 161.28c-.78 0-1.416.635-1.416 1.416 0 .78.635 1.415 1.416 1.415.78 0 1.415-.635 1.415-1.415s-.635-1.416-1.415-1.416M529.545 164.258c-.78 0-1.416.634-1.416 1.415 0 .78.636 1.416 1.416 1.416.78 0 1.416-.635 1.416-1.416 0-.781-.636-1.415-1.416-1.415M524.97 168.956a1.417 1.417 0 0 0 0 2.831c.78 0 1.416-.635 1.416-1.414 0-.782-.635-1.417-1.416-1.417M534.935 169.205c-.78 0-1.416.635-1.416 1.416 0 .78.636 1.416 1.416 1.416.78 0 1.416-.635 1.416-1.416 0-.781-.636-1.416-1.416-1.416M528.518 148.947c-.78 0-1.416.635-1.416 1.415s.635 1.416 1.416 1.416c.78 0 1.416-.635 1.416-1.416 0-.78-.636-1.415-1.416-1.415M522.496 152.307a1.417 1.417 0 0 0 0 2.831c.78 0 1.416-.635 1.416-1.414 0-.782-.635-1.417-1.416-1.417M517.081 156.602c-.78 0-1.416.635-1.416 1.416 0 .78.635 1.415 1.416 1.415.78 0 1.416-.635 1.416-1.415s-.636-1.416-1.416-1.416M512.678 161.97c-.781 0-1.417.635-1.417 1.416 0 .78.636 1.415 1.417 1.415.78 0 1.415-.635 1.415-1.415s-.636-1.416-1.415-1.416M509.528 167.945c-.78 0-1.416.635-1.416 1.416 0 .78.635 1.415 1.416 1.415a1.417 1.417 0 0 0 0-2.831M542.18 153.273c-.78 0-1.416.634-1.416 1.415a1.417 1.417 0 0 0 2.832 0c0-.78-.635-1.415-1.416-1.415M542.18 160.336c-.78 0-1.416.635-1.416 1.417a1.417 1.417 0 0 0 2.832 0c0-.782-.635-1.417-1.416-1.417M542.18 167.338c-.78 0-1.416.635-1.416 1.416a1.417 1.417 0 0 0 2.832 0c0-.78-.635-1.416-1.416-1.416M542.18 181.342c-.78 0-1.416.635-1.416 1.416a1.417 1.417 0 0 0 2.832 0c0-.781-.635-1.416-1.416-1.416M535.147 181.342a1.417 1.417 0 1 0 1.416 1.416c0-.781-.636-1.416-1.416-1.416M528.082 181.342a1.417 1.417 0 1 0 1.416 1.416c0-.781-.635-1.416-1.416-1.416M521.018 181.342c-.78 0-1.416.635-1.416 1.416a1.417 1.417 0 0 0 2.832 0c0-.781-.636-1.416-1.416-1.416M513.954 181.342c-.781 0-1.417.635-1.417 1.416a1.417 1.417 0 0 0 2.832 0c0-.781-.636-1.416-1.415-1.416M506.951 181.342a1.417 1.417 0 1 0 1.416 1.416c0-.781-.635-1.416-1.416-1.416M499.886 181.342c-.78 0-1.415.635-1.415 1.416a1.417 1.417 0 0 0 2.832 0c0-.781-.636-1.416-1.417-1.416M549.213 181.342c-.78 0-1.416.635-1.416 1.416a1.417 1.417 0 0 0 2.832 0c0-.781-.635-1.416-1.416-1.416M556.153 181.342a1.417 1.417 0 1 0 1.416 1.416c0-.781-.635-1.416-1.416-1.416M563.187 181.342c-.781 0-1.417.635-1.417 1.416a1.417 1.417 0 0 0 2.833 0c0-.781-.636-1.416-1.416-1.416M570.158 181.342a1.417 1.417 0 1 0 1.416 1.416c0-.781-.636-1.416-1.416-1.416M545.479 175.367c-.78 0-1.416.635-1.416 1.416 0 .78.636 1.415 1.416 1.415.78 0 1.416-.635 1.416-1.415s-.636-1.416-1.416-1.416M549.152 169.205c-.781 0-1.417.635-1.417 1.416 0 .78.636 1.416 1.417 1.416.78 0 1.415-.635 1.415-1.416 0-.781-.636-1.416-1.415-1.416M548.591 161.28c-.78 0-1.416.635-1.416 1.416 0 .78.636 1.415 1.416 1.415.78 0 1.416-.635 1.416-1.415s-.636-1.416-1.416-1.416M554.13 174.496c-.78 0-1.416.635-1.416 1.415s.636 1.416 1.417 1.416c.78 0 1.415-.635 1.415-1.416 0-.78-.635-1.415-1.415-1.415M562.004 175.18c-.78 0-1.416.635-1.416 1.416 0 .78.636 1.415 1.416 1.415.78 0 1.416-.635 1.416-1.415 0-.781-.636-1.416-1.416-1.416M558.97 169.205c-.78 0-1.416.635-1.416 1.416 0 .78.635 1.416 1.416 1.416.78 0 1.416-.635 1.416-1.416 0-.781-.636-1.416-1.416-1.416M554.473 164.444c-.78 0-1.416.635-1.416 1.416 0 .78.635 1.415 1.416 1.415.78 0 1.416-.635 1.416-1.415s-.636-1.416-1.416-1.416M549.058 154.175c-.78 0-1.416.635-1.416 1.415s.635 1.416 1.416 1.416c.78 0 1.416-.635 1.416-1.416 0-.78-.636-1.415-1.416-1.415M548.824 146.893c-.78 0-1.415.635-1.415 1.416 0 .78.635 1.415 1.415 1.415s1.416-.635 1.416-1.415c0-.781-.635-1.416-1.416-1.416M555.236 148.947c-.78 0-1.417.635-1.417 1.415s.636 1.416 1.417 1.416c.78 0 1.415-.635 1.415-1.416 0-.78-.635-1.415-1.415-1.415M555.998 157.007c-.78 0-1.416.635-1.416 1.416 0 .78.636 1.415 1.416 1.415.78 0 1.416-.635 1.416-1.415 0-.781-.636-1.416-1.416-1.416M561.413 152.307c-.78 0-1.416.635-1.416 1.417 0 .78.636 1.414 1.416 1.414.78 0 1.416-.635 1.416-1.414 0-.782-.636-1.417-1.416-1.417M566.672 156.602c-.78 0-1.415.635-1.415 1.416 0 .78.635 1.415 1.415 1.415s1.416-.635 1.416-1.415-.635-1.416-1.416-1.416M561.77 161.503c-.78 0-1.415.635-1.415 1.416a1.417 1.417 0 0 0 2.831 0c0-.781-.635-1.416-1.415-1.416M566.252 167.338c-.78 0-1.416.635-1.416 1.416 0 .78.636 1.415 1.416 1.415.78 0 1.416-.635 1.416-1.415s-.636-1.416-1.416-1.416M571.247 161.97c-.78 0-1.416.635-1.416 1.416 0 .78.636 1.415 1.416 1.415.78 0 1.416-.635 1.416-1.415s-.636-1.416-1.416-1.416M574.39 167.945c-.78 0-1.416.635-1.416 1.416 0 .78.636 1.415 1.416 1.415.78 0 1.416-.635 1.416-1.415 0-.781-.635-1.416-1.416-1.416M569.1 174.153c-.781 0-1.416.635-1.416 1.416 0 .78.635 1.416 1.416 1.416.78 0 1.415-.635 1.415-1.416 0-.78-.635-1.416-1.415-1.416M576.257 174.744a1.417 1.417 0 1 0 1.416 1.416c0-.78-.635-1.416-1.416-1.416M583.54 174.153c-.78 0-1.416.635-1.416 1.416 0 .78.635 1.416 1.416 1.416.78 0 1.415-.635 1.415-1.416 0-.78-.635-1.416-1.415-1.416" fill="#253F8D"/><g transform="translate(582.337 181.059)"><mask id="b" fill="#fff"><use xlink:href="#a"/></mask><path d="M1.888.283a1.417 1.417 0 1 0 1.416 1.416c0-.781-.636-1.416-1.416-1.416" fill="#253F8D" mask="url(#b)"/></g><path d="M583.384 188.81c-.78 0-1.416.636-1.416 1.416 0 .78.636 1.416 1.416 1.416.78 0 1.416-.635 1.416-1.416 0-.78-.636-1.415-1.416-1.415M576.444 188.22c-.78 0-1.416.634-1.416 1.415 0 .78.636 1.415 1.416 1.415.78 0 1.416-.635 1.416-1.415 0-.781-.635-1.416-1.416-1.416M569.286 188.468c-.78 0-1.416.635-1.416 1.416 0 .78.636 1.415 1.416 1.415.78 0 1.416-.635 1.416-1.415 0-.781-.635-1.416-1.416-1.416M562.004 188.001c-.78 0-1.416.635-1.416 1.416 0 .78.636 1.415 1.416 1.415.78 0 1.416-.635 1.416-1.415s-.636-1.416-1.416-1.416M554.13 188.468c-.78 0-1.416.635-1.416 1.416a1.417 1.417 0 0 0 2.832 0c0-.781-.635-1.416-1.415-1.416M548.809 193.634c-.78 0-1.416.635-1.416 1.416 0 .78.636 1.415 1.416 1.415.78 0 1.416-.635 1.416-1.415s-.636-1.416-1.416-1.416M558.97 193.867c-.78 0-1.416.635-1.416 1.416a1.417 1.417 0 0 0 2.832 0c0-.781-.636-1.416-1.416-1.416M566.423 195.314c-.78 0-1.416.635-1.416 1.416 0 .78.636 1.415 1.416 1.415.78 0 1.416-.635 1.416-1.415s-.635-1.416-1.416-1.416M574.39 194.816c-.78 0-1.416.635-1.416 1.416 0 .78.636 1.415 1.416 1.415.78 0 1.416-.635 1.416-1.415s-.635-1.416-1.416-1.416M581.517 195.734c-.78 0-1.416.635-1.416 1.416 0 .78.636 1.415 1.416 1.415.78 0 1.416-.634 1.416-1.415 0-.78-.636-1.416-1.416-1.416M578.312 202.285c-.781 0-1.417.635-1.417 1.416a1.417 1.417 0 0 0 2.832 0c0-.781-.635-1.416-1.415-1.416M574.204 208.493c-.78 0-1.416.635-1.416 1.416 0 .78.635 1.415 1.416 1.415.78 0 1.415-.634 1.415-1.415 0-.78-.635-1.416-1.415-1.416M571.154 200.932c-.781 0-1.417.634-1.417 1.415a1.417 1.417 0 0 0 2.833 0c0-.781-.636-1.415-1.416-1.415M562.004 201.258c-.78 0-1.416.635-1.416 1.416 0 .78.636 1.415 1.416 1.415.78 0 1.416-.635 1.416-1.415s-.636-1.416-1.416-1.416M566.719 206.252c-.78 0-1.416.635-1.416 1.417 0 .78.636 1.414 1.416 1.414.78 0 1.416-.634 1.416-1.414 0-.782-.636-1.417-1.416-1.417M554.286 198.55c-.78 0-1.416.636-1.416 1.416 0 .78.636 1.416 1.416 1.416.78 0 1.416-.635 1.416-1.416 0-.78-.636-1.415-1.416-1.415M548.311 201.585c-.78 0-1.416.635-1.416 1.416a1.417 1.417 0 0 0 2.831 0c0-.781-.634-1.416-1.415-1.416M549.213 208.493c-.78 0-1.416.635-1.416 1.416 0 .78.636 1.415 1.416 1.415.78 0 1.416-.634 1.416-1.415 0-.78-.635-1.416-1.416-1.416M555.998 205.646c-.78 0-1.416.635-1.416 1.415 0 .781.636 1.416 1.416 1.416.78 0 1.416-.635 1.416-1.416 0-.78-.636-1.415-1.416-1.415M561.532 210.597a1.417 1.417 0 1 0 1.416 1.416c0-.78-.635-1.416-1.416-1.416M568.861 213.631c-.78 0-1.416.635-1.416 1.417 0 .78.636 1.414 1.416 1.414.78 0 1.416-.635 1.416-1.414 0-.782-.635-1.417-1.416-1.417M562.984 217.856c-.78 0-1.416.635-1.416 1.416 0 .78.636 1.415 1.416 1.415.781 0 1.417-.635 1.417-1.415 0-.781-.636-1.416-1.417-1.416M556.356 221.03c-.78 0-1.416.635-1.416 1.416 0 .78.635 1.415 1.416 1.415.78 0 1.415-.635 1.415-1.415 0-.781-.635-1.416-1.415-1.416M549.213 222.897c-.78 0-1.416.635-1.416 1.416 0 .78.636 1.415 1.416 1.415.78 0 1.416-.635 1.416-1.415 0-.781-.635-1.416-1.416-1.416M548.809 215.989c-.78 0-1.416.634-1.416 1.415 0 .78.636 1.416 1.416 1.416.78 0 1.416-.635 1.416-1.416 0-.78-.636-1.415-1.416-1.415M555.236 213.888c-.78 0-1.417.635-1.417 1.416a1.417 1.417 0 0 0 2.832 0c0-.781-.635-1.416-1.415-1.416M545.324 187.607c-.781 0-1.417.635-1.417 1.416a1.417 1.417 0 0 0 2.832 0c0-.781-.636-1.416-1.415-1.416M538.445 187.452c-.78 0-1.415.635-1.415 1.415s.636 1.416 1.415 1.416c.781 0 1.417-.635 1.417-1.416 0-.78-.636-1.415-1.417-1.415M534.898 193.634c-.78 0-1.416.635-1.416 1.416 0 .78.635 1.415 1.416 1.415.78 0 1.416-.635 1.416-1.415s-.635-1.416-1.416-1.416M535.411 201.585c-.78 0-1.416.635-1.416 1.416a1.417 1.417 0 0 0 2.832 0c0-.781-.635-1.416-1.416-1.416M534.898 208.73c-.78 0-1.416.636-1.416 1.416 0 .78.635 1.416 1.416 1.416.78 0 1.416-.635 1.416-1.416 0-.78-.635-1.415-1.416-1.415M535.147 215.755c-.78 0-1.416.635-1.416 1.416 0 .78.635 1.415 1.416 1.415.78 0 1.416-.635 1.416-1.415s-.636-1.416-1.416-1.416M534.898 222.897c-.78 0-1.416.635-1.416 1.416 0 .78.635 1.415 1.416 1.415.78 0 1.416-.635 1.416-1.415 0-.781-.635-1.416-1.416-1.416M527.522 221.03c-.78 0-1.416.635-1.416 1.416a1.417 1.417 0 0 0 2.831 0c0-.781-.634-1.416-1.415-1.416M528.487 213.888c-.78 0-1.416.635-1.416 1.416 0 .78.635 1.415 1.416 1.415.78 0 1.416-.635 1.416-1.415 0-.781-.635-1.416-1.416-1.416M521.018 217.834c-.78 0-1.416.635-1.416 1.416 0 .78.635 1.415 1.416 1.415.78 0 1.416-.635 1.416-1.415s-.636-1.416-1.416-1.416M529.39 198.317c-.78 0-1.417.635-1.417 1.416a1.417 1.417 0 0 0 2.832 0c0-.781-.635-1.416-1.415-1.416M528.082 206.019c-.78 0-1.415.635-1.415 1.416 0 .78.635 1.416 1.415 1.416a1.417 1.417 0 0 0 0-2.832M522.48 210.597a1.417 1.417 0 1 0 1.416 1.416c0-.78-.635-1.416-1.416-1.416M515.011 213.631c-.78 0-1.415.635-1.415 1.417 0 .78.635 1.414 1.415 1.414s1.417-.635 1.417-1.414c0-.782-.636-1.417-1.417-1.417M524.752 193.634c-.78 0-1.415.635-1.415 1.416 0 .78.635 1.415 1.415 1.415s1.416-.635 1.416-1.415-.635-1.416-1.416-1.416M517.688 195.5c-.78 0-1.416.636-1.416 1.417a1.417 1.417 0 0 0 2.832 0c0-.781-.635-1.416-1.416-1.416M509.565 194.816c-.78 0-1.415.635-1.415 1.416 0 .78.635 1.415 1.415 1.415s1.417-.635 1.417-1.415-.636-1.416-1.417-1.416M502.283 195.734c-.78 0-1.416.635-1.416 1.416 0 .78.636 1.415 1.416 1.415.78 0 1.416-.634 1.416-1.415 0-.78-.636-1.416-1.416-1.416M505.582 202.285c-.78 0-1.416.635-1.416 1.416a1.417 1.417 0 0 0 2.831 0c0-.781-.635-1.416-1.415-1.416M512.678 200.932c-.781 0-1.417.634-1.417 1.415a1.417 1.417 0 0 0 2.832 0c0-.781-.636-1.415-1.415-1.415M522.107 201.258c-.78 0-1.416.635-1.416 1.416 0 .78.635 1.415 1.416 1.415.78 0 1.416-.635 1.416-1.415s-.635-1.416-1.416-1.416M517.065 206.252c-.78 0-1.415.635-1.415 1.417 0 .78.635 1.414 1.415 1.414s1.417-.634 1.417-1.414c0-.782-.636-1.417-1.417-1.417M509.777 208.493c-.78 0-1.416.635-1.416 1.416a1.417 1.417 0 0 0 2.832 0c0-.78-.635-1.416-1.416-1.416M529.763 188.468c-.78 0-1.416.635-1.416 1.416 0 .78.635 1.415 1.416 1.415.78 0 1.416-.635 1.416-1.415 0-.781-.636-1.416-1.416-1.416M521.89 187.97c-.781 0-1.417.635-1.417 1.416 0 .78.636 1.416 1.417 1.416.78 0 1.415-.635 1.415-1.416 0-.78-.636-1.416-1.415-1.416M514.794 188.81c-.78 0-1.417.636-1.417 1.416a1.417 1.417 0 0 0 2.832 0c0-.78-.635-1.415-1.415-1.415M507.45 188.22c-.782 0-1.417.634-1.417 1.415a1.417 1.417 0 0 0 2.832 0c0-.781-.635-1.416-1.416-1.416M500.416 188.655c-.78 0-1.416.635-1.416 1.416a1.417 1.417 0 0 0 2.832 0c0-.781-.636-1.416-1.416-1.416M577.253 181.342c-.78 0-1.416.635-1.416 1.416a1.417 1.417 0 0 0 2.832 0c0-.781-.635-1.416-1.416-1.416M538.445 175.367c-.78 0-1.415.635-1.415 1.416 0 .78.636 1.415 1.415 1.415.781 0 1.417-.635 1.417-1.415s-.636-1.416-1.417-1.416M529.763 174.496c-.78 0-1.416.635-1.416 1.415s.635 1.416 1.416 1.416c.78 0 1.416-.635 1.416-1.416 0-.78-.636-1.415-1.416-1.415M521.89 174.869c-.781 0-1.417.635-1.417 1.416 0 .78.636 1.415 1.417 1.415.78 0 1.415-.635 1.415-1.415 0-.781-.636-1.416-1.415-1.416M514.544 174.496c-.78 0-1.415.635-1.415 1.415s.636 1.416 1.415 1.416c.781 0 1.417-.635 1.417-1.416 0-.78-.636-1.415-1.417-1.415M507.45 174.651a1.417 1.417 0 0 0 0 2.831c.78 0 1.415-.635 1.415-1.415 0-.781-.635-1.416-1.416-1.416M500.416 174.216c-.78 0-1.416.635-1.416 1.416a1.417 1.417 0 0 0 2.832 0c0-.781-.636-1.416-1.416-1.416M502.283 167.182c-.78 0-1.416.635-1.416 1.417 0 .78.636 1.414 1.416 1.414.78 0 1.416-.634 1.416-1.414 0-.782-.636-1.417-1.416-1.417M505.582 160.523c-.78 0-1.416.635-1.416 1.416a1.417 1.417 0 0 0 2.831 0c0-.781-.635-1.416-1.415-1.416M509.72 154.58c-.78 0-1.415.634-1.415 1.415 0 .78.635 1.416 1.416 1.416a1.417 1.417 0 0 0 0-2.832M514.98 149.32c-.78 0-1.415.635-1.415 1.416 0 .78.635 1.416 1.415 1.416s1.417-.635 1.417-1.416c0-.78-.636-1.415-1.417-1.415M521.08 145.026c-.78 0-1.416.635-1.416 1.416 0 .78.636 1.415 1.416 1.415.78 0 1.416-.635 1.416-1.415 0-.781-.636-1.416-1.416-1.416M527.678 142.007c-.78 0-1.416.635-1.416 1.417 0 .78.635 1.414 1.416 1.414.78 0 1.415-.635 1.415-1.414 0-.782-.635-1.417-1.415-1.417M534.742 139.953c-.78 0-1.416.635-1.416 1.416 0 .78.636 1.415 1.416 1.415.78 0 1.417-.635 1.417-1.415s-.636-1.416-1.417-1.416M542.18 195.314c-.78 0-1.416.635-1.416 1.416a1.417 1.417 0 0 0 2.832 0c0-.78-.635-1.416-1.416-1.416M542.18 202.285c-.78 0-1.416.635-1.416 1.416a1.417 1.417 0 0 0 2.832 0c0-.781-.635-1.416-1.416-1.416M542.18 209.38c-.78 0-1.416.635-1.416 1.416a1.417 1.417 0 0 0 2.832 0c0-.781-.635-1.416-1.416-1.416M542.18 216.475c-.78 0-1.416.635-1.416 1.416a1.417 1.417 0 0 0 2.832 0c0-.78-.635-1.416-1.416-1.416M542.18 223.477c-.78 0-1.416.635-1.416 1.416a1.417 1.417 0 0 0 2.832 0c0-.78-.635-1.416-1.416-1.416" fill="#253F8D"/><path d="M331.588 415.262l-33.201 19.083c-2.942 1.69-5.349-1-5.374-6.012l-.155-30.39c-.026-5.01 2.339-10.444 5.281-12.135l33.2-19.084c2.943-1.691 5.35 1.001 5.375 6.011l.155 30.39c.025 5.012-2.339 10.445-5.281 12.137" fill="#213D8F"/><path d="M334.38 416.045l-33.2 19.083c-2.943 1.69-5.35-1-5.375-6.012l-.155-30.39c-.026-5.01 2.339-10.444 5.281-12.135l33.2-19.084c2.943-1.691 5.35 1 5.374 6.011l.156 30.39c.026 5.012-2.339 10.445-5.281 12.137" fill="#BCC4DD"/><path fill="#213D8F" d="M339.567 381.618l-43.875 25.405-.045-8.708 43.875-25.404z"/><path d="M335.19 392.703l-18.172 10.445c-.105.06-.191-.036-.192-.214l-.004-.812c-.001-.18.083-.373.188-.434l18.173-10.446c.105-.06.191.036.192.216l.004.812c.001.178-.083.373-.188.433" fill="#E8ECF3"/><path d="M307.638 424.4l-7.46 4.288c-.104.06-.19-.036-.19-.215l-.008-1.442c-.002-.179.083-.373.189-.433l7.458-4.287c.105-.06.192.035.192.214l.008 1.441c0 .18-.084.374-.19.434M316.856 419.102l-7.459 4.287c-.105.06-.19-.036-.192-.215l-.007-1.441c-.001-.18.084-.373.189-.434l7.458-4.287c.106-.06.191.035.193.215l.007 1.44c0 .18-.083.375-.189.435M326.09 413.794l-7.459 4.287c-.104.06-.19-.036-.192-.215l-.007-1.441c0-.179.084-.373.189-.434l7.458-4.287c.106-.06.192.035.193.215l.007 1.442c0 .178-.083.373-.189.433M335.309 408.495l-7.46 4.287c-.104.06-.19-.035-.191-.215l-.007-1.44c-.001-.18.083-.374.188-.434l7.459-4.287c.105-.06.191.035.192.214l.007 1.442c.001.178-.083.373-.188.433" fill="#213D8F"/><path d="M335.21 396.648l-18.172 10.446c-.105.06-.191-.036-.192-.215l-.002-.464c-.001-.18.083-.373.189-.434l18.173-10.445c.104-.061.19.035.191.214l.003.464c0 .18-.084.373-.19.434M307.87 410.532c.014 2.644-1.791 5.832-4.03 7.12-2.241 1.287-4.068.187-4.08-2.458-.015-2.645 1.79-5.833 4.03-7.12 2.24-1.288 4.066-.187 4.08 2.458M378.833 124.223l-34.676 20.013V61.959l34.676-20.049z" fill="#E8ECF3"/><path fill="#909EC7" d="M344.157 144.236l-21.423-12.441V49.469l21.423 12.49z"/><path fill="#BCC4DD" d="M322.735 49.568l21.422 12.39 34.676-20.048-21.428-12.413z"/><path fill="#213D8F" d="M367.576 62.654l-20.603 11.892v-4.14l20.603-11.927z"/><path fill="#9CC939" d="M376.739 57.393l-5.893 3.373v-4.14l5.893-3.407z"/><path fill="#213D8F" d="M367.576 71.641l-20.603 11.892v-4.14l20.603-11.927z"/><path fill="#E97876" d="M376.739 66.38l-5.893 3.373v-4.14l5.893-3.407z"/><path fill="#213D8F" d="M367.576 80.628L346.973 92.52v-4.14l20.603-11.927z"/><path fill="#9CC939" d="M376.739 75.368l-5.893 3.372V74.6l5.893-3.407z"/><path fill="#213D8F" d="M367.576 89.615l-20.603 11.892v-4.14l20.603-11.927z"/><path fill="#E97876" d="M376.739 84.355l-5.893 3.371v-4.139l5.893-3.407z"/><path fill="#213D8F" d="M367.576 98.602l-20.603 11.891v-4.139l20.603-11.927z"/><path fill="#9CC939" d="M376.739 93.342l-5.893 3.371v-4.139l5.893-3.407z"/><path fill="#213D8F" d="M367.576 107.59l-20.603 11.89v-4.139l20.603-11.926z"/><path fill="#E97876" d="M376.739 102.329l-5.893 3.371v-4.139l5.893-3.407z"/><path fill="#213D8F" d="M367.576 116.576l-20.603 11.892v-4.14l20.603-11.926z"/><path fill="#9CC939" d="M376.739 111.315l-5.893 3.372v-4.139l5.893-3.408z"/><path d="M56.06 286.492a1.188 1.188 0 0 1-.553-2.206l29.966-17.89a1.187 1.187 0 0 1 1.217 2.038l-29.967 17.891a1.176 1.176 0 0 1-.664.167" fill="#6377B0"/><path d="M29.92 268.947c-1.896 3.432-5.104 5.292-7.163 4.154s-2.19-4.843-.293-8.275c1.897-3.432 5.105-5.292 7.164-4.155 2.059 1.139 2.19 4.844.292 8.276" fill="#37509A"/><path d="M31.053 269.593c-1.87 3.384-5.024 5.221-7.045 4.104-2.02-1.117-2.143-4.764-.272-8.148 1.87-3.383 5.024-5.22 7.044-4.104 2.022 1.117 2.144 4.765.273 8.148" fill="#4D63A5"/><path d="M27.879 269.779a1.187 1.187 0 0 1-1.084-1.519l3.624-12.406c.084-.287.273-.533.53-.687L60 237.827a1.187 1.187 0 0 1 1.217 2.039l-28.649 17.101-3.494 11.959c-.157.536-.66.878-1.194.853" fill="#213D8F"/><path fill="#213D8F" d="M63.14 212.906l-45.483 15.645 12.586 27.58 29.281-12.2z"/><path d="M54.831 287.325a1.187 1.187 0 0 1-1.084-1.519l5.267-18.03a1.188 1.188 0 0 1 2.28.666l-5.268 18.03c-.157.537-.66.879-1.195.853" fill="#6377B0"/><path d="M3.65 234.648a1.187 1.187 0 0 1-.563-2.199l13.805-8.009a1.19 1.19 0 0 1 1.679.478l2.742 5.953a1.186 1.186 0 1 1-2.12 1.07l-2.162-4.804-12.706 7.338c-.21.128-.445.185-.674.173" fill="#213D8F"/><path d="M85.57 272.729c-1.899 3.432-5.106 5.292-7.165 4.155-2.058-1.139-2.19-4.844-.292-8.276 1.897-3.433 5.104-5.292 7.163-4.155 2.06 1.139 2.19 4.844.293 8.276" fill="#37509A"/><path d="M86.702 273.375c-1.87 3.383-5.025 5.221-7.045 4.104-2.02-1.117-2.143-4.764-.272-8.148 1.87-3.383 5.023-5.22 7.044-4.104 2.021 1.117 2.143 4.765.273 8.148" fill="#4D63A5"/><path d="M85.86 272.91c-1.44 2.606-3.869 4.02-5.425 3.16-1.555-.86-1.65-3.668-.21-6.274 1.44-2.605 3.87-4.02 5.426-3.16 1.556.86 1.65 3.668.21 6.274" fill="#909EC7"/><path d="M58.62 286.178c-1.897 3.432-5.105 5.292-7.164 4.154-2.059-1.138-2.19-4.843-.293-8.275 1.897-3.432 5.105-5.292 7.164-4.154 2.059 1.138 2.19 4.843.293 8.275" fill="#37509A"/><path d="M59.752 286.824c-1.87 3.384-5.024 5.221-7.045 4.103-2.02-1.116-2.143-4.763-.272-8.147 1.87-3.383 5.025-5.22 7.044-4.104 2.022 1.117 2.144 4.765.273 8.148" fill="#4D63A5"/><path d="M58.911 286.36c-1.44 2.605-3.87 4.019-5.425 3.16-1.556-.86-1.65-3.67-.21-6.275 1.44-2.605 3.869-4.02 5.425-3.16 1.556.86 1.65 3.668.21 6.274" fill="#909EC7"/><path fill="#4D63A5" d="M91.706 224.266l-28.566-11.36-3.848 31.014 28.525 12.15z"/><path fill="#909EC7" d="M91.706 224.266l-46.05 19.843 13.139 28.808 29.022-16.847"/><path fill="#37509A" d="M45.656 244.109l13.139 28.808-28.552-16.786-12.586-27.58z"/><path d="M30.274 250.15a1.194 1.194 0 0 1-.415-.146L3.11 234.478a1.187 1.187 0 1 1 1.193-2.053l26.75 15.526a1.186 1.186 0 0 1-.778 2.2" fill="#8EC03F"/><path d="M30.537 250.263a1.187 1.187 0 0 1-.564-2.199l14.778-8.64a1.186 1.186 0 0 1 1.679.478l2.66 6.004a1.188 1.188 0 0 1-2.12 1.07l-2.202-4.817-13.678 7.969c-.09.09-.324.146-.553.135" fill="#909EC7"/><path d="M119.222 385.427l.068 4.022c-2.332-1.361-6.319-1.417-8.889-.128l-.068-4.021c2.57-1.29 6.557-1.233 8.889.127" fill="#213D8F"/><path fill="#213D8F" d="M137.442 396.06l.068 4.02-18.22-10.631-.069-4.022z"/><path d="M139.071 398.291l.068 4.022c-.014-.805-.551-1.603-1.628-2.232l-.07-4.022c1.079.63 1.616 1.428 1.63 2.232" fill="#213D8F"/><path d="M139.14 402.308c.017.938-.677 1.885-2.061 2.58l-.07-4.022c1.385-.694 2.08-1.641 2.062-2.579l.068 4.021" fill="#FFF"/><path d="M139.23 398.288l.069 4.022c.016.96-.696 1.929-2.114 2.64l-.068-4.02c1.417-.712 2.13-1.682 2.113-2.642" fill="#BCC4DD"/><path d="M63.545 417.47l-.068-4.022c-.016-.937.68-1.88 2.062-2.576l.068 4.021c-1.383.695-2.077 1.64-2.062 2.576" fill="#213D8F"/><path d="M137.442 396.06c2.332 1.36 2.137 3.517-.432 4.806L92.215 426.44c-2.57 1.29-6.557 1.234-8.888-.127l-18.22-10.632c-2.332-1.36-2.138-3.517.431-4.808l44.795-25.572c2.57-1.29 6.558-1.233 8.888.127l18.221 10.633z" fill="#FFF"/><path fill="#FFF" d="M83.327 426.313l.068 4.02-18.22-10.631-.069-4.022z"/><path fill="#BCC4DD" d="M83.209 426.371l.068 4.021-18.22-10.632-.069-4.021z"/><path d="M92.215 426.439l.068 4.021c-2.57 1.291-6.557 1.234-8.888-.126l-.068-4.022c2.33 1.361 6.319 1.418 8.888.127" fill="#FFF"/><path d="M92.215 426.439l44.795-25.572c2.57-1.29 2.763-3.447.432-4.807l-18.22-10.633c-2.331-1.36-6.319-1.417-8.889-.127l-44.795 25.573c-2.57 1.29-2.764 3.447-.432 4.807l18.22 10.632c2.332 1.361 6.32 1.418 8.89.127zm45.345-30.438c2.39 1.394 2.193 3.605-.443 4.929l-44.795 25.572c-2.634 1.323-6.723 1.264-9.113-.131l-18.22-10.632c-2.392-1.395-2.192-3.607.443-4.929l44.794-25.572c2.636-1.324 6.723-1.265 9.113.13L137.56 396z" fill="#BCC4DD"/><path d="M63.386 417.472l-.068-4.021c.014.825.566 1.643 1.67 2.288l.068 4.021c-1.104-.644-1.656-1.463-1.67-2.288M92.322 426.502l.068 4.021c-2.634 1.323-6.723 1.265-9.113-.13l-.068-4.022c2.39 1.396 6.479 1.454 9.113.13" fill="#BCC4DD"/><path fill="#FFF" d="M137.01 400.867l.068 4.02-44.795 25.573-.068-4.021z"/><path fill="#BCC4DD" d="M137.225 400.754l-.04 4.197-44.969 25.657-.001-4.17z"/><path fill="#333" d="M135.381 400.36l-42.674 24.636-24.402-14.198 42.522-24.592z"/><path fill="#E8ECF3" d="M552.71 240.823l-45.172 26.385-.538-43.87 45.71-26.08z"/><path fill="#909EC7" d="M507.538 267.208l-37.107-21.496-.538-43.878L507 223.337z"/><path fill="#E8ECF3" d="M507 223.336l19.836-32.218 25.874 6.174z"/><path fill="#909EC7" d="M531.672 236.595l-17.946 10.478-.287-23.379 18.339-10.903zM549.098 242.921l-7.636 4.472.088-24.523c.012-3.427 1.732-7.33 3.84-8.72 2.108-1.39 3.809.886 3.796 4.312l-.088 24.46z"/><path fill="#213D8F" d="M513.44 223.716l2.912 3.063 18.652-11.145-3.226-2.843zM469.893 201.834L507 223.337l19.836-32.219-34.422-19.953z"/><path fill="#6377B0" d="M492.414 171.165l34.422 19.953 25.875 6.15-45.587-23.65z"/><path d="M104.069 403.907c.57.287.591.77.049 1.08-.544.31-1.446.33-2.016.043-.57-.285-.592-.77-.048-1.079.543-.31 1.445-.33 2.015-.044" fill="#FFF"/><path d="M100.38 406.026c1.566.786 4.042.732 5.533-.12.852-.486 1.195-1.127 1.042-1.734-.043-.22-.17-.458-.42-.7-.02-.019-.036-.038-.057-.056l-.018-.015a3.008 3.008 0 0 0-.682-.458c-.216-.108-.45-.2-.699-.277-.055-.018-.113-.033-.17-.049-.038-.01-.075-.022-.114-.031a5.835 5.835 0 0 0-1.052-.173 6.71 6.71 0 0 0-.248-.015c-1.168-.055-2.377.168-3.248.665-1.49.851-1.43 2.178.133 2.963m10.91-2.29l1.526.765-9.113 5.205-1.525-.766c-.515-.258-.542-.684-.051-.964l.149-.085c-1.413.183-3.077-.133-4.388-.79-3.224-1.619-2.453-3.872-.023-5.26 2.78-1.588 6.989-1.724 9.789-.32 1.5.753 1.848 1.62 1.739 2.305l.169-.096c.49-.28 1.213-.252 1.728.006" fill="#FFF"/><path d="M231.29 246.032l-107.588-64.42c-4.814-2.866-4.751-9.857.113-12.636l34.029-19.444c4.98-2.846 4.897-10.053-.145-12.784l-29.601-16.033c-5.033-2.725-5.127-9.913-.168-12.77l112.538-64.829a21.947 21.947 0 0 1 21.565-.194l38.178 21.082" stroke="#9CC939" stroke-width="4"/><path d="M303.138 59.614c-2.619-1.544-6.863-1.544-9.481 0-2.619 1.545-2.619 4.049 0 5.593 2.618 1.544 6.862 1.544 9.48 0 2.62-1.544 2.62-4.048 0-5.593" fill="#9CC939"/><path d="M350.743 265.975l41.966-25.14c4.783-2.866 4.73-9.813-.094-12.607l-33.697-19.507c-4.914-2.845-4.854-9.962.11-12.723l75.161-41.817a21.951 21.951 0 0 1 21.651.175l22.145 12.794" stroke="#9CC939" stroke-width="4"/><path d="M483.809 163.752c-2.618-1.544-6.863-1.544-9.481 0-2.619 1.544-2.619 4.048 0 5.593 2.618 1.544 6.863 1.544 9.48 0 2.62-1.545 2.62-4.049 0-5.593" fill="#9CC939"/><path d="M281.922 403.436l-18.444-11.066c-4.819-2.89-4.713-9.91.19-12.655l69.203-38.751c4.953-2.774 4.997-9.887.078-12.721L300.943 309.8" stroke="#9CC939" stroke-width="4"/><path d="M286.311 400.51c-2.618-1.544-6.862-1.544-9.48 0-2.62 1.544-2.62 4.049 0 5.593 2.618 1.544 6.862 1.544 9.48 0 2.619-1.544 2.619-4.049 0-5.593" fill="#9CC939"/><path d="M283.444 317.359l-70.26 41.446a7.315 7.315 0 0 1-7.347.008L167.17 336.41a7.315 7.315 0 0 0-7.45.068l-87.011 52.627" stroke="#9CC939" stroke-width="4"/><path d="M79.06 386.611c-2.618-1.544-6.863-1.544-9.481 0-2.62 1.544-2.62 4.048 0 5.593 2.618 1.544 6.863 1.544 9.48 0 2.62-1.545 2.62-4.049 0-5.593" fill="#9CC939"/><path d="M249.034 296.361l-45.076 24.826a7.317 7.317 0 0 1-7.215-.09l-39.014-22.756a7.318 7.318 0 0 0-7.41.022l-45.489 26.896a7.317 7.317 0 0 1-7.385.037L6.316 272.619" stroke="#9CC939" stroke-width="4"/><path d="M11.445 270.089c-2.618-1.544-6.863-1.544-9.481 0-2.618 1.544-2.618 4.048 0 5.593 2.618 1.544 6.863 1.544 9.481 0 2.619-1.545 2.619-4.049 0-5.593" fill="#9CC939"/><path fill="#BCC4DD" d="M309.552 224.37l-101.923 58.936-.1-98.615 102.023-58.563z"/><path fill="#4D4F63" d="M305.257 218.84l-91.304 52.593v-82.667l91.304-53.075z"/><path fill="#37509A" d="M309.552 126.128l-4.314-2.52-102.067 58.545 4.358 2.538z"/><path fill="#EBECE9" d="M203.171 182.152l4.316 2.539.143 98.615-4.426-2.52z"/><path fill="#E8ECF3" d="M386.426 268.76l-101.038 59.478-77.759-44.932 101.923-58.937z"/><path fill="#4D63A5" d="M285.388 328.238v5.274l101.038-59.48v-5.273z"/><path fill="#BCC4DD" d="M203.171 280.669v5.274l82.217 47.569v-5.274z"/><path fill="#909EC7" d="M236.463 284.785l-5.022 2.957-4.204-2.438 5.022-2.956zM243.732 280.498l-5.022 2.956-4.204-2.439 5.022-2.956zM316.421 237.705l-5.021 2.956-4.205-2.437 5.022-2.957zM309.152 241.985l-5.021 2.957-4.205-2.438 5.022-2.956zM301.884 246.267l-5.023 2.956-4.203-2.437 5.021-2.957zM294.615 250.541l-5.023 2.957-4.203-2.438 5.021-2.956zM280.077 259.1l-5.022 2.957-4.204-2.438 5.021-2.956zM272.808 263.38l-5.022 2.957-4.204-2.438 5.021-2.956zM258.27 271.938l-5.022 2.956-4.204-2.438 5.021-2.956zM251.001 276.216l-5.022 2.956-4.204-2.437 5.022-2.956zM265.539 267.66l-5.022 2.955-4.204-2.438 5.021-2.956zM287.346 254.825l-5.023 2.956-4.203-2.438 5.021-2.956zM247.367 291.2l-5.022 2.956-4.204-2.438 5.021-2.956zM254.636 286.911l-5.023 2.957-4.203-2.439 5.021-2.956zM327.325 244.119l-5.022 2.957-4.204-2.439 5.021-2.956zM320.056 248.4l-5.022 2.956-4.204-2.438 5.022-2.956zM312.787 252.68l-5.022 2.957-4.204-2.438 5.022-2.957zM305.518 256.955l-5.022 2.957-4.204-2.439 5.022-2.956zM290.98 265.515l-5.021 2.956-4.205-2.438 5.022-2.957zM283.711 269.795l-5.021 2.956-4.205-2.438 5.022-2.957zM269.174 278.352l-5.023 2.956-4.203-2.438 5.021-2.956zM261.905 282.63l-5.023 2.956-4.203-2.437 5.021-2.956zM276.442 274.073l-5.021 2.956-4.205-2.437 5.022-2.957zM298.25 261.24l-5.022 2.955-4.205-2.438 5.022-2.956zM259.15 298.074l-5.02 2.956-4.205-2.438 5.021-2.956zM266.42 293.786l-5.022 2.956-4.204-2.438 5.021-2.956zM339.11 250.993l-5.022 2.956-4.205-2.437 5.022-2.956zM331.84 255.274l-5.022 2.956-4.203-2.437 5.021-2.957zM324.571 259.555l-5.022 2.956-4.204-2.438 5.022-2.956zM317.302 263.83l-5.022 2.956-4.203-2.438 5.021-2.956zM302.764 272.39l-5.021 2.955-4.204-2.438 5.021-2.956zM295.495 276.67l-5.021 2.955-4.204-2.438 5.021-2.956zM280.958 285.226l-5.022 2.956-4.204-2.437 5.021-2.956zM273.689 289.505l-5.022 2.956-4.204-2.438 5.021-2.956zM288.226 280.948l-5.021 2.956-4.205-2.438 5.022-2.957zM310.033 268.114l-5.021 2.956-4.204-2.438 5.021-2.957zM271.326 305.165l-5.022 2.956-4.204-2.438 5.021-2.956zM278.595 300.876l-5.022 2.956-4.204-2.437 5.021-2.956zM351.284 258.084l-5.021 2.956-4.205-2.438 5.022-2.956zM344.015 262.365l-5.021 2.956-4.205-2.438 5.022-2.956zM336.746 266.646l-5.021 2.956-4.205-2.438 5.022-2.956zM329.477 270.92l-5.022 2.957-4.203-2.439 5.021-2.956zM314.94 279.48l-5.023 2.956-4.203-2.438 5.021-2.956zM307.67 283.76l-5.021 2.956-4.204-2.438 5.021-2.957zM293.132 292.317l-5.021 2.956-4.204-2.438 5.021-2.956zM285.864 296.596l-5.022 2.956-4.204-2.438 5.021-2.957zM300.401 288.038l-5.021 2.956-4.204-2.437 5.021-2.956zM322.208 275.204l-5.022 2.956-4.204-2.437 5.022-2.957zM284.186 312.595l-5.022 2.956-4.204-2.438 5.022-2.956zM291.455 308.307l-5.022 2.957-4.204-2.439 5.022-2.956zM364.145 265.515l-5.022 2.956-4.204-2.438 5.021-2.957zM356.876 269.795l-5.022 2.956-4.204-2.437 5.021-2.957zM349.607 274.077l-5.022 2.956-4.204-2.438 5.021-2.957zM342.338 278.35l-5.022 2.957-4.204-2.437 5.021-2.957zM305.993 299.748l-5.022 2.956-4.204-2.439 5.022-2.956zM298.724 304.026l-5.022 2.956-4.204-2.438 5.022-2.956zM335.069 282.634l-26.829 15.791-4.203-2.438 26.827-15.79z"/><path fill="#1CB8DD" d="M249.81 179.427l-17.583 10.15v-1.829l17.583-10.15zM271.826 213.989l-39.599 22.86v-1.83l39.599-22.86z"/><path fill="#E97876" d="M249.81 183.392l-17.583 10.15v-1.829l17.583-10.15z"/><path fill="#8EBF3F" d="M258.066 187.47l-25.839 14.917v-1.83l25.839-14.917zM246.333 232.366l-9.996 5.77v-1.829l9.996-5.771z"/><path fill="#4D62A5" d="M262.707 222.912l-15.086 8.71v-1.83l15.086-8.71zM273.155 216.88l-8.872 5.123v-1.83l8.872-5.122zM283.523 210.895l-8.873 5.122v-1.83l8.873-5.122zM256.104 232.743l-15.085 8.709v-1.83l15.085-8.709zM266.552 226.711l-8.872 5.122v-1.83l8.872-5.121zM276.92 220.726l-8.872 5.122v-1.83l8.872-5.122z"/><path fill="#E97876" d="M249.256 196.317l-8.219 4.745v-1.83l8.22-4.744zM249.256 210.956l-8.219 4.745v-1.83l8.22-4.745zM240.447 227.428l-8.22 4.744v-1.83l8.22-4.744zM282.891 207.6l-8.219 4.745v-1.83l8.22-4.745z"/><path fill="#FBFFFF" d="M286.074 171.3l-25.838 14.918v-1.83l25.838-14.917zM264.772 191.02l-14.962 8.637v-1.83l14.962-8.637z"/><path fill="#E97876" d="M249.256 242.93l-8.219 4.745v-1.83l8.22-4.744z"/><path fill="#8EBF3F" d="M264.772 237.633l-14.962 8.638v-1.83l14.962-8.638z"/><path fill="#FBFFFF" d="M274.545 231.99l-8.206 4.739v-1.83l8.206-4.738zM275.605 188.426l-25.795 14.89v-1.829l25.795-14.892zM273.591 193.248l-23.78 13.73v-1.831l23.78-13.729z"/></g></svg>