<svg width="137" height="85" viewBox="0 0 137 85" xmlns="http://www.w3.org/2000/svg" xmlns:xlink="http://www.w3.org/1999/xlink"><title>FD292B4D-39C1-4D4F-A0F4-55321F791039</title><defs><path id="a" d="M0 .127v30.187h29.337V.127z"/><path id="c" d="M30.223.11H.873v52.653h29.35V.111z"/><path id="e" d="M29.875 33.553V.309H.615v33.244h29.26z"/></defs><g fill="none" fill-rule="evenodd"><path d="M51.564 19.913a1.564 1.564 0 0 0-1.573 0l-13.02 7.512c-.487.282-.787.8-.787 1.363v15.04c0 .56.3 1.08.787 1.36l13.02 7.52a1.571 1.571 0 0 0 1.573 0l13.017-7.52c.487-.28.786-.8.786-1.36v-15.04a1.57 1.57 0 0 0-.786-1.363l-13.017-7.512z" fill="#6277AF"/><path d="M67.89 84.292c-.45 0-.9-.118-1.294-.347l-4.122-2.437c-.616-.345-.314-.466-.113-.537.823-.286.988-.352 1.864-.848.093-.052.214-.033.307.022l3.167 1.882a.41.41 0 0 0 .382 0l12.344-7.128a.383.383 0 0 0 .19-.331V60.319c0-.14-.074-.27-.191-.34l-12.34-7.119a.382.382 0 0 0-.38 0l-12.339 7.121a.397.397 0 0 0-.196.338v14.249c0 .135.077.265.195.33l3.383 1.952c1.835.918 2.957-.163 2.957-1.249V61.537c0-.2.16-.357.36-.357h1.564c.197 0 .36.157.36.357V75.6c0 2.45-1.335 3.854-3.657 3.854-.713 0-1.274 0-2.843-.773L54.25 76.82a2.613 2.613 0 0 1-1.295-2.251V60.319c0-.925.497-1.79 1.295-2.25l12.346-7.132c.78-.443 1.82-.443 2.594 0l12.346 7.132a2.61 2.61 0 0 1 1.296 2.25v14.249c0 .923-.498 1.784-1.296 2.251L69.19 83.945a2.58 2.58 0 0 1-1.3.347" fill="#36509A"/><path d="M71.704 74.477c-5.402 0-6.533-2.48-6.533-4.56 0-.197.157-.356.355-.356h1.597a.36.36 0 0 1 .355.303c.24 1.626.959 2.445 4.226 2.445 2.6 0 3.706-.588 3.706-1.969 0-.795-.312-1.385-4.355-1.781-3.377-.335-5.467-1.08-5.467-3.783 0-2.49 2.1-3.976 5.621-3.976 3.955 0 5.91 1.373 6.159 4.318.009.101-.026.2-.093.275a.369.369 0 0 1-.262.113H75.41a.355.355 0 0 1-.345-.28c-.385-1.708-1.32-2.254-3.856-2.254-2.84 0-3.17.99-3.17 1.73 0 .899.39 1.16 4.223 1.667 3.795.501 5.596 1.211 5.596 3.879 0 2.69-2.244 4.229-6.154 4.229M86.736 59.371h.416c.338 0 .402-.237.402-.377 0-.366-.253-.366-.391-.366h-.427v.743zm-.505-1.17h.921c.314 0 .93 0 .93.705 0 .492-.314.593-.504.655.367.026.39.264.441.604.025.215.063.58.138.705h-.565c-.014-.126-.102-.806-.102-.844-.036-.15-.088-.226-.277-.226h-.465v1.07h-.517v-2.669zm-1.1 1.329c0 1.108.893 2.001 1.988 2.001a2.012 2.012 0 0 0 2.003-2.001 1.997 1.997 0 0 0-2.003-1.989 1.984 1.984 0 0 0-1.987 1.989zm4.374.005c0 1.31-1.071 2.38-2.38 2.38a2.386 2.386 0 0 1-2.38-2.38c0-1.347 1.108-2.379 2.38-2.379a2.378 2.378 0 0 1 2.38 2.379z" fill="#36509A"/><g transform="translate(.324 19.312)"><mask id="b" fill="#fff"><use xlink:href="#a"/></mask><path d="M29.337 9.24a1.58 1.58 0 0 0-.79-1.373L15.459.334a1.536 1.536 0 0 0-.721-.207h-.135c-.25.01-.498.077-.723.207L.79 7.867A1.59 1.59 0 0 0 0 9.24l.029 20.283a.78.78 0 0 0 .394.683.766.766 0 0 0 .786 0l7.778-4.454c.491-.294.791-.809.791-1.371v-9.478c0-.564.299-1.087.79-1.368l3.312-1.906a1.565 1.565 0 0 1 1.579 0l3.31 1.906c.49.281.79.804.79 1.368v9.478c0 .562.305 1.08.793 1.371l7.775 4.454a.788.788 0 1 0 1.185-.683l.025-20.283z" fill="#36509A" mask="url(#b)"/></g><g transform="translate(71.018 .46)"><mask id="d" fill="#fff"><use xlink:href="#c"/></mask><path d="M20.407 38.653a.395.395 0 0 1-.198.342l-4.495 2.59a.396.396 0 0 1-.396 0l-4.496-2.59a.395.395 0 0 1-.198-.342v-5.19a.39.39 0 0 1 .198-.342l4.496-2.598a.396.396 0 0 1 .396 0l4.495 2.598c.122.07.198.2.198.341v5.19zM21.62.209a.799.799 0 0 0-.787.01.795.795 0 0 0-.39.682v20.086a.56.56 0 0 1-.275.48.563.563 0 0 1-.554 0l-3.277-1.89a1.59 1.59 0 0 0-1.58 0L1.662 27.135c-.488.283-.79.806-.79 1.37V43.62c0 .564.302 1.087.79 1.368l13.093 7.564c.49.282 1.093.282 1.582 0l13.095-7.564c.49-.281.79-.804.79-1.368V5.94c0-.573-.309-1.1-.81-1.382L21.62.209z" fill="#36509A" mask="url(#d)"/></g><g transform="translate(107.15 19.312)"><mask id="f" fill="#fff"><use xlink:href="#e"/></mask><path d="M29.088 14.474c.489-.282.787-.804.787-1.366V9.444c0-.564-.298-1.085-.787-1.366L16.08.523A1.583 1.583 0 0 0 14.494.52L1.404 8.08c-.488.281-.79.803-.79 1.368v15.111c0 .57.305 1.094.8 1.375l13.006 7.412a1.58 1.58 0 0 0 1.55.01l7.868-4.376a.79.79 0 0 0 .011-1.376l-13.172-7.56a.794.794 0 0 1-.398-.686v-4.735a.79.79 0 0 1 .396-.685l4.1-2.364a.786.786 0 0 1 .789 0l4.102 2.364a.79.79 0 0 1 .396.685v3.726a.789.789 0 0 0 1.187.684l7.84-4.558z" fill="#36509A" mask="url(#f)"/></g><path d="M122.244 33.08a.3.3 0 0 1 .303 0l2.512 1.45a.302.302 0 0 1 .152.262v2.901a.304.304 0 0 1-.152.263l-2.512 1.448a.292.292 0 0 1-.303 0l-2.512-1.448a.304.304 0 0 1-.15-.263v-2.901c0-.109.057-.21.15-.263l2.512-1.45zM64.607 27.426L51.55 19.914a1.513 1.513 0 0 0-.406-.164l-14.66 25.078a1.8 1.8 0 0 0 .438.36l13.078 7.521c.37.212.812.264 1.216.15l13.743-25.163a1.71 1.71 0 0 0-.35-.27" fill="#36509A"/><g><path d="M49.378 17.253h.24l-.06-.102z"/></g><path d="M64.613 45.188c.38-.22.663-.584.77-1L51.072 19.737a1.59 1.59 0 0 0-1.108.176l-12.968 7.468 14.01 25.522c.2-.026.396-.09.575-.195l13.032-7.52z" fill="#4D62A5"/></g></svg>