<svg width="64" height="53" viewBox="0 0 64 53" xmlns="http://www.w3.org/2000/svg"><title>45A03B9E-5AA1-45A4-9011-2D7C41A6032B</title><g fill="#213D8F" fill-rule="evenodd"><path d="M57.337 46.76a1.949 1.949 0 1 1-3.898-.001 1.949 1.949 0 0 1 3.898 0z"/><path d="M62.315 27.27h-13.85a.868.868 0 0 0-.87.867v23.599c0 .48.39.867.87.867h13.85c.479 0 .867-.388.867-.867v-23.6a.866.866 0 0 0-.867-.866zM49.544 50.655h11.69V29.218h-11.69v21.437z"/><path d="M37.808 50.654H26.224l1.968-5.844h7.516l2.1 5.844zM58.39 0H5.666C3.015 0 .856 2.069.856 4.606l-.02 35.592c0 2.539 2.159 4.612 4.81 4.612h20.49l-1.967 5.844H20.32v1.949H43.7v-1.949h-3.82l-2.1-5.844h5.92V42.86H5.647c-1.578 0-2.862-1.196-2.862-2.66l.02-35.593c0-1.465 1.283-2.66 2.861-2.66H58.39c1.578 0 2.862 1.193 2.862 2.656l-.02 18.771 1.948.006.02-18.775C63.2 2.069 61.04 0 58.39 0z"/></g></svg>