<svg width="221" height="64" viewBox="0 0 221 64" xmlns="http://www.w3.org/2000/svg" xmlns:xlink="http://www.w3.org/1999/xlink"><title>3E6E9275-EEC7-450E-ABD1-EBB1BDD6258F</title><defs><path id="a" d="M9.997 5.248V.17H.482v5.08h9.515z"/><path id="c" d="M33.645 6.855H.357V.4h33.288v6.455z"/></defs><g fill="none" fill-rule="evenodd"><path d="M88.63 27.456c0 3.428-.805 6.271-2.42 8.533-1.802 2.56-4.298 3.877-7.492 3.95-2.405.077-4.884-.676-7.435-2.256v14.632l-4.127-1.472V18.36c.678-.829 1.549-1.542 2.604-2.147 2.457-1.431 5.442-2.168 8.953-2.204l.06.06c3.21-.043 5.685 1.277 7.423 3.949 1.62 2.452 2.433 5.594 2.433 9.437m-4.746-.281c0-6.745-1.923-10.209-5.768-10.397a10.826 10.826 0 0 0-4.48.735c-1.16.416-1.94.826-2.352 1.243v16.099c2.46 1.544 4.645 2.262 6.55 2.15 4.032-.266 6.05-3.54 6.05-9.83M113.85 37.058c0 4.598-.46 7.78-1.382 9.55-.925 1.769-2.686 3.183-5.286 4.234-2.109.832-4.39 1.285-6.837 1.36l-.68-2.601c2.488-.337 4.238-.676 5.255-1.015 2-.679 3.372-1.716 4.125-3.108.606-1.13.905-3.294.905-6.496v-1.074a21.208 21.208 0 0 1-8.873 1.918c-2.031 0-3.824-.636-5.368-1.918-1.733-1.397-2.6-3.166-2.6-5.31V15.424l4.127-1.414v17.287c0 1.848.595 3.27 1.788 4.267 1.19 1 2.735 1.477 4.628 1.44 1.891-.04 3.918-.77 6.072-2.204V14.634h4.126v22.424zM129.959 39.713c-.49.041-.944.059-1.357.059-2.336 0-4.156-.553-5.456-1.67-1.295-1.116-1.945-2.655-1.945-4.619V17.228h-2.826v-2.595h2.826V7.738l4.122-1.467v8.362h4.636v2.595h-4.636V33.37c0 1.549.415 2.645 1.246 3.288.713.528 1.847.83 3.39.906v2.15zM154.945 39.374h-4.126v-15.93c0-1.619-.38-3.014-1.133-4.18-.872-1.317-2.082-1.977-3.635-1.977-1.892 0-4.258.999-7.098 2.994v19.093h-4.127V1.301l4.127-1.3v17.342c2.638-1.92 5.517-2.88 8.647-2.88 2.185 0 3.955.734 5.31 2.202 1.358 1.467 2.035 3.297 2.035 5.48v17.23zM181.399 26.552c0 3.69-.944 6.76-2.826 9.21-2.073 2.745-4.935 4.123-8.589 4.123-3.62 0-6.44-1.378-8.478-4.122-1.846-2.451-2.768-5.52-2.768-9.21 0-3.468.999-6.384 2.992-8.759 2.11-2.521 4.883-3.783 8.31-3.783 3.425 0 6.217 1.262 8.366 3.783 1.995 2.375 2.993 5.291 2.993 8.758m-4.52-.027c0-2.592-.49-4.731-1.47-6.423-1.168-2.065-2.977-3.153-5.425-3.266-4.524.262-6.78 3.505-6.78 9.716 0 2.848.47 5.228 1.417 7.139 1.211 2.433 3.026 3.633 5.445 3.594 4.543-.036 6.813-3.623 6.813-10.76M205.057 39.374h-4.126v-16.83c0-1.848-.556-3.289-1.666-4.327-1.111-1.034-2.592-1.534-4.438-1.494-1.96.036-3.824.678-5.594 1.92v20.731h-4.127V18.132c2.375-1.73 4.56-2.86 6.557-3.387 1.882-.49 3.544-.735 4.975-.735.979 0 1.9.094 2.767.284 1.62.374 2.939 1.07 3.955 2.091 1.134 1.128 1.697 2.482 1.697 4.067v18.922zM19.682 5.26c1.281 0 2.33 1.065 2.33 2.373 0 1.306-1.049 2.36-2.33 2.36-1.289 0-2.332-1.054-2.332-2.36 0-1.308 1.043-2.373 2.332-2.373m6.715-3.808c-2.122.01-4.15.191-5.935.507-5.256.929-6.21 2.873-6.21 6.457v4.732h12.42v1.578H9.592c-3.61 0-6.77 2.17-7.758 6.297-1.142 4.732-1.193 7.683 0 12.622.881 3.678 2.99 6.298 6.6 6.298h4.27V34.27c0-4.1 3.547-7.716 7.758-7.716h12.406c3.453 0 6.21-2.844 6.21-6.311V8.416c0-3.367-2.84-5.894-6.21-6.457a38.794 38.794 0 0 0-6.47-.507" fill="#36509A"/><path d="M33.65 44.676c1.287 0 2.33 1.056 2.33 2.36 0 1.309-1.043 2.374-2.33 2.374-1.282 0-2.33-1.065-2.33-2.374 0-1.304 1.048-2.36 2.33-2.36zm6.977-29.948v5.514c0 4.276-3.625 7.875-7.76 7.875H20.463c-3.398 0-6.21 2.908-6.21 6.312v11.825c0 3.365 2.928 5.346 6.21 6.31 3.932 1.158 7.702 1.367 12.406 0 3.126-.905 6.21-2.727 6.21-6.31V41.52H26.673v-1.577h18.615c3.61 0 4.956-2.518 6.21-6.296 1.297-3.892 1.24-7.634 0-12.625-.893-3.592-2.596-6.294-6.21-6.294h-4.661z" fill="#36509A"/><g transform="translate(210.897 5.706)"><mask id="b" fill="#fff"><use xlink:href="#a"/></mask><path d="M5.277 5.248h.617V1.103l1.342 4.144h.69l1.396-4.13v4.131h.675V.17h-.892L7.577 4.52 6.274.17h-.997v5.08zm-3.08 0h.723V.71h1.714V.17H.482v.54h1.716v4.538z" fill="#36509A" mask="url(#b)"/></g><g transform="translate(9.813 56.977)"><mask id="d" fill="#fff"><use xlink:href="#c"/></mask><path d="M33.645 3.628c0 1.782-7.451 3.227-16.645 3.227C7.81 6.855.357 5.41.357 3.628.357 1.845 7.81.4 17 .4c9.194 0 16.645 1.445 16.645 3.228" fill="#36509A" mask="url(#d)"/></g></g></svg>