<svg width="78" height="78" viewBox="0 0 78 78" xmlns="http://www.w3.org/2000/svg" xmlns:xlink="http://www.w3.org/1999/xlink"><title>EEC0D252-9117-44B7-A330-D36BB079E38E</title><defs><path id="a" d="M5.673.049H.211v1.57h5.462V.049z"/><path id="c" d="M11.833 23.564H.433V.44h11.4v23.124z"/><path id="e" d="M0 17.725V.029h4.32v17.696H0z"/></defs><g fill="none" fill-rule="evenodd"><path d="M67.926 40.462c-.286-.173-.67-.407-1.114-.68l-3.046 6.175 4.16-5.495zM61.924 49.688l-.147.298c2.23-2.677 4.401-5.52 6.398-8.553l-6.25 8.255zM53.996 55.166l-6.818-27.008L25.667 48.15l26.05 8.367zM48.69 27.757a9989.024 9989.024 0 0 0 17.797 10.907l6.17-12.506-23.968 1.6zM54.195 55.96l-1.478.88 1.849.593zM74.335 24.531l-.344.694 1.105-.072zM53.126 59.194c.355-.338.704-.663 1.063-1.014l-2.419-.779-16.61 9.863 1.997 3.85c6.048-3.401 11.295-7.652 15.969-11.92M50.774 57.08l-25.085-8.091 9.11 17.576zM73.087 25.287l.625-1.268L53.938 7.848l-6.02 19.122zM8.728 25.206a60.661 60.661 0 0 1 4.416-5.58c-1.515 1.408-2.251 2.072-2.501 2.259-.19.225-.92 1.511-1.915 3.321M22.385 10.963c3.024-2.356 6.131-4.363 9.14-5.905l-4.718 1.766a1276.49 1276.49 0 0 0-4.422 4.139M52.293 7.301l-.016-.002.008.007z" fill="#36509A"/><g transform="translate(39.274 .523)"><mask id="b" fill="#fff"><use xlink:href="#a"/></mask><path d="M4.24.048L.21 1.558c2.038-.43 3.875-.513 5.463-.24L4.24.049z" fill="#36509A" mask="url(#b)"/></g><path d="M4.826 48.398c2.572 2.595 7.365 2.582 13.5-.041 5.82-2.489 12.465-7.195 18.236-12.915 11.034-10.937 16.363-23.217 13.137-29.38l-3.46-3.073c-.954-.352-2.041-.534-3.255-.534-2.277 0-4.982.617-8.012 1.857-5.93 2.422-12.609 7.061-18.324 12.726-5.618 5.57-10.123 12.12-12.362 17.974-2.286 5.975-2.094 10.73.54 13.386M61.254 49.272l4.884-9.9a11044.37 11044.37 0 0 1-18.124-11.107l6.684 26.482 4.377-2.597 2.179-2.878z" fill="#36509A"/><path d="M46.18 27.138l.728-.05-.012-.048.18-.012 6.077-19.304-.976.538-.206-.185-.999-.886c1.958 6.823-3.404 18.45-13.857 28.81-5.836 5.784-12.573 10.55-18.48 13.078-.78.335-1.542.624-2.28.877l8.018-1.799-.261-.503.539.175.001-.003.154.048 21.94-20.388-.565-.348zM50.068 5.076c.096.15.157.321.242.476l1.955 1.735.524-.29-2.72-1.92zM57.819 53.809l-2.917 1.734.399 1.59zM77.577 17.96l-2.884 5.847 1.395 1.14c.592-1.876 1.214-4.34 1.489-6.987M37.333 71.967c-.044.025-.088.048-.13.074l-.352.19-.019-.038c-4.078 2.224-8.52 4.048-13.388 5.242l44.988-3.027-31.099-2.441zM20.518 77.267a52.652 52.652 0 0 0 11.895-3.754l-11.895 3.754zM34.485 67.665l-15.71 9.327 17.658-5.57zM25.005 49.376l-8.464 28.03 17.582-10.441zM24.304 48.978l-18.72 4.2c.976 1.65 3.252 6.92 9.198 21.684l1.001 2.335 8.52-28.22zM77.112 24.26c-.077.266-.154.526-.23.772l.03-.001-.174.548c-1.78 5.659-4.384 10.803-7.407 15.507l4.254 29.361 3.527-46.186zM68.682 42.088c-3.95 5.952-8.541 11.182-12.94 15.826l17.482 15.518-4.542-31.344zM55.202 58.485l-.293.308-.036-.143c-.433.405-.872.812-1.316 1.219-5.112 4.857-9.858 8.463-15.006 11.406l34.074 2.674-17.423-15.464zM.887 39.845l1.057 2.837c-.042-2.243.456-4.828 1.518-7.679l-1.944 3.654-.631 1.188zM53.545 6.57L64.029.778 45.22.694zM4.283 48.96l1.273 3.42 6.054-1.36c-.479.047-.958.095-1.407.095-2.48 0-4.492-.718-5.92-2.154M65.625.832L54.735 6.85 76.976 9.97a13.198 13.198 0 0 0-1.29-2.953C73.725 3.75 70.338 1.672 65.626.832M77.204 10.797L54.97 7.677l19.1 15.62 3.64-7.377c.045-1.71-.093-3.448-.505-5.123" fill="#36509A"/><g transform="translate(3.142 53.936)"><mask id="d" fill="#fff"><use xlink:href="#c"/></mask><path d="M11.833 23.505l-.913-2.272L2.016.44.432 19.282c2.874 3.84 6.633 4.514 11.4 4.223" fill="#36509A" mask="url(#d)"/></g><g transform="translate(0 54.936)"><mask id="f" fill="#fff"><use xlink:href="#e"/></mask><path d="M2.834 17.725L4.32.029 0 7.906c.157 4.47 1.253 7.61 2.834 9.819" fill="#36509A" mask="url(#f)"/></g><path d="M69.03 39.004l.087.6c1.448-2.055 5.273-9.05 6.499-13.644l-2.053.137-6.402 12.98 1.241.757.628-.83zM4.486 52.864L.942 42.813.076 60.927z" fill="#36509A"/></g></svg>