<svg width="51" height="64" viewBox="0 0 51 64" xmlns="http://www.w3.org/2000/svg" xmlns:xlink="http://www.w3.org/1999/xlink"><title>8FB01723-FAA6-462C-96CE-6880ECC982AC</title><defs><path id="a" d="M25.372.245h25.37v62.481H.002V.245h25.37z"/></defs><g fill="none" fill-rule="evenodd"><path fill="#213D8E" d="M24.437 61.178l-.03-58.575h1.952l.031 58.575z"/><g transform="translate(0 .406)"><mask id="b" fill="#fff"><use xlink:href="#a"/></mask><path d="M47.151 27.58H3.594c-1.068-4.787-1.65-9.32-1.64-12.959 0-.187.072-.341.048-.343C15.766 9.783 21.004 5.665 23.75 2.96c.505-.5 1.072-.764 1.638-.764.56 0 1.123.264 1.628.764 2.75 2.708 7.994 6.832 21.664 11.283.037.036.111.19.111.377.01 3.64-.574 8.172-1.64 12.96M25.384 60.77c-9.72-.357-17.708-16.586-21.331-31.238h42.641c-3.622 14.652-11.6 30.881-21.31 31.239M49.348 12.42C35.744 7.979 30.808 3.955 28.389 1.57 27.485.68 26.433.244 25.388.244c-1.064 0-2.12.449-3.009 1.325C19.958 3.955 15 7.98 1.397 12.42c-.9.296-1.394 1.262-1.396 2.195-.041 16.13 10.585 47.664 25.383 48.111 14.796-.447 25.399-31.98 25.36-48.11-.002-.934-.498-1.9-1.396-2.195" fill="#213D8E" mask="url(#b)"/></g></g></svg>