<svg width="63" height="53" viewBox="0 0 63 53" xmlns="http://www.w3.org/2000/svg" xmlns:xlink="http://www.w3.org/1999/xlink"><title>46951A94-C534-4B1C-BE95-3B457FC0427D</title><defs><path id="a" d="M.507 16.658H16.66V.825H.507v15.833z"/><path id="c" d="M0 52.603h62.346V0H0z"/></defs><g fill="none" fill-rule="evenodd"><path d="M36.972 50.654l-2.1-5.844h-7.516l-1.97 5.844h11.586zM57.536 0c2.651 0 4.808 2.067 4.808 4.606l-.02 28.514h-1.948l.02-28.514c0-1.465-1.284-2.658-2.86-2.658H4.828c-1.578 0-2.86 1.196-2.86 2.662L1.946 40.2c0 1.465 1.286 2.661 2.862 2.661h38.056v1.949h-5.921l2.1 5.844h3.82v1.949H19.486v-1.949h3.847L25.3 44.81H4.808C2.157 44.81 0 42.739 0 40.198L.02 4.606C.02 2.067 2.176 0 4.828 0h52.708zM55.864 44.686a1.593 1.593 0 1 1-3.186.001 1.593 1.593 0 0 1 3.186-.001" fill="#213D8F"/><g transform="translate(45.686 35.945)"><mask id="b" fill="#fff"><use xlink:href="#a"/></mask><path d="M14.274 1.275a1.44 1.44 0 0 0-1.44 1.44v.273C11.998 1.868 10.41.825 8.092.825 3.769.825.507 4.223.507 8.727c0 3.941 2.605 7.932 7.585 7.932 2.026 0 3.752-.788 4.742-2.134v.242c0 .795.645 1.44 1.44 1.44h2.386V1.275h-2.386zM8.602 13.144a4.376 4.376 0 0 1-4.375-4.376c0-2.39 2.016-4.393 4.41-4.376 2.37.018 4.341 2.01 4.341 4.378a4.375 4.375 0 0 1-4.376 4.374z" fill="#213D8F" mask="url(#b)"/></g><path d="M25.333 31.172a1.949 1.949 0 1 0 .001 3.898 1.949 1.949 0 0 0-.001-3.898M37.019 31.173a1.949 1.949 0 1 0 .001 3.898 1.949 1.949 0 0 0-.001-3.898M19.286 9.66v.002-.002zm.15.086h.001-.001zm19.422 19.432H23.392L19.303 9.744l-1.806-.013.018-1.949 1.934.016a1.779 1.779 0 0 1 1.752 1.512l3.771 17.92h12.436l3.488-11.608v-.035H25.333v-1.948h15.726c.538 0 1.042.274 1.385.75.386.538.505 1.237.308 1.823l-3.894 12.966z" fill="#213D8F"/><mask id="d" fill="#fff"><use xlink:href="#c"/></mask><path fill="#213D8F" mask="url(#d)" d="M25.333 19.457h5.84V17.51h-5.84z"/></g></svg>