<svg width="56" height="64" viewBox="0 0 56 64" xmlns="http://www.w3.org/2000/svg"><title>65668521-F21A-4B26-A6E4-E056E3D1544D</title><g fill-rule="nonzero" fill="#213D8F"><path d="M30.209 51.901v-1.947c4.79 0 9.288-2.473 13.436-5.122a3.895 3.895 0 0 1 3.894-.584c.55.192 1.133.272 1.714.234.76 0 1.343-.682 1.947-1.675 1.753-2.512 3.018-6.192 1.655-8.334a11.45 11.45 0 0 0-.74-1.013c-.7-.895-.876-1.285-.798-3.213v-1.051a38.79 38.79 0 0 0 0-5.725 22.218 22.218 0 0 0-12.93-17.623 28.664 28.664 0 0 0-27.125.838c-6.68 4.011-9.425 11.683-8.179 22.607l-1.947.215C-.208 17.746 2.79 9.47 10.249 4.933a30.63 30.63 0 0 1 28.995-.857 24.127 24.127 0 0 1 14 19.18 41.165 41.165 0 0 1 0 5.998v1.052c0 1.382 0 1.402.37 1.947.307.374.593.764.857 1.169 1.948 3.096.331 7.594-1.694 10.495a4.966 4.966 0 0 1-3.466 2.493 6.037 6.037 0 0 1-2.414-.292 2.084 2.084 0 0 0-2.22.35c-4.167 2.668-9.172 5.433-14.468 5.433z"/><path d="M26.762 63.156c-5.063 0-10.184-1.5-13.222-5.238a18.635 18.635 0 0 1-2.92-5.842 30.124 30.124 0 0 0-1.267-3.174c-.428-.857-1.07-1.13-2.2-1.538a5.959 5.959 0 0 1-3.622-2.726c-1.13-1.986-2.687-8.354-.74-11.12a3.29 3.29 0 0 1 2.629-1.382V29.84c-.175-5.628-.331-11.47 2.804-16.455a17.525 17.525 0 0 1 12.56-7.458c4.692-.67 9.477-.19 13.942 1.402 1.577.565 6.056 2.181 6.66 5.083a7.789 7.789 0 0 1 5.14 2.317c3.486 3.641 3.175 10.632 3 15.753v3.038h-1.948v-3.116c.195-4.77.487-11.313-2.415-14.332a6.095 6.095 0 0 0-4.653-1.752h-1.09l.116-1.09c.097-.935-.76-2.396-5.433-4.09a27.378 27.378 0 0 0-12.988-1.305 15.578 15.578 0 0 0-11.236 6.64c-2.823 4.44-2.668 9.99-2.531 15.345v4.557l-1.15-.215c-1.168-.233-1.615.195-1.946.526-1.364 1.947-.117 7.322.837 9.055a4.109 4.109 0 0 0 2.726 1.889 5.082 5.082 0 0 1 3.29 2.512 31.546 31.546 0 0 1 1.422 3.33 16.844 16.844 0 0 0 2.61 5.257c3.758 4.635 11.683 5.238 17.525 3.895a16.201 16.201 0 0 0 11.022-11.372l1.947.564A18.168 18.168 0 0 1 33.11 62.436c-2.08.496-4.21.738-6.348.72z"/><path d="M31.143 50.694a2.98 2.98 0 1 1-5.958 0 2.98 2.98 0 0 1 5.958 0zM41.152 29.82c-.428-.585-.837-1.208-1.246-1.812-1.947-2.98-3.7-5.55-7.341-4.77-2.103.447-4.245 1.05-6.329 1.635a53.297 53.297 0 0 1-14.234 2.59v-1.947a51.797 51.797 0 0 0 13.63-2.512c2.103-.585 4.265-1.188 6.426-1.656 4.908-1.07 7.283 2.474 9.367 5.59.39.583.798 1.187 1.207 1.752l-1.48 1.13z"/></g></svg>