<svg width="824" height="408" viewBox="0 0 824 408" xmlns="http://www.w3.org/2000/svg" xmlns:xlink="http://www.w3.org/1999/xlink"><title>08425960-052A-4232-9E6C-6DB560716201</title><defs><path id="a" d="M0 407.017h823.212V0H0z"/></defs><g fill="none" fill-rule="evenodd"><path d="M823.212 177.791c0 95.255-77.22 172.474-172.473 172.474-95.255 0-172.474-77.219-172.474-172.474 0-95.254 77.219-172.473 172.474-172.473 95.253 0 172.472 77.22 172.472 172.473z" fill="#6277AF"/><path d="M133.162 43.457a4.318 4.318 0 0 0-4.312 4.314 4.318 4.318 0 0 0 4.312 4.313 4.317 4.317 0 0 0 4.313-4.313 4.318 4.318 0 0 0-4.313-4.314M154.401 46.112a4.318 4.318 0 0 0-4.314 4.313 4.32 4.32 0 0 0 4.315 4.314 4.319 4.319 0 0 0 4.312-4.314 4.318 4.318 0 0 0-4.313-4.313M176.301 52.37a4.319 4.319 0 0 0-4.312 4.313 4.318 4.318 0 0 0 4.312 4.313 4.318 4.318 0 0 0 4.314-4.313 4.319 4.319 0 0 0-4.314-4.313M196.403 61.377a4.317 4.317 0 0 0-4.313 4.312 4.319 4.319 0 0 0 4.313 4.315 4.319 4.319 0 0 0 4.312-4.315 4.318 4.318 0 0 0-4.312-4.312M215.08 74.557a4.318 4.318 0 0 0-4.313 4.312 4.32 4.32 0 0 0 4.314 4.314 4.319 4.319 0 0 0 4.312-4.314 4.318 4.318 0 0 0-4.312-4.312M230.345 90.486a4.318 4.318 0 0 0-4.314 4.312 4.318 4.318 0 0 0 4.314 4.313 4.317 4.317 0 0 0 4.313-4.313 4.317 4.317 0 0 0-4.313-4.312M243.43 108.783a4.318 4.318 0 0 0-4.314 4.313 4.318 4.318 0 0 0 4.314 4.313 4.318 4.318 0 0 0 4.312-4.313 4.318 4.318 0 0 0-4.312-4.313M253.005 128.79a4.318 4.318 0 0 0-4.312 4.311 4.318 4.318 0 0 0 4.312 4.314 4.319 4.319 0 0 0 4.314-4.314 4.318 4.318 0 0 0-4.314-4.312M133.162 65.17a4.319 4.319 0 0 0-4.312 4.312 4.318 4.318 0 0 0 4.312 4.314 4.318 4.318 0 0 0 4.313-4.314 4.318 4.318 0 0 0-4.313-4.313M111.735 67.256a4.318 4.318 0 0 0-4.312 4.312 4.318 4.318 0 0 0 4.312 4.313 4.317 4.317 0 0 0 4.313-4.313 4.317 4.317 0 0 0-4.313-4.312M110.503 89.442a4.318 4.318 0 0 0-4.314 4.312 4.319 4.319 0 0 0 4.314 4.314 4.318 4.318 0 0 0 4.313-4.314 4.317 4.317 0 0 0-4.313-4.312M89.643 98.07a4.319 4.319 0 0 0-4.312 4.313 4.318 4.318 0 0 0 4.312 4.313 4.317 4.317 0 0 0 4.313-4.313 4.318 4.318 0 0 0-4.313-4.313M72.008 111.77a4.318 4.318 0 0 0-4.312 4.313 4.318 4.318 0 0 0 4.312 4.313 4.317 4.317 0 0 0 4.313-4.313 4.317 4.317 0 0 0-4.313-4.313M58.148 130.116a4.318 4.318 0 0 0-4.314 4.313 4.318 4.318 0 0 0 4.314 4.313 4.318 4.318 0 0 0 4.312-4.313 4.318 4.318 0 0 0-4.312-4.313M112.921 111.09a4.318 4.318 0 0 0-4.314 4.311 4.319 4.319 0 0 0 4.314 4.314 4.318 4.318 0 0 0 4.312-4.314 4.318 4.318 0 0 0-4.312-4.312M94.668 120.161a4.318 4.318 0 0 0-4.312 4.312 4.318 4.318 0 0 0 4.312 4.313 4.317 4.317 0 0 0 4.313-4.313 4.317 4.317 0 0 0-4.313-4.312M80.73 134.478a4.318 4.318 0 0 0-4.311 4.313 4.318 4.318 0 0 0 4.312 4.313 4.318 4.318 0 0 0 4.314-4.313 4.318 4.318 0 0 0-4.314-4.313M111.09 135.236a4.319 4.319 0 0 0-4.314 4.314 4.318 4.318 0 0 0 4.314 4.313 4.318 4.318 0 0 0 4.312-4.313 4.318 4.318 0 0 0-4.312-4.314M91.54 73.513a4.318 4.318 0 0 0-4.314 4.313 4.319 4.319 0 0 0 4.314 4.314 4.318 4.318 0 0 0 4.312-4.314 4.318 4.318 0 0 0-4.312-4.313M73.194 83.753a4.317 4.317 0 0 0-4.313 4.312 4.318 4.318 0 0 0 4.313 4.314 4.319 4.319 0 0 0 4.312-4.314 4.318 4.318 0 0 0-4.312-4.312M56.697 96.837a4.319 4.319 0 0 0-4.314 4.313 4.318 4.318 0 0 0 4.314 4.313 4.318 4.318 0 0 0 4.312-4.313 4.319 4.319 0 0 0-4.312-4.313M43.28 113.193a4.318 4.318 0 0 0-4.313 4.312 4.318 4.318 0 0 0 4.314 4.313 4.318 4.318 0 0 0 4.312-4.313 4.318 4.318 0 0 0-4.312-4.312M33.686 131.396a4.318 4.318 0 0 0-4.314 4.313 4.319 4.319 0 0 0 4.314 4.314 4.318 4.318 0 0 0 4.312-4.314 4.318 4.318 0 0 0-4.312-4.313M133.162 86.693a4.318 4.318 0 0 0-4.312 4.312 4.318 4.318 0 0 0 4.312 4.314 4.318 4.318 0 0 0 4.313-4.314 4.317 4.317 0 0 0-4.313-4.312M133.162 108.215a4.318 4.318 0 0 0-4.312 4.312 4.319 4.319 0 0 0 4.312 4.314 4.318 4.318 0 0 0 4.313-4.314 4.317 4.317 0 0 0-4.313-4.312M133.162 129.547a4.318 4.318 0 0 0-4.312 4.312 4.318 4.318 0 0 0 4.312 4.315 4.318 4.318 0 0 0 4.313-4.315 4.317 4.317 0 0 0-4.313-4.312M133.162 172.213a4.318 4.318 0 0 0-4.312 4.312 4.318 4.318 0 0 0 4.312 4.314 4.318 4.318 0 0 0 4.313-4.314 4.317 4.317 0 0 0-4.313-4.312M111.735 172.213a4.318 4.318 0 0 0-4.312 4.312 4.318 4.318 0 0 0 4.312 4.314 4.318 4.318 0 0 0 4.313-4.314 4.317 4.317 0 0 0-4.313-4.312M90.213 172.213a4.317 4.317 0 0 0-4.313 4.312 4.318 4.318 0 0 0 4.313 4.314 4.318 4.318 0 0 0 4.312-4.314 4.318 4.318 0 0 0-4.313-4.312M68.69 172.213a4.318 4.318 0 0 0-4.313 4.312 4.319 4.319 0 0 0 4.314 4.314 4.318 4.318 0 0 0 4.312-4.314 4.318 4.318 0 0 0-4.312-4.312M47.168 172.213a4.317 4.317 0 0 0-4.313 4.312 4.318 4.318 0 0 0 4.313 4.314 4.318 4.318 0 0 0 4.312-4.314 4.318 4.318 0 0 0-4.312-4.312M25.834 172.213a4.318 4.318 0 0 0-4.312 4.312 4.318 4.318 0 0 0 4.312 4.314 4.319 4.319 0 0 0 4.314-4.314 4.318 4.318 0 0 0-4.314-4.312M4.312 172.213A4.318 4.318 0 0 0 0 176.525a4.318 4.318 0 0 0 4.312 4.314 4.318 4.318 0 0 0 4.313-4.314 4.317 4.317 0 0 0-4.313-4.312M154.59 172.213a4.318 4.318 0 0 0-4.313 4.312 4.318 4.318 0 0 0 4.313 4.314 4.318 4.318 0 0 0 4.313-4.314 4.317 4.317 0 0 0-4.314-4.312M175.733 172.213a4.317 4.317 0 0 0-4.313 4.312 4.318 4.318 0 0 0 4.314 4.314 4.318 4.318 0 0 0 4.311-4.314 4.318 4.318 0 0 0-4.311-4.312M197.16 172.213a4.317 4.317 0 0 0-4.312 4.312 4.318 4.318 0 0 0 4.313 4.314 4.319 4.319 0 0 0 4.314-4.314 4.318 4.318 0 0 0-4.314-4.312M193.557 152.491a4.318 4.318 0 0 0-4.313 4.313 4.318 4.318 0 0 0 4.313 4.314 4.319 4.319 0 0 0 4.314-4.314 4.319 4.319 0 0 0-4.314-4.313M218.398 172.213a4.318 4.318 0 0 0-4.312 4.312 4.318 4.318 0 0 0 4.312 4.314 4.319 4.319 0 0 0 4.314-4.314 4.318 4.318 0 0 0-4.314-4.312M143.212 154.009a4.318 4.318 0 0 0-4.312 4.312 4.318 4.318 0 0 0 4.312 4.314 4.319 4.319 0 0 0 4.314-4.314 4.318 4.318 0 0 0-4.314-4.312M154.401 135.236a4.319 4.319 0 0 0-4.314 4.314 4.318 4.318 0 0 0 4.315 4.313 4.318 4.318 0 0 0 4.312-4.313 4.318 4.318 0 0 0-4.313-4.314M152.694 111.09a4.317 4.317 0 0 0-4.313 4.311 4.318 4.318 0 0 0 4.313 4.314 4.318 4.318 0 0 0 4.312-4.314 4.318 4.318 0 0 0-4.312-4.312M169.57 151.354a4.318 4.318 0 0 0-4.312 4.313 4.317 4.317 0 0 0 4.313 4.313 4.318 4.318 0 0 0 4.312-4.313 4.319 4.319 0 0 0-4.312-4.313M184.315 135.236A4.319 4.319 0 0 0 180 139.55a4.318 4.318 0 0 0 4.314 4.313 4.318 4.318 0 0 0 4.312-4.313 4.318 4.318 0 0 0-4.312-4.314M170.614 120.73a4.318 4.318 0 0 0-4.314 4.312 4.319 4.319 0 0 0 4.314 4.314 4.318 4.318 0 0 0 4.312-4.314 4.318 4.318 0 0 0-4.312-4.312M154.116 89.442a4.317 4.317 0 0 0-4.313 4.312 4.318 4.318 0 0 0 4.313 4.314 4.318 4.318 0 0 0 4.312-4.314 4.318 4.318 0 0 0-4.312-4.312M153.405 67.256a4.318 4.318 0 0 0-4.314 4.312 4.318 4.318 0 0 0 4.314 4.313 4.318 4.318 0 0 0 4.312-4.313 4.318 4.318 0 0 0-4.312-4.312M172.937 73.513a4.317 4.317 0 0 0-4.313 4.313 4.318 4.318 0 0 0 4.313 4.314 4.318 4.318 0 0 0 4.312-4.314 4.318 4.318 0 0 0-4.312-4.313M175.259 98.07a4.319 4.319 0 0 0-4.312 4.313 4.318 4.318 0 0 0 4.312 4.313 4.317 4.317 0 0 0 4.313-4.313 4.318 4.318 0 0 0-4.313-4.313M191.756 83.753a4.318 4.318 0 0 0-4.312 4.312 4.319 4.319 0 0 0 4.312 4.314 4.32 4.32 0 0 0 4.314-4.314 4.318 4.318 0 0 0-4.314-4.312M207.78 96.837a4.319 4.319 0 0 0-4.314 4.313 4.318 4.318 0 0 0 4.314 4.313 4.318 4.318 0 0 0 4.312-4.313 4.319 4.319 0 0 0-4.312-4.313M192.847 111.77a4.318 4.318 0 0 0-4.314 4.313 4.318 4.318 0 0 0 4.314 4.313 4.318 4.318 0 0 0 4.312-4.313 4.318 4.318 0 0 0-4.312-4.313M206.5 129.547a4.318 4.318 0 0 0-4.312 4.312 4.318 4.318 0 0 0 4.312 4.315 4.318 4.318 0 0 0 4.313-4.315 4.317 4.317 0 0 0-4.313-4.312M221.718 113.193a4.318 4.318 0 0 0-4.314 4.312 4.318 4.318 0 0 0 4.314 4.313 4.318 4.318 0 0 0 4.312-4.313 4.318 4.318 0 0 0-4.312-4.312M231.293 131.396a4.318 4.318 0 0 0-4.312 4.313 4.318 4.318 0 0 0 4.312 4.314 4.318 4.318 0 0 0 4.313-4.314 4.317 4.317 0 0 0-4.313-4.313M215.175 150.312a4.318 4.318 0 0 0-4.314 4.313 4.319 4.319 0 0 0 4.314 4.313 4.319 4.319 0 0 0 4.312-4.313 4.318 4.318 0 0 0-4.312-4.313M236.983 152.113a4.319 4.319 0 0 0-4.314 4.313 4.318 4.318 0 0 0 4.314 4.313 4.318 4.318 0 0 0 4.312-4.314 4.319 4.319 0 0 0-4.312-4.313M259.168 150.312a4.318 4.318 0 0 0-4.312 4.313 4.319 4.319 0 0 0 4.312 4.313 4.318 4.318 0 0 0 4.313-4.313 4.317 4.317 0 0 0-4.313-4.313M261.255 172.213a4.318 4.318 0 0 0-4.315 4.312 4.319 4.319 0 0 0 4.315 4.314 4.318 4.318 0 0 0 4.312-4.314 4.318 4.318 0 0 0-4.313-4.312M258.695 194.968a4.317 4.317 0 0 0-4.314 4.313 4.317 4.317 0 0 0 4.314 4.313 4.318 4.318 0 0 0 4.312-4.313 4.318 4.318 0 0 0-4.313-4.313M237.55 193.167a4.318 4.318 0 0 0-4.312 4.312 4.319 4.319 0 0 0 4.312 4.314 4.318 4.318 0 0 0 4.313-4.314 4.317 4.317 0 0 0-4.313-4.312M215.743 193.925a4.318 4.318 0 0 0-4.312 4.312 4.318 4.318 0 0 0 4.312 4.313 4.318 4.318 0 0 0 4.314-4.313 4.318 4.318 0 0 0-4.314-4.312M193.558 192.503a4.317 4.317 0 0 0-4.313 4.313 4.317 4.317 0 0 0 4.313 4.313 4.318 4.318 0 0 0 4.312-4.313 4.318 4.318 0 0 0-4.312-4.313M169.57 193.925a4.317 4.317 0 0 0-4.312 4.312 4.317 4.317 0 0 0 4.313 4.313 4.318 4.318 0 0 0 4.312-4.313 4.318 4.318 0 0 0-4.312-4.312M153.357 209.664a4.318 4.318 0 0 0-4.312 4.312 4.318 4.318 0 0 0 4.312 4.314 4.318 4.318 0 0 0 4.313-4.314 4.317 4.317 0 0 0-4.313-4.312M184.315 210.375a4.318 4.318 0 0 0-4.314 4.313 4.318 4.318 0 0 0 4.314 4.313 4.318 4.318 0 0 0 4.312-4.313 4.318 4.318 0 0 0-4.312-4.313M207.02 214.784a4.318 4.318 0 0 0-4.311 4.312 4.318 4.318 0 0 0 4.312 4.313 4.318 4.318 0 0 0 4.314-4.313 4.318 4.318 0 0 0-4.314-4.312M231.293 213.267a4.318 4.318 0 0 0-4.312 4.312 4.318 4.318 0 0 0 4.312 4.314 4.318 4.318 0 0 0 4.313-4.314 4.317 4.317 0 0 0-4.313-4.312M253.005 216.064a4.319 4.319 0 0 0-4.312 4.313 4.318 4.318 0 0 0 4.312 4.313 4.318 4.318 0 0 0 4.314-4.313 4.319 4.319 0 0 0-4.314-4.313M243.24 236.022a4.317 4.317 0 0 0-4.313 4.312 4.318 4.318 0 0 0 4.313 4.314 4.319 4.319 0 0 0 4.312-4.314 4.318 4.318 0 0 0-4.312-4.312M230.725 254.937a4.319 4.319 0 0 0-4.314 4.313 4.318 4.318 0 0 0 4.314 4.313 4.318 4.318 0 0 0 4.312-4.313 4.319 4.319 0 0 0-4.312-4.313M221.433 231.898a4.317 4.317 0 0 0-4.313 4.312 4.318 4.318 0 0 0 4.313 4.314 4.319 4.319 0 0 0 4.314-4.314 4.318 4.318 0 0 0-4.314-4.312M193.558 232.893a4.317 4.317 0 0 0-4.313 4.312 4.318 4.318 0 0 0 4.313 4.314 4.318 4.318 0 0 0 4.312-4.314 4.318 4.318 0 0 0-4.312-4.312M207.922 248.11a4.319 4.319 0 0 0-4.312 4.313 4.318 4.318 0 0 0 4.312 4.313 4.317 4.317 0 0 0 4.313-4.313 4.318 4.318 0 0 0-4.313-4.313M170.044 224.644a4.319 4.319 0 0 0-4.312 4.313 4.318 4.318 0 0 0 4.312 4.313 4.317 4.317 0 0 0 4.313-4.313 4.318 4.318 0 0 0-4.313-4.313M151.841 233.889a4.318 4.318 0 0 0-4.314 4.312 4.32 4.32 0 0 0 4.314 4.314 4.319 4.319 0 0 0 4.312-4.314 4.318 4.318 0 0 0-4.312-4.312M154.59 254.937a4.319 4.319 0 0 0-4.313 4.313 4.318 4.318 0 0 0 4.313 4.313 4.317 4.317 0 0 0 4.313-4.313 4.318 4.318 0 0 0-4.314-4.313M175.259 246.261a4.319 4.319 0 0 0-4.312 4.313 4.318 4.318 0 0 0 4.312 4.313 4.317 4.317 0 0 0 4.313-4.313 4.318 4.318 0 0 0-4.313-4.313M192.12 261.349a4.318 4.318 0 0 0-4.312 4.312 4.319 4.319 0 0 0 4.312 4.314 4.32 4.32 0 0 0 4.314-4.314 4.318 4.318 0 0 0-4.314-4.312M214.448 270.592a4.319 4.319 0 0 0-4.312 4.313 4.318 4.318 0 0 0 4.312 4.313 4.318 4.318 0 0 0 4.314-4.313 4.319 4.319 0 0 0-4.314-4.313M196.545 283.462a4.317 4.317 0 0 0-4.313 4.312 4.318 4.318 0 0 0 4.313 4.314 4.319 4.319 0 0 0 4.314-4.314 4.318 4.318 0 0 0-4.314-4.312M176.35 293.133a4.317 4.317 0 0 0-4.313 4.312 4.318 4.318 0 0 0 4.313 4.314 4.318 4.318 0 0 0 4.312-4.314 4.318 4.318 0 0 0-4.312-4.312M154.59 298.822a4.318 4.318 0 0 0-4.313 4.313 4.318 4.318 0 0 0 4.313 4.313 4.317 4.317 0 0 0 4.313-4.313 4.317 4.317 0 0 0-4.314-4.313M153.357 277.774a4.318 4.318 0 0 0-4.312 4.312 4.318 4.318 0 0 0 4.312 4.313 4.317 4.317 0 0 0 4.313-4.313 4.317 4.317 0 0 0-4.313-4.312M172.937 271.373a4.317 4.317 0 0 0-4.313 4.313 4.317 4.317 0 0 0 4.313 4.313 4.318 4.318 0 0 0 4.312-4.313 4.318 4.318 0 0 0-4.312-4.313M142.739 191.302a4.317 4.317 0 0 0-4.313 4.313 4.317 4.317 0 0 0 4.313 4.313 4.318 4.318 0 0 0 4.312-4.313 4.318 4.318 0 0 0-4.312-4.313M121.785 190.828a4.318 4.318 0 0 0-4.312 4.312 4.318 4.318 0 0 0 4.312 4.314 4.319 4.319 0 0 0 4.314-4.314 4.318 4.318 0 0 0-4.314-4.312M110.977 209.664a4.318 4.318 0 0 0-4.314 4.312 4.319 4.319 0 0 0 4.314 4.314 4.318 4.318 0 0 0 4.312-4.314 4.318 4.318 0 0 0-4.312-4.312M112.541 233.889a4.318 4.318 0 0 0-4.314 4.312 4.32 4.32 0 0 0 4.314 4.314 4.319 4.319 0 0 0 4.312-4.314 4.318 4.318 0 0 0-4.312-4.312M110.977 255.66a4.318 4.318 0 0 0-4.314 4.312 4.318 4.318 0 0 0 4.314 4.313 4.318 4.318 0 0 0 4.312-4.313 4.318 4.318 0 0 0-4.312-4.312M111.735 277.062a4.319 4.319 0 0 0-4.312 4.313 4.318 4.318 0 0 0 4.312 4.313 4.317 4.317 0 0 0 4.313-4.313 4.318 4.318 0 0 0-4.313-4.313M110.977 298.822a4.318 4.318 0 0 0-4.314 4.313 4.318 4.318 0 0 0 4.314 4.313 4.318 4.318 0 0 0 4.312-4.313 4.318 4.318 0 0 0-4.312-4.313M88.505 293.133a4.318 4.318 0 0 0-4.311 4.312 4.318 4.318 0 0 0 4.311 4.314 4.318 4.318 0 0 0 4.314-4.314 4.317 4.317 0 0 0-4.314-4.312M91.445 271.373a4.317 4.317 0 0 0-4.313 4.313A4.317 4.317 0 0 0 91.445 280a4.318 4.318 0 0 0 4.314-4.313 4.318 4.318 0 0 0-4.314-4.313M68.69 283.396a4.318 4.318 0 0 0-4.313 4.312 4.319 4.319 0 0 0 4.314 4.314 4.318 4.318 0 0 0 4.312-4.314 4.318 4.318 0 0 0-4.312-4.312M94.195 223.933a4.317 4.317 0 0 0-4.313 4.313 4.317 4.317 0 0 0 4.313 4.313 4.318 4.318 0 0 0 4.312-4.313 4.318 4.318 0 0 0-4.312-4.313M90.213 247.399a4.317 4.317 0 0 0-4.313 4.313 4.318 4.318 0 0 0 4.313 4.314 4.318 4.318 0 0 0 4.312-4.314 4.318 4.318 0 0 0-4.313-4.313M73.146 261.349a4.318 4.318 0 0 0-4.312 4.312 4.319 4.319 0 0 0 4.312 4.314 4.32 4.32 0 0 0 4.314-4.314 4.318 4.318 0 0 0-4.314-4.312M50.391 270.592a4.319 4.319 0 0 0-4.312 4.313 4.318 4.318 0 0 0 4.312 4.313 4.317 4.317 0 0 0 4.313-4.313 4.318 4.318 0 0 0-4.313-4.313M80.068 209.664a4.318 4.318 0 0 0-4.314 4.312 4.319 4.319 0 0 0 4.314 4.314 4.318 4.318 0 0 0 4.312-4.314 4.318 4.318 0 0 0-4.312-4.312M58.545 215.353a4.317 4.317 0 0 0-4.313 4.313 4.317 4.317 0 0 0 4.313 4.313 4.318 4.318 0 0 0 4.313-4.313 4.318 4.318 0 0 0-4.313-4.313M33.799 213.267a4.318 4.318 0 0 0-4.312 4.312 4.318 4.318 0 0 0 4.312 4.314 4.318 4.318 0 0 0 4.313-4.314 4.317 4.317 0 0 0-4.313-4.312M11.614 216.064a4.319 4.319 0 0 0-4.314 4.313 4.318 4.318 0 0 0 4.314 4.313 4.318 4.318 0 0 0 4.312-4.313 4.319 4.319 0 0 0-4.312-4.313M21.664 236.022a4.318 4.318 0 0 0-4.314 4.312 4.32 4.32 0 0 0 4.314 4.314 4.319 4.319 0 0 0 4.312-4.314 4.318 4.318 0 0 0-4.312-4.312M43.28 231.898a4.318 4.318 0 0 0-4.313 4.312 4.319 4.319 0 0 0 4.314 4.314 4.318 4.318 0 0 0 4.312-4.314 4.318 4.318 0 0 0-4.312-4.312M72.008 232.893a4.318 4.318 0 0 0-4.312 4.312 4.318 4.318 0 0 0 4.312 4.314 4.318 4.318 0 0 0 4.313-4.314 4.317 4.317 0 0 0-4.313-4.312M56.649 248.11a4.319 4.319 0 0 0-4.312 4.313 4.318 4.318 0 0 0 4.312 4.313 4.317 4.317 0 0 0 4.313-4.313 4.318 4.318 0 0 0-4.313-4.313M34.444 254.937a4.319 4.319 0 0 0-4.312 4.313 4.318 4.318 0 0 0 4.312 4.313 4.317 4.317 0 0 0 4.313-4.313 4.318 4.318 0 0 0-4.313-4.313M95.333 193.925a4.318 4.318 0 0 0-4.314 4.312 4.318 4.318 0 0 0 4.314 4.313 4.318 4.318 0 0 0 4.312-4.313 4.318 4.318 0 0 0-4.312-4.312M71.345 192.408a4.318 4.318 0 0 0-4.314 4.312 4.32 4.32 0 0 0 4.314 4.314 4.319 4.319 0 0 0 4.312-4.314 4.318 4.318 0 0 0-4.312-4.312M49.728 194.968a4.317 4.317 0 0 0-4.313 4.313 4.317 4.317 0 0 0 4.313 4.313 4.318 4.318 0 0 0 4.312-4.313 4.318 4.318 0 0 0-4.312-4.313M27.352 193.167a4.318 4.318 0 0 0-4.312 4.312 4.319 4.319 0 0 0 4.312 4.314 4.318 4.318 0 0 0 4.313-4.314 4.317 4.317 0 0 0-4.313-4.312M5.925 194.493a4.318 4.318 0 0 0-4.313 4.313 4.318 4.318 0 0 0 4.313 4.314 4.318 4.318 0 0 0 4.313-4.314 4.317 4.317 0 0 0-4.313-4.313M240.015 172.213a4.318 4.318 0 0 0-4.312 4.312 4.318 4.318 0 0 0 4.312 4.314 4.319 4.319 0 0 0 4.314-4.314 4.318 4.318 0 0 0-4.314-4.312M121.785 154.009a4.318 4.318 0 0 0-4.312 4.312 4.318 4.318 0 0 0 4.312 4.314 4.319 4.319 0 0 0 4.314-4.314 4.318 4.318 0 0 0-4.314-4.312M95.333 151.354a4.319 4.319 0 0 0-4.314 4.313 4.318 4.318 0 0 0 4.314 4.313 4.318 4.318 0 0 0 4.312-4.313 4.319 4.319 0 0 0-4.312-4.313M71.345 152.491a4.319 4.319 0 0 0-4.314 4.313 4.319 4.319 0 0 0 4.314 4.314 4.318 4.318 0 0 0 4.312-4.314 4.319 4.319 0 0 0-4.312-4.313M48.969 151.354a4.319 4.319 0 0 0-4.312 4.313 4.318 4.318 0 0 0 4.312 4.313 4.317 4.317 0 0 0 4.313-4.313 4.318 4.318 0 0 0-4.313-4.313M27.352 151.828a4.318 4.318 0 0 0-4.312 4.312 4.318 4.318 0 0 0 4.312 4.314 4.318 4.318 0 0 0 4.313-4.314 4.317 4.317 0 0 0-4.313-4.312M5.925 150.5a4.319 4.319 0 0 0-4.313 4.314 4.318 4.318 0 0 0 4.313 4.313 4.317 4.317 0 0 0 4.313-4.313 4.318 4.318 0 0 0-4.313-4.314M11.614 129.073a4.318 4.318 0 0 0-4.314 4.313 4.32 4.32 0 0 0 4.314 4.314 4.319 4.319 0 0 0 4.312-4.314 4.318 4.318 0 0 0-4.312-4.313M21.664 108.783a4.318 4.318 0 0 0-4.314 4.313 4.318 4.318 0 0 0 4.314 4.313 4.318 4.318 0 0 0 4.312-4.313 4.318 4.318 0 0 0-4.312-4.313M34.274 90.674a4.318 4.318 0 0 0-4.314 4.312 4.319 4.319 0 0 0 4.314 4.315 4.318 4.318 0 0 0 4.312-4.315 4.318 4.318 0 0 0-4.312-4.312M50.296 74.652a4.318 4.318 0 0 0-4.312 4.312 4.318 4.318 0 0 0 4.312 4.314 4.319 4.319 0 0 0 4.314-4.314 4.318 4.318 0 0 0-4.314-4.312M68.88 61.567a4.319 4.319 0 0 0-4.313 4.313 4.318 4.318 0 0 0 4.314 4.313 4.318 4.318 0 0 0 4.311-4.313 4.319 4.319 0 0 0-4.311-4.313M88.98 52.37a4.318 4.318 0 0 0-4.313 4.313 4.317 4.317 0 0 0 4.313 4.313 4.318 4.318 0 0 0 4.312-4.313 4.319 4.319 0 0 0-4.312-4.313M110.503 46.112a4.318 4.318 0 0 0-4.314 4.313 4.32 4.32 0 0 0 4.314 4.314 4.318 4.318 0 0 0 4.313-4.314 4.317 4.317 0 0 0-4.313-4.313M133.162 214.784a4.318 4.318 0 0 0-4.312 4.312 4.318 4.318 0 0 0 4.312 4.313 4.317 4.317 0 0 0 4.313-4.313 4.317 4.317 0 0 0-4.313-4.312M133.162 236.022a4.318 4.318 0 0 0-4.312 4.312 4.319 4.319 0 0 0 4.312 4.314 4.318 4.318 0 0 0 4.313-4.314 4.317 4.317 0 0 0-4.313-4.312M133.162 257.639a4.318 4.318 0 0 0-4.312 4.312 4.319 4.319 0 0 0 4.312 4.314 4.318 4.318 0 0 0 4.313-4.314 4.317 4.317 0 0 0-4.313-4.312M133.162 279.256a4.318 4.318 0 0 0-4.312 4.312 4.318 4.318 0 0 0 4.312 4.314 4.318 4.318 0 0 0 4.313-4.314 4.317 4.317 0 0 0-4.313-4.312M133.162 300.59a4.318 4.318 0 0 0-4.312 4.311 4.319 4.319 0 0 0 4.312 4.314 4.318 4.318 0 0 0 4.313-4.314 4.317 4.317 0 0 0-4.313-4.312" fill="#4D62A5"/><mask id="b" fill="#fff"><use xlink:href="#a"/></mask><path fill="#909EC7" mask="url(#b)" d="M195.574 336.97h11.792V58.03h-11.792z"/><path fill="#E8ECF3" mask="url(#b)" d="M207.366 336.97h436.948V58.03H207.366z"/><path fill="#909EC7" mask="url(#b)" d="M377.198 394.445h11.792v-57.849h-11.792z"/><path fill="#CDD3E6" mask="url(#b)" d="M388.99 394.445h73.7v-57.849h-73.7z"/><path fill="#909EC7" mask="url(#b)" d="M330.935 407.017h11.792v-12.572h-11.792z"/><path fill="#E8ECF3" mask="url(#b)" d="M342.727 407.017h166.227v-12.572H342.727z"/><path fill="#C6EDF8" mask="url(#b)" d="M222.375 321.789h406.931V73.211H222.375z"/><path fill="#D2F1F9" mask="url(#b)" d="M603.591 321.757L355.045 73.211h98.837l175.423 175.423v73.155z"/><path d="M764.512 370.72H696.11c-10.02 0-18.145-8.122-18.145-18.145V188.229c0-10.022 8.124-18.146 18.145-18.146h68.402c10.021 0 18.145 8.124 18.145 18.146v164.346c0 10.023-8.124 18.146-18.145 18.146" fill="#909EC7" mask="url(#b)"/><path d="M769.693 370.72h-68.401c-10.022 0-18.146-8.122-18.146-18.145V188.229c0-10.022 8.125-18.146 18.146-18.146h68.401c10.022 0 18.145 8.124 18.145 18.146v164.346c0 10.023-8.123 18.146-18.144 18.146" fill="#E8ECF3" mask="url(#b)"/><path fill="#FBFFFF" mask="url(#b)" d="M690.104 346.311h90.777V194.494h-90.777z"/><path fill="#4D4F63" mask="url(#b)" d="M690.104 200.236h90.777v-5.742h-90.777zM690.104 346.311h90.777v-14.075h-90.777z"/><path d="M740.788 358.979a5.296 5.296 0 1 1-10.592 0 5.296 5.296 0 0 1 10.592 0M737.131 183.261a1.64 1.64 0 1 1-3.278 0 1.64 1.64 0 0 1 3.278 0" fill="#BCC4DD" mask="url(#b)"/><path d="M771.826 219.863h-72.667a3 3 0 0 0-3 3v8.099a3 3 0 0 0 3 3h72.667a3 3 0 0 0 3-3v-8.099a3 3 0 0 0-3-3m0 .5c1.378 0 2.5 1.121 2.5 2.5v8.099c0 1.379-1.122 2.5-2.5 2.5h-72.667a2.503 2.503 0 0 1-2.5-2.5v-8.099c0-1.379 1.122-2.5 2.5-2.5h72.667M771.826 238.888h-72.667a3 3 0 0 0-3 3v8.098a3 3 0 0 0 3 3h72.667a3 3 0 0 0 3-3v-8.098a3 3 0 0 0-3-3m0 .5c1.378 0 2.5 1.12 2.5 2.5v8.098c0 1.378-1.122 2.5-2.5 2.5h-72.667a2.503 2.503 0 0 1-2.5-2.5v-8.098c0-1.38 1.122-2.5 2.5-2.5h72.667M771.826 258.388h-72.667a3 3 0 0 0-3 3v8.098a3 3 0 0 0 3 3h72.667a3 3 0 0 0 3-3v-8.098a3 3 0 0 0-3-3m0 .5c1.378 0 2.5 1.12 2.5 2.5v8.098c0 1.378-1.122 2.5-2.5 2.5h-72.667a2.503 2.503 0 0 1-2.5-2.5v-8.098c0-1.38 1.122-2.5 2.5-2.5h72.667" fill="#909EC6" mask="url(#b)"/><path d="M771.826 318.832h-72.667a3 3 0 0 1-3-3v-14a3 3 0 0 1 3-3h72.667a3 3 0 0 1 3 3v14a3 3 0 0 1-3 3" fill="#9CC838" mask="url(#b)"/><path d="M771.826 316.832h-72.667a3 3 0 0 1-3-3v-14a3 3 0 0 1 3-3h72.667a3 3 0 0 1 3 3v14a3 3 0 0 1-3 3" fill="#8EBF3F" mask="url(#b)"/><path d="M710.578 302.939c.972 0 1.787.479 2.315 1.02l-.972 1.09c-.395-.36-.767-.587-1.319-.587-1.09 0-1.943.948-1.943 2.519 0 1.607.756 2.543 1.895 2.543.648 0 1.104-.276 1.487-.696l.972 1.067c-.648.756-1.51 1.15-2.483 1.15-2.027 0-3.682-1.377-3.682-4.004 0-2.59 1.715-4.102 3.73-4.102M714.18 303.083h1.775v3.01h2.7v-3.01h1.761v7.82h-1.762v-3.262h-2.699v3.261h-1.775zM722.244 303.083h4.905v1.487h-3.13v1.571h2.662v1.475h-2.662v1.8h3.25v1.486h-5.025zM732.154 302.939c.972 0 1.787.479 2.315 1.02l-.972 1.09c-.395-.36-.767-.587-1.32-.587-1.09 0-1.942.948-1.942 2.519 0 1.607.756 2.543 1.895 2.543.648 0 1.104-.276 1.487-.696l.972 1.067c-.648.756-1.511 1.15-2.483 1.15-2.027 0-3.682-1.377-3.682-4.004 0-2.59 1.715-4.102 3.73-4.102M735.756 303.083h1.775v3.202h.036l2.338-3.202h1.932l-2.363 3.118 2.806 4.701h-1.942l-1.895-3.298-.912 1.2v2.098h-1.775zM747.693 306.956c0-1.559-.671-2.494-1.739-2.494-1.055 0-1.739.935-1.739 2.494 0 1.571.684 2.567 1.739 2.567 1.068 0 1.739-.996 1.739-2.567m-5.289 0c0-2.554 1.451-4.018 3.55-4.018 2.111 0 3.55 1.476 3.55 4.018 0 2.555-1.439 4.09-3.55 4.09-2.099 0-3.55-1.535-3.55-4.09M750.936 303.083h1.763v4.377c0 1.535.48 2.063 1.355 2.063.876 0 1.392-.528 1.392-2.063v-4.377h1.702v4.197c0 2.627-1.067 3.766-3.094 3.766s-3.118-1.139-3.118-3.766v-4.197zM760.463 304.57h-2.159v-1.486h6.069v1.486h-2.147v6.332h-1.763z" fill="#FBFFFF" mask="url(#b)"/><path d="M701.35 224.065h1.208l1.359 2.59.519 1.152h.033c-.056-.552-.152-1.288-.152-1.903v-1.84h1.119v5.214h-1.207l-1.36-2.6-.511-1.134h-.032c.056.576.15 1.27.15 1.887v1.847h-1.126v-5.213zM708.005 228.462c.272 0 .448-.128.656-.336v-.695c-.84.111-1.112.351-1.112.655 0 .256.176.376.456.376m.656-1.735c-.024-.352-.2-.576-.624-.576-.336 0-.672.136-1.055.36l-.416-.776c.504-.303 1.071-.519 1.695-.519 1.015 0 1.575.575 1.575 1.791v2.27h-.959l-.088-.408h-.024c-.336.296-.712.504-1.159.504-.72 0-1.176-.527-1.176-1.199 0-.83.664-1.287 2.231-1.447M710.846 225.312h.959l.08.512h.033c.327-.328.679-.608 1.199-.608.56 0 .896.24 1.095.663.352-.36.72-.663 1.248-.663.855 0 1.239.608 1.239 1.599v2.463h-1.175v-2.311c0-.576-.152-.752-.488-.752-.2 0-.424.128-.68.384v2.679h-1.175v-2.311c0-.576-.152-.752-.488-.752-.192 0-.424.128-.671.384v2.679h-1.176v-3.966zM720.028 226.887c0-.456-.19-.775-.664-.775-.367 0-.687.248-.767.775h1.431zm-.687-1.671c1.127 0 1.687.823 1.687 1.902 0 .208-.024.4-.048.497h-2.375c.104.599.504.863 1.031.863.296 0 .568-.088.856-.264l.392.712a2.602 2.602 0 0 1-1.407.447c-1.136 0-2.008-.767-2.008-2.078 0-1.288.92-2.08 1.872-2.08zM701.35 243.19h1.184v4.222h2.054v.99h-3.238zM706.821 247.587c.271 0 .447-.128.655-.336v-.695c-.839.111-1.11.351-1.11.655 0 .256.175.376.455.376m.655-1.735c-.024-.352-.199-.576-.623-.576-.336 0-.672.136-1.055.36l-.416-.776c.503-.303 1.071-.519 1.695-.519 1.015 0 1.575.575 1.575 1.791v2.27h-.96l-.088-.408h-.024c-.336.296-.71.504-1.159.504-.72 0-1.175-.527-1.175-1.199 0-.83.663-1.287 2.23-1.447M709.838 247.211c.359.271.687.416 1.023.416.352 0 .504-.128.504-.336 0-.264-.4-.384-.808-.544-.479-.183-1.047-.512-1.047-1.167 0-.735.599-1.239 1.519-1.239.608 0 1.056.248 1.399.504l-.527.703c-.288-.208-.56-.336-.84-.336-.304 0-.448.112-.448.312 0 .255.368.352.776.503.504.185 1.072.464 1.072 1.192 0 .72-.568 1.28-1.632 1.28a2.56 2.56 0 0 1-1.519-.553l.528-.735zM713.366 245.357h-.544v-.872l.608-.048.136-1.056h.975v1.056h.952v.92h-.952v1.59c0 .448.2.633.512.633.128 0 .272-.04.376-.08l.184.855a2.857 2.857 0 0 1-.88.144c-.983 0-1.367-.616-1.367-1.536v-1.606zM718.022 243.19h1.208l1.359 2.59.519 1.152h.033c-.056-.552-.152-1.288-.152-1.903v-1.84h1.119v5.214H720.9l-1.36-2.6-.511-1.134h-.032c.056.576.15 1.27.15 1.887v1.847h-1.126v-5.213zM724.677 247.587c.27 0 .447-.128.655-.336v-.695c-.84.111-1.111.351-1.111.655 0 .256.176.376.456.376m.655-1.735c-.024-.352-.2-.576-.623-.576-.336 0-.672.136-1.055.36l-.416-.776c.503-.303 1.07-.519 1.695-.519 1.015 0 1.575.575 1.575 1.791v2.27h-.96l-.088-.408h-.024c-.336.296-.711.504-1.16.504-.72 0-1.174-.527-1.174-1.199 0-.83.663-1.287 2.23-1.447M727.518 244.437h.959l.08.512h.033c.327-.328.679-.608 1.199-.608.56 0 .896.24 1.095.663.352-.36.72-.663 1.248-.663.855 0 1.239.608 1.239 1.599v2.463h-1.175v-2.311c0-.576-.152-.752-.488-.752-.2 0-.424.128-.68.384v2.679h-1.175v-2.311c0-.576-.152-.752-.488-.752-.192 0-.424.128-.671.384v2.679h-1.176v-3.966zM736.7 246.012c0-.456-.192-.775-.664-.775-.368 0-.688.248-.768.775h1.432zm-.688-1.671c1.127 0 1.687.823 1.687 1.902 0 .208-.024.4-.048.497h-2.374c.104.599.503.863 1.031.863.296 0 .568-.088.855-.264l.392.712a2.6 2.6 0 0 1-1.407.447c-1.135 0-2.007-.767-2.007-2.078 0-1.288.92-2.08 1.871-2.08zM701.35 262.69h3.27v.99h-2.086v1.049h1.774v.983h-1.774v1.2h2.167v.99h-3.351zM705.63 263.937h.959l.081.512h.032c.327-.328.679-.608 1.199-.608.56 0 .896.24 1.095.663.352-.36.72-.663 1.248-.663.855 0 1.239.608 1.239 1.599v2.463h-1.175v-2.311c0-.576-.152-.752-.488-.752-.2 0-.424.128-.68.384v2.679h-1.175v-2.311c0-.576-.152-.752-.488-.752-.192 0-.424.128-.671.384v2.679h-1.176v-3.966zM713.917 267.087c.271 0 .447-.128.655-.336v-.695c-.839.111-1.11.351-1.11.655 0 .256.175.376.455.376m.655-1.735c-.024-.352-.199-.576-.623-.576-.336 0-.672.136-1.055.36l-.416-.776c.503-.303 1.071-.519 1.695-.519 1.015 0 1.575.575 1.575 1.791v2.27h-.96l-.088-.408h-.024c-.336.296-.71.504-1.159.504-.72 0-1.175-.527-1.175-1.199 0-.83.663-1.287 2.23-1.447M716.758 267.903h1.176v-3.966h-1.176v3.966zm-.096-5.165c0-.361.288-.608.68-.608.399 0 .68.247.68.608 0 .359-.281.615-.68.615-.392 0-.68-.256-.68-.615zM718.966 262.298h1.174v4.421c0 .248.114.328.208.328.048 0 .08 0 .144-.016l.144.871c-.127.056-.327.096-.59.096-.809 0-1.08-.527-1.08-1.327v-4.373z" fill="#213D8E" mask="url(#b)"/><path fill="#4D4F63" mask="url(#b)" d="M266.577 321.789h264.945V-.001H266.577z"/><path fill="#1CB8DD" mask="url(#b)" d="M285.077 32.166h57.65v-6h-57.65zM285.077 187.166H414.91v-6H285.077z"/><path fill="#E97876" mask="url(#b)" d="M285.077 45.166h57.65v-6h-57.65zM285.077 285.833h57.65v-6h-57.65z"/><path fill="#1CB8DD" mask="url(#b)" d="M285.077 297.833h57.65v-6h-57.65z"/><path fill="#8EBF3F" mask="url(#b)" d="M285.077 74.166h84.718v-6h-84.718zM298.551 199.166h32.774v-6h-32.774z"/><path fill="#4D62A5" mask="url(#b)" d="M335.551 199.166h49.463v-6h-49.463zM390.179 199.166h29.09v-6h-29.09zM424.173 199.166h29.09v-6h-29.09zM313.901 218.901h49.463v-6h-49.463zM368.53 218.901h29.09v-6h-29.09zM402.523 218.901h29.09v-6h-29.09z"/><path fill="#E97876" mask="url(#b)" d="M313.961 86.499h26.949v-6h-26.949zM313.961 134.499h26.949v-6h-26.949zM285.077 171.833h26.949v-6h-26.949zM424.243 187.166h26.949v-6h-26.949z"/><path fill="#FBFFFF" mask="url(#b)" d="M376.91 74.166h84.718v-6H376.91zM342.726 98.499h49.056v-6h-49.056z"/><path fill="#E97876" mask="url(#b)" d="M313.961 239.343h26.949v-6h-26.949zM313.961 263.343h26.949v-6h-26.949z"/><path fill="#8EBF3F" mask="url(#b)" d="M342.726 251.343h49.056v-6h-49.056z"/><path fill="#FBFFFF" mask="url(#b)" d="M396.921 251.343h26.906v-6h-26.906zM342.727 110.499h84.574v-6h-84.574zM342.726 122.499h77.972v-6h-77.972z"/></g></svg>